<svg xmlns="http://www.w3.org/2000/svg" viewBox="0 0 668.8 499.4"><style><![CDATA[.K{fill:#fbc94a}.L{fill:#faa235}.M{fill:#c45188}.N{fill:#ec3b33}.O{fill:#f0785e}.P{fill:#eadac7}.Q{fill:#6d62d1}.R{fill:#63bdc6}.S{fill:#4acbb8}]]></style><path d="M642.3 440.6c3.5 1.6 6.4 4.9 6.3 8.7-.1 3.4-2.5 6.2-4.8 8.8-.5.7-1.2 1.2-1.9 1.7-1.4.8-3.1.5-4.7.4-5.3-.7-10.7-1-15.9.1-2.4.7-4.9 1.2-7.4 1.5-4.5.3-8.8-1.5-13.2-2.2s-8.8-.3-13.3-.2-9-.3-12.9-2.5l-.3-.2c-3.8-2.2-6.6-6.3-6.2-10.6s.7-6.3 6.4-6.3l.1-.3.7.1c5.6-2.3 11.9-2.2 18-2l16.9.5 21.1.7c.9 0 1.9.1 2.9.1 2.8.1 5.6.7 8.2 1.7z" class="O"/><path d="M605.3 345.3c6 3 10.7 8.1 14.4 13.7 3.8 5.8 7.1 13.2 10.6 19.2-2.4-1.4-5.1.3-6.3 1.7-1.9 2.2-2.4 5.2-2.7 8a95.43 95.43 0 0 0-.3 20c0 1.7.5 3.3 1.3 4.7 1 1.3 3 2 4.3 1.1s1.4-2.6 1.6-4.3c1.6.2 3.2-1.7 4-3.4 1-2.1 1.9-4.3 2.5-6.5h.9c1.3 8.4 3.7 20.8 4 29.5-.3 3.3-.7 6.6-1.3 9.9l-4.3.1c-1 0-1.9-.1-2.9-.1l-21.1-.7v-.9c0-2.5.4-5.1 1.1-7.5 1.7-.2 3.1-1.4 3.5-3.1.5-2-.1-4-.7-6-.3-1-1.1-2.3-2.1-1.9.7-6.1 1.7-14 1.6-20.2-.1-8.2-1.7-16.3-3.3-24.3l-5.9-29.7c.4.3.8.5 1.1.7z" class="K"/><g class="O"><path d="M628.3 409.4c-.3 0-.5-.1-.7-.3-.8-.7-1.3-1.7-1.4-2.8-1.3-8.4-.5-17 2.2-25.1l.8-.6c1.9.9 3.5 2.4 4.5 4.2 1.4 2.3 2.1 4.9 2.2 7.5 0 2.4-.4 4.8-1.1 7.2-.7 2.2-1.5 4.4-2.5 6.5-.8 1.7-2.4 3.6-4 3.4z"/><path d="M624 379.9c1.2-1.4 3.9-3.1 6.3-1.7 1.4.8 2.7 2.8 3.4 6.6-1.1-1.8-2.7-3.3-4.5-4.2l-.8.6c-2.7 8.1-3.5 16.7-2.2 25.1 0 1.1.5 2.1 1.4 2.8.2.1.5.2.7.3-.2 1.7-.3 3.4-1.6 4.3s-3.3.2-4.3-1.1c-.9-1.4-1.3-3-1.3-4.7a95.43 95.43 0 0 1 .3-20c.2-2.9.8-5.9 2.6-8zm-12.1 39c1-.4 1.8.9 2.1 1.9.6 2 1.2 4 .7 6-.4 1.6-1.8 2.9-3.5 3.1.1-.1.1-.3.1-.4l-.2-8.5c0-.6.1-1.1.3-1.6.1-.3.3-.4.5-.5z"/></g><path d="M613.2 312.2l-.3.2-10.9 1.7c-.9.1-.9.5-1.8.3-2-.5-3.3-2.6-4.2-4.4l-20.3-39.5c-1.5-2.9-4.4-6.5-4.3-9.7 2-.3 8.6-.5 10.6-.8 1.7 8.9 6.9 16.8 12 24.4l19.2 27.8z" class="R"/><path d="M611.3 429.4c0 .1-.1.2-.1.4-.3 0-.7 0-1-.2-2-.8-2.4-3.4-2.4-5.5-.2-1.4.1-2.9.8-4.1.7-.9 1.8-1.2 2.9-.8-.2.5-.4 1.1-.3 1.6l.1 8.6z" class="N"/><path d="M604.8 331.4c1.2 2.2.4 5.1-1.8 6.3l-.1.1c-1-1.4-1.7-3-1.9-4.7-.2-1.1-.1-2.3.2-3.4.7-.3 3 1.1 3.6 1.7z" class="O"/><path d="M597.3 319.7c1.6 4.3 2.8 8.8 3.5 13.4h.1c.2 1.7.9 3.3 1.9 4.7l1.4 6.9c-16.6-9.3-41.5-12.9-60.3-13.2-30.1-.6-65.1-2.9-95.2-3.5v-.4l-.6-9.9.7-.1c10 .6 75.5-.3 119.2.8 11.8.3 22.1.7 29.3 1.3z" class="P"/><path d="M586.1 309.2c.5 1.7-.1 3.6-1.6 4.6-.9.5-5.9.4-6.9.5-4.7.3-3 .5-7.7.8-.8 0-1.3.1-1.8.1-1 0-1.9-.3-2.7-.9-1.4-1.1-2.4-2.6-3.1-4.2L548 280.4c-2-4.3-4.1-8.8-4.4-13.5-.1-.6.1-1.2.4-1.7.4-.5-.4-.7.3-.7 4.3 0 10.5-.7 15.6-1 1.2-.1 2.2-.1 3.2-.1 6 14.4 11.3 28.5 20.4 41.2 1.3 1.4 2.1 2.9 2.6 4.6z" class="R"/><path d="M597.3 319.7c-3.1-8.4-7.2-16.4-12.1-23.8-7.3-11.4-11.5-25.2-18.7-36.6v-.8c5.1-.2 10.2-.5 15.3-.9v.3l.3 2.1c-2 .3-8.6.5-10.6.8-.1 3.3 2.8 6.8 4.3 9.7l20.3 39.5c1 1.8 2.2 4 4.2 4.4.9.2.9-.1 1.8-.3l10.9-1.7.3-.2c1 1.5 2 2.9 3.1 4.4 16.9 33 26.9 75 23.4 112.5-.3-8.6-2.7-21.1-4-29.5h-.9c.7-2.3 1.1-4.7 1.1-7.2-.1-2.7-.8-5.3-2.2-7.5-.7-3.8-2-5.8-3.4-6.6-3.5-6-6.7-13.4-10.6-19.2-3.7-5.6-8.4-10.7-14.4-13.7-.4-.2-.8-.4-1.1-.6-.4-2.3-.9-4.6-1.4-6.9 2.3-1.2 3.2-4 2-6.2l-.1-.1c-.6-.5-2.9-1.9-3.7-1.7-.3 1.1-.4 2.3-.2 3.4h-.1c-.7-4.7-1.9-9.2-3.5-13.6z" class="P"/><path d="M554.8 422.8c4 7.9 11.3 15.3 19.8 16.7l-.1.3c-5.8.1-6 1.9-6.4 6.3s2.4 8.4 6.2 10.6l-.2.3c-.5 1.4-1.4 1.8-2.8 1.3-1.4-.6-2.6-1.7-3.3-3.1l-10.7-15.9h-.1c0-5.6-.7-11.2-2.4-16.5z" class="K"/><path d="M597.3 319.7c-7.2-.6-17.4-1-29.3-1.3l.1-3.2c.5 0 1.1 0 1.8-.1 4.7-.3 3-.5 7.7-.8 1-.1 6.1.1 6.9-.5 1.4-1.1 2-2.9 1.6-4.6-.5-1.7-1.4-3.2-2.5-4.6-9.1-12.7-14.4-26.8-20.4-41.2-1 0-2.1 0-3.2.1l-.1-4.9 6.6-.3v.8c7.2 11.5 11.4 25.2 18.7 36.6 4.9 7.6 8.9 15.6 12.1 24z" class="P"/><path d="M542.5 277.9c5.9 11.8 11.6 23.7 17 35.7l-.3.1c-.1 0-11.7-.6-11.8-.6-7.7 1.3-10.3 1.3-22.2 1-5.1-.1-16.1.3-21.6-.2-.3-15.8-3-33.7-4.2-49.4 7.6-1 15.2-1.3 22.8-.8 4.3.3 8.8 1 12.4 3.5s6 6.8 7.9 10.7zM537.1 457.7c5.8-5.8 11.7-13.2 10.6-21.2.3-6.5-2-12.8-6.2-17.7-4.4-5.2-10.1-9.2-16.6-11.6-3.6-1.5-7.5-2.4-11.4-2.5-3.6 0-7.2.7-10.6 2-5.8 2.1-11 5.9-14.8 10.8-3.7 5-5.8 12.2-5 18.3-.5 7.5 1.8 14.9 6.5 20.7 1.5 1.9 3.3 3.6 5.2 5.2 8.2 6.7 19.9 9.8 29.6 5.6 5-2.1 9-5.9 12.7-9.6zm-65.8-24c-.7-5.3 0-10.7 2-15.7 2.6-6.8 7-12.8 12.8-17.2 4.2-3.1 9-5.3 14-6.7 4.8-.6 9.7-1.2 14.8-1.6 2.5.1 4.9.4 7.3.9.1 0 .3 0 .4.1 2.9.8 6 1.9 8.8 3 .3.1.5.3.8.4 4.6 2.6 10.5 4.8 13.7 9l.4.6c3.1 4.3 5.4 9.6 7.5 14.5.3.6.6 1.3.9 1.9 1.7 5.3 2.4 10.9 2.3 16.5v.8c-.3 9.8-6.1 19.4-13 26.4-7.6 7.6-18 12.2-28.7 13.4-7.2.9-14.7.3-21.2-2.8-7.7-3.7-13.5-10.8-17-18.6s-4.9-16.4-5.8-24.9z" class="R"/><path d="M538.6 435.4l.1.2c.2 2.6.4 2.7-.7 5-.4.9-1.2 3-2.1 3.4-1.7.9-4.4-.1-6-1.1-3.9-2.4-12.6-6.3-10.8-10.1v-.2c.2-1.6 3.7-2.6 5.1-3.3 3.1-1.7 6.7-3.4 9.8-1.8 2.9 1.5 3.9 4.9 4.6 7.9zM527.8 453.4c.5.9.7 1.9.3 2.9-.3.5-.8.9-1.4 1.2-3.1 1.7-6.4 2.8-9.9 3.3-1.3.2-2.8.1-3.6-.9-.4-.9-.5-1.9-.2-2.9 1.1-5.2.9-15.8 2.7-16.7 3.8-1 9.7 7.9 12.1 13.1zM526.1 418.1c.5.2.8.6 1 1.2 0 .4-.1.7-.3 1-2.2 4-6.1 7.5-10.7 7.8-.4.1-.8 0-1.1-.2-.3-.3-.5-.6-.6-1l-4.1-11.8c-.2-1.8.3-2.4 2.1-2.7 1.9-.1 3.7.2 5.3 1.1 3 1.2 5.8 2.8 8.4 4.6z" class="L"/><path d="M524.2 429.4c-1.4.8-4.9 1.7-5.1 3.3v.2c-1.8 3.8 6.9 7.7 10.8 10.1 1.6 1 4.3 2 6 1.1.9-.5 1.7-2.5 2.1-3.4 1.2-2.3 1-2.5.7-5l-.1-.2c-.7-3-1.7-6.4-4.5-7.8-3.1-1.6-6.8.1-9.9 1.7zm3.6 24c-2.4-5.2-8.3-14.1-11.9-13.1-1.9.9-1.7 11.5-2.7 16.7-.3.9-.3 2 .2 2.9.7 1.1 2.3 1.1 3.6.9 3.5-.5 6.8-1.6 9.9-3.3.6-.3 1-.7 1.4-1.2.2-1 0-2.1-.5-2.9zm-17.5-38.3l4.1 11.8c.1.4.3.7.6 1 .3.2.7.3 1.1.2 4.6-.2 8.5-3.7 10.7-7.8.2-.3.3-.7.3-1-.2-.5-.5-.9-1-1.2-2.6-1.8-5.5-3.3-8.4-4.6-1.6-.9-3.5-1.3-5.3-1.1-1.8.3-2.3.8-2.1 2.7zm-.6 13.5c-.1-1.5-.8-3-1.8-4.1-1.2-1.7-2.6-3.2-4-4.7-.8-1.1-2-1.9-3.3-2.3-1.3-.3-2.9.4-3.2 1.8l.1.1c-2.3 3.3-3.9 7.1-4.7 11.1-.2 1-.2 2.3.7 2.8.6.3 1.2.3 1.8.1 4.3-.8 8.5-1.7 12.6-2.9.5-.1.9-.3 1.3-.7.4-.3.5-.7.5-1.2zm38 7.9c1.1 8-4.9 15.4-10.6 21.2-3.7 3.8-7.7 7.5-12.6 9.6-9.7 4.2-21.4 1.1-29.6-5.6-1.9-1.5-3.7-3.3-5.2-5.2-4.7-5.9-7-13.2-6.5-20.7-.8-6.1 1.3-13.3 5-18.3 3.8-4.9 8.9-8.7 14.8-10.8 3.4-1.3 7-2 10.6-2 3.9.2 7.8 1 11.4 2.5 6.4 2.4 12.1 6.3 16.5 11.5 4.2 5 6.5 11.3 6.2 17.8zm-38.5 5.2c.2-1.2 0-4.4-.4-4.7-1.4-1.6-5.6.8-8.4 1.2-1.6.1-3.2.5-4.7 1.2s-2.6 2.1-2.8 3.8c0 1 .2 2 .7 2.9 1.6 3.7 3.5 7.3 5.9 10.6 3.1-3 5.3-6.8 7.6-10.4.9-1.5 1.6-3 2.1-4.6z" class="P"/><path d="M508.9 437c.4.3.5 3.5.4 4.7-.5 1.6-1.2 3.1-2.1 4.5-2.2 3.7-4.5 7.4-7.6 10.4-2.4-3.3-4.3-6.8-5.9-10.6-.4-.9-.7-1.9-.7-2.9.2-1.7 1.3-3.1 2.8-3.8s3.1-1.1 4.7-1.2c2.8-.3 7-2.7 8.4-1.1zM497.6 419.4l-.1-.1c.2-1.3 1.8-2 3.2-1.8 1.3.4 2.4 1.2 3.3 2.3 1.4 1.5 2.8 3.1 4 4.7 1 1.1 1.7 2.6 1.8 4.1 0 .4-.1.9-.4 1.2-.4.3-.8.6-1.3.7-4.2 1.2-8.4 2.1-12.6 2.9-.6.2-1.2.1-1.8-.1-.9-.5-.9-1.8-.7-2.8.7-4 2.3-7.8 4.6-11.1z" class="L"/><path d="M460.2 313.3c-.6 0-.9-32-2.6-48.7l1.6-.9c10.5 1.4 21.2 1.6 31.8.8h5.1c1.3 16.1 2.1 33.7 2 49.8-6.9-.5-33.8 1-38-.9l.1-.1z" class="R"/><path d="M472 348.7c1.1.4 1.3.9 1.4 3 .1 1.3-.3 2.6-1.1 3.6-1.3 1.6-3.4 2.5-5.5 2.3-2.2-.2-4.3-.9-6.5-1-1.7-.1-3.3-.6-4.9-1.3-2.1-1-1.5-5.4.5-6.6s4.8 1 6 3c1.5-1.3 3.2-2.4 5-3.2 1.6-.6 3.5-.6 5.1.2z" class="N"/><path d="M149.9 229.3c3.6-1.3 6.5.1 10.3.8-1.3 2.4.3 5.5 2.7 6.8s5.2 1.3 7.9 1.3h16.6l48.2-.2 45.3-.1 18.7-.1 69.1-.2c8.7 0 17.4 0 26.1.6 4.5.3 9.1.8 13.7 1.2 9.4.8 18.8 1.2 27.8-1.3l.5-.5.1-6.9c.7 0 1.3-.1 2-.1h1.7l16.4-.2c.5 0 1 0 1.5-.1 1.4 0 2.8.1 4.2.2v.1l85.2 7.9c6.7.7 13.6 1.3 19.9 3.8 7.7 3 14.2 8.4 19.7 14.5l-.3.3-5.4.4c-5.1.4-10.2.7-15.3.9l-6.6.3c-18.6.7-37.3.1-55.8-1.6-45.1.5-90.6 0-136.2-.8l-57.9-1.1c-75.2-1.5-150.5-2.9-224.8-.6l-21.4.8c7.1-7.8 15.7-14 25.7-17.3 6.3-2.1 13-2.9 19.6-3.7l40.8-5.1z" class="P"/><path d="M455.9 348.7c-2 1.2-2.7 5.5-.5 6.6 1.5.7 3.2 1.2 4.9 1.3 2.2.1 4.3.8 6.5 1 2.1.2 4.2-.6 5.5-2.3a5.16 5.16 0 0 0 1.1-3.6c-.1-2.1-.3-2.6-1.4-3-1.6-.7-3.4-.8-5-.2-1.8.8-3.5 1.9-5 3.2-1.3-2-4.1-4.2-6.1-3zm-4.4 48.6c-.2-23.2-1.4-46.4-2.8-69.3 30.1.6 65.1 2.9 95.2 3.5 18.9.4 43.7 3.9 60.3 13.2l5.9 29.7c1.6 8 3.2 16.1 3.3 24.3.1 6.1-.8 14.1-1.6 20.2-.2.1-.4.2-.5.4-1-.4-2.2-.1-2.9.8-.7 1.2-1 2.7-.8 4.1.1 2.1.4 4.7 2.4 5.5.3.1.7.2 1 .2-.7 2.4-1.1 4.9-1.1 7.5v.9l-16.8-.5c-6.1-.2-12.4-.3-18 2l-.7-.1c-8.5-1.5-15.7-8.8-19.8-16.7-1.8-5.9-4.7-11.4-8.4-16.3l-.4-.6c-2.2-3.2-5.3-5.6-8.9-7.1-1.5-.6-3.4-1.4-5.6-2.2-2.8-1.4-5.7-2.4-8.8-3-2.3-.7-4.7-1-7.2-1h-.3c-5-.2-10 .3-14.8 1.6-16.1 2-31.3 4.3-48.4 3.1l-.3-.2z" class="K"/><path d="M458.4 230.3c-6.5-.2-13-.1-19.6.3h-.1c-.9 0-1.8-.3-2.6-.8-1.2-.9-1.9-2.6-.7-3.4 1.2-.5 2.4-.8 3.7-1.1 4.2-1.3 8.9.9 13.2 1.8 2.5.5 5.1 1.1 7.1 2.8-.2.1-.6.3-1 .4z" class="M"/><path d="M451.6 448c-.5 1.3-1 2.5-1.7 3.7l-.5-.3c1.6-17.9 2.2-36 2.1-54.2h.2c17.1 1.2 32.2-1.1 48.4-3.1-5 1.3-9.7 3.6-13.9 6.6a39.27 39.27 0 0 0-12.9 17.2h-.1c-9.9 7.6-16.9 18.5-21.6 30.1z" class="K"/><path d="M82.3 326l-36.6-.2c-2.4 0-5.1-.1-6.8-1.9-1.3-1.4-1.6-3.4-.9-5.1.6-2 2.1-3.6 4-4.5 3.7-1.5 7.7-1.8 11.6-.8l31.2.9 238.5 2.7 20.6.4c25.3 1.2 54.2.1 79.2-.5l20.2-.4 4.8.6v.5l.6 9.9-1.3.1L82.3 326z" class="P"/><path d="M448.6 225.2c-.3-2.4 0-3.8-.4-6.3-.6 0-2-.5-2.4 0l-1.2-93.3 1.1 1.4c.3.3.5.6.8 1l-.1.1 2.2 97.1z" class="M"/><path d="M442.9 116.6c2.6 5 5.5 9.8 8.9 14.3-.5 1.4-2.7.5-3.4-.7s-1.6-2.3-2.6-3.2h-.1l-1.1-1.4-3.9-4.7-.2-.5c1.2-.4 2.1-1.5 2.2-2.8 0-.3 0-.7-.1-1h.3z" class="L"/><path d="M442.6 116.6c.1.3.1.7.1 1-.1 1.3-1 2.4-2.2 2.8-.4.2-.9.2-1.4.2-1.7-.4-2.8-2.1-2.4-3.8v-.2c.6-1.6 2.7-2.8 4.2-1.9.9.4 1.5 1.1 1.7 1.9z" class="K"/><path d="M435 302.8c.1 4 .9 8.4-2.5 10.7-1.2.8-5.6 1.2-9.5 1.3-2.7.1-5.1.1-6.1.1-10.5 0-13.7.5-24.3.5-9.6 0-19.3.1-28.7-2-1.2-.1-2.3-.7-3.1-1.5-.5-.9-.8-1.9-.7-2.9a232.18 232.18 0 0 1 2.4-44.1c.1-1.2.5-2.3 1.3-3.2 1-.9 2.4-.9 3.8-.8l55.5 1.3c4.1-.1 7.8 1.7 9.5 4.5s1.9 4.6 2 7.9l.4 28.2z" class="R"/><path d="M404.2 403.2c.2 1.2-.6 2.4-1.8 2.7h-.5c-1.1-.2-1.9-1.3-1.7-2.4 0-.3.1-.5.3-.7.3-.7 1-1.1 1.7-1.1 1.3-.7 1.7.1 2 1.5z" class="N"/><path d="M403.6 176.5l3.1-.2c2.4-.2 4.9.3 7 1.6 2.3 1.8 3.7 4.4 3.8 7.3.2 2.8-.1 5.7-.8 8.5l-8.4 44.7-.1 1-13.7-1.2c-8.7-.6-17.4-.6-26.1-.6h-11.7v-.2l6.2-24c.1-.3.1-.5.2-.8.4-1.5.8-2.9 1.1-4.3 2.1-7.5 3.4-15.1 4.1-22.8.2-3.5-.1-7.6-3.1-9.5-1.2-.7-2.6-1.1-4.1-1.2l42.5 1.7zm-4.7 31.9c3.5-5.9 3.7-13.2.4-19.2-1.8-3.2-4.8-6-8.4-6.6-4.6-.7-8.4 1.2-12.2 4-4.9 4.2-5.6 11.4-6 17.8-.2 3.1-.3 6.5 1.6 9.1 1.7 2.3 4.6 3.4 7.5 3.6 6.9.4 13.4-2.9 17.1-8.7zm1.5 17.2c.9-1.9-.3-4-2.3-3.6-1.2 0-3.2 1.5-2.6 3.4s4 2.1 4.9.2zm-29.5.3c.8-1.4.6-3-1.8-3.3-.9.1-1.6.5-2.1 1.2-.5 1.1-.6 2.4-.3 3.6 1.5.4 3.2-.1 4.2-1.5z" class="Q"/><path d="M398 221.9c2.1-.3 3.2 1.7 2.3 3.6s-4.2 1.8-4.9-.2 1.4-3.4 2.6-3.4z" class="N"/><path d="M498.1 314.3a635.73 635.73 0 0 0-2-49.8H491c-10.6.8-21.2.6-31.8-.8l-1.6.9c1.7 16.7 2 48.7 2.6 48.7l-.1.1c4.2 2 31.1.4 38 .9zm69.9 4.1c-43.8-1-109.2-.2-119.2-.8l-.7.1v-.5l-4.8-.6c-6.3 0-13.1.2-20.2.4v-2.1c3.9-.2 8.3-.5 9.5-1.3 3.3-2.3 2.5-6.7 2.5-10.7l-.4-28.2c0-3.3-.3-5.1-2-7.9s-5.4-4.6-9.5-4.5l-55.5-1.3.1-4.6 136.2.8c18.6 1.7 37.2 2.2 55.8 1.6l.1 4.9c-5 .3-11.3 1-15.6 1-.7 0 .1.2-.3.7-.3.5-.5 1.1-.4 1.7.3 4.8 2.3 9.2 4.4 13.5l14.3 29.7c.6 1.7 1.7 3.1 3.1 4.2.8.6 1.7.9 2.7.9l-.1 3zm-8.7-4.7l.3-.1c-5.4-12-11.1-23.9-17-35.7-2-4-4.2-8.1-7.8-10.7s-8.1-3.2-12.4-3.5c-7.6-.5-15.3-.3-22.8.8 1.3 15.7 3.9 33.6 4.2 49.4 5.5.5 16.4.1 21.6.2 11.8.3 14.5.3 22.2-1 0 .1 11.6.7 11.7.6z" class="P"/><path d="M394.8 374.3c.8 2.5 1.6 5.5.1 7.6-1 1.2-2.4 2.1-4 2.3-4.5.9-9-.7-13.5-1.6-1.5-.4-3.1-.5-4.6-.2-3.4 1-5.3 4.6-4.2 7.9.1.2.1.4.2.6h.3c1.8 3.4 5.4 8.8 5.5 12.7s-1.4 8-4.6 10.1c-1.5 1-3.9 2.8-5.6 2.2-2.6-.9-3.3-5.1-4.2-7.6-5-14.9-9.6-29.9-13.7-45.1-1.4-5.2-2.7-10.4-2.3-15.8 10.7-6.7 22.9-10.9 35.6-12 2.5-.3 5.1-.2 7.6.5 5.7 1.9 8.7 8 6.8 13.7-.9 2.6-2.7 4.8-5.2 6.1-2 1-4.2 1.6-6.4 1.8-5.8.8-11.7 1-17.5.6-1.1 3.8-.8 7.8.8 11.5.2.5.5 1 1 1.4.6.3 1.3.3 2 .2l16.2-2.3c2.6-.4 6.6-1.6 8.5.2 1.1 1.1.7 3.7 1.2 5.2z" class="N"/><path d="M389.7 196.4c.9.6 1.4 1.6 1.3 2.7 0 1.3-.6 2.5-1.7 3.2-1.2.7-2.6.3-3.4-.8-.7-1.1-.4-3.3.6-3.8.2-.9 2.2-1.8 3.2-1.3z" class="M"/><path d="M392 212.4c-3.2 2.1-7.2 1.5-11 1.3-1.1-.1-5.8-4.5-6-7.4-.3-4.7-.3-9.3 2-13.5s6.6-7 11.1-7h.6c4.6 0 8.4 4.4 9.9 8.8s.2 9.1-2 13.1c-1.2 2-2.8 3.6-4.6 4.7zm-1-13.3c.1-1.1-.4-2.1-1.3-2.7-.9-.5-2.9.4-3.2 1.4-1 .5-1.2 2.7-.6 3.8.8 1.1 2.2 1.4 3.4.8 1.1-.7 1.7-1.9 1.7-3.3z" class="N"/><g class="K"><path d="M378.1 82.2l-2.7-.3-17.3-2.2c4.6-2.4 11.8-4.6 16.8-3.6l.4-.1c.7-.1 1.4-.1 2-.2 6.3-.2 12.4 2.5 18.2 5.2-4 2.8-9.4 2.3-14.3 1.7l-3.1-.5z"/><path d="M375.4 75.8c-.2-4.5.3-8.9 1.4-13.2l.6 13.2c-.7 0-1.4.1-2 .2v-.2z"/></g><path d="M377 192.9c-2.4 4.1-2.3 8.8-2 13.5.2 2.9 4.9 7.3 6 7.4 3.9.3 7.8.8 11-1.3 1.9-1.2 3.4-2.8 4.6-4.7 2.2-4 3.5-8.8 2-13.1s-5.3-8.8-9.9-8.8h-.6c-4.6 0-8.8 3-11.1 7zm4.8 24.1c-2.8-.2-5.8-1.3-7.5-3.6-1.8-2.5-1.8-5.9-1.6-9.1.3-6.4 1-13.6 6-17.8 3.8-2.8 7.5-4.7 12.2-4 3.7.6 6.6 3.4 8.4 6.6 3.3 6 3.1 13.3-.4 19.2-3.6 5.8-10.2 9.2-17.1 8.7z" class="M"/><path d="M370.9 225.9c-.9 1.4-2.6 1.9-4.2 1.5-.4-1.2-.3-2.5.3-3.6.5-.7 1.3-1.2 2.1-1.2 2.4.3 2.6 1.9 1.8 3.3z" class="N"/><path d="M362.2 137.4c.6 11.1-4.4 22.6-13.5 29.1s-22.1 7.3-31.5 1.3c-8.2-5.2-12.9-14.8-13.4-24.5s2.8-19.3 8.1-27.4c1.3-2.1 1.1-2.5 3.3-3.9 14.3-8.9 33.2-4.6 42.2 9.8.8 1.3 1.5 2.6 2.1 3.9 1.6 3.7 2.5 7.7 2.7 11.7z" class="K"/><path d="M378.5 134.6c8.6 9.8 16.4 20.1 23.6 30.9.7 1 1.4 2.1 1.9 3.2 1.5 3.6 1.4 3.9 2.8 7.6-1.1 0-2.1.1-3.1.2-.8-2.9-1.5-3.2-2.4-5.6-.9-2.2-1.5-4.5-2.9-6.4-6.8-9.2-12.3-16.1-19.7-24.9-.3 7.4-.3 17.8-.1 25.2-1.2-.9-3.2 0-4.2-1.2-.4-.7-.6-1.5-.5-2.3.5-7.3 1.4-14.6 2.7-21.8-1.8 3-3.7 7.4-5.4 10.5l-.1.2-5.6 11.1.1.1c-2.6 5.5-4 7.2-5.3 13.2-.7-.1-1.4-.2-2.1-.2.5-4.1 1.5-6.4 3.3-10.1 0-.1.1-.2.1-.2 3.2-7.6 10.8-21.4 14.3-28.4 0-6.1.7-24.5.6-27.8l-.3-6.3c-.4-6.5-1-13.8-.8-19.6l2.7.3c-.4 15.9.9 36.4.4 52.3z" class="M"/><path d="M361.4 164.3c0-.1.1-.2.1-.2-.1.1-.1.1-.1.2zm-3.3 10.3l2.1.1h1.2c1.4.1 2.8.5 4.1 1.2 2.9 1.9 3.3 6 3.1 9.5-.7 7.7-2 15.3-4.1 22.8l-.4-.1h-7.4l3.5-18.5c.6-2.6.9-5.3.6-7.9-.4-2.6-1.6-6-3.9-7.1h1.2z" class="Q"/><path d="M369.4 113.2c-3.2 1.3-6.7 2.1-10.2 2.4l-.3.2c-.8-1-1.7-2-2.7-2.9l.3-.3c1.9.4 3.8.1 5.5-.6v-.1c2.2-.5 4.4-1 6.6-1.3l1.3-.2c.7.1 1.2.8 1 1.5-.2.6-.8 1.1-1.5 1.3z" class="K"/><path d="M351 174.4l5.8.2c2.3 1.2 3.6 4.5 3.9 7.1.2 2.7 0 5.3-.6 7.9l-3.5 18.5h-7.1v-.3c1.4-5.4 2.8-12.1 4.2-17.5.9-2.6 1.2-5.4 1.1-8.2-.2-2.6-1.5-6.4-3.8-7.7z" class="M"/><path d="M353.2 71.9c1.3.2 2.3 1.1 2.6 2.4 0 .1.1.2.1.4.2 1.1.1 2.2-.1 3.3-.1.6-.3 1.1-.5 1.6-.2.4-.6.7-1.1.8h-.3c-1-2.6-1.2-5.4-.6-8.2l-.1-.3z" class="K"/><path d="M355.7 95.8v-1.1h.9c3.6-1.8 7.8-2.2 11.6-1.1.4.1.8.3 1.1.6.3.4.5 1 .5 1.5.2 1.4.3 2.8.5 4.2v1l2.4.1c.1.2.2.5.2.7 0 1-.7 1.8-1.6 2h-.5v.2c.4 1.3 1.2 4.7 1.6 6l-2.2.3c-.4-.2-.9-.1-1.3.2-2.2.4-4.4.8-6.6 1.3v.1c-1.7.8-3.7 1-5.5.6l-.3.3c-.3-.3-.6-.6-.9-.8-3-2.9-6.6-5.1-10.6-6.4l.2-.5-.9-4.3-.1-.5 6.5-1.5c1-.2 5.2-1.2 5.6-2.2-.1-.3-.3-.5-.6-.7z" class="L"/><path d="M346.7 92.2c-.9-1.1-2.2-4.4-1.9-5.8s2.5-2.2 3.3-1c.5.5.9 1.2 1 2 .3 1 .4 2.1.2 3.1s-1.2 1.8-2.3 1.7h-.3z" class="K"/><path d="M344.8 410.8c-1.5-.5-1.2-2.7-.3-2.8 1-.4 2.1.1 2.6 1.1v.1c.3.7-.5 2.9-2.3 1.6z" class="N"/><path d="M347 179.9c-.4-1.6-1.5-4.2-2.9-4.9l-.1-.7c1.5-.2 2.9-.6 4.3-1l.1.2 9.7 1v.2h-1.2l-5.8-.2c2.3 1.3 3.6 5.2 3.9 7.7.1 2.8-.3 5.5-1.1 8.2-1.4 5.4-2.8 12.1-4.2 17.5v.2c-2.3 0-4.6 0-7-.1v-.2c2.1-7.5 3.6-15.1 4.5-22.8.1-1.6.1-3.4-.2-5.1z" class="Q"/><path d="M344.3 267.1c1.4 11.9 1.9 23.8 1.3 35.7-.2 3.6-.7 7.7-3.8 9.6-1.7.9-3.7 1.3-5.6 1.2-4.3.2-8.6.2-12.9.2-15.7 0-31.4-1-46.9-3-.8 0-1.5-.3-2.2-.7-1.2-.9-1.3-2.5-1.3-4l-.1-35.3c0-3.2.2-6.8 2.5-8.9 1.8-1.5 4.2-1.8 6.6-2 12.2-1 19.4-1.8 27.9-1.7 4.9.1 10.3.5 17.4 1.3l12.2 2.2a4.87 4.87 0 0 1 4.9 4.7c.1.3.1.5 0 .7z" class="R"/><path d="M341.3 68.4l3.5.1c1.6 2.1 1.7 4.3 1.2 6.9 0 1-.6 1.8-1.4 2.3-1.5.6-2.9-1.2-3-2.8s.2-4.7-.3-6.2v-.3z" class="K"/><path d="M344.1 175c1.5.8 2.6 3.4 2.9 4.9.3 1.7.3 3.5 0 5.2-.9 7.7-2.4 15.3-4.5 22.8v.2c-1.9 0-3.8-.1-5.7-.2 2.4-7.1 1.8-13.1 2.8-20.4.9-6 .8-8.7-2.3-12v-.5c.8 0 1.5-.1 2.3-.2 1.4-.1 2.8-.3 4.2-.5l.3.7z" class="M"/><path d="M392.7 315.5c10.5 0 13.7-.5 24.3-.5 1 0 3.4 0 6.1-.1v2.1c-24.9.7-53.8 1.8-79.2.5-2.3-.1-9.7-.2-20.6-.4v-3.4c4.3 0 8.6-.1 12.9-.2 1.9.1 3.9-.3 5.6-1.2 3-1.9 3.6-6 3.8-9.6.5-11.9.1-23.9-1.3-35.7.3-2.6-1.7-5-4.3-5.2h-.5l-12.2-2.2c-7.1-.8-12.5-1.2-17.4-1.3v-3.1l57.9 1.1-.1 4.6c-1.3 0-2.8 0-3.8.8-.8.9-1.2 2-1.3 3.2a232.63 232.63 0 0 0-2.4 44.1c-.1 1 .2 2 .7 2.9.8.9 1.9 1.4 3.1 1.5 9.4 2.2 19.1 2.1 28.7 2.1z" class="P"/><path d="M333.6 78.5c0-1.5 1-2.8 2.4-3.3l.7 5.5c.2.8.1 1.7-.2 2.5-.3.7-1.2 1-1.9.7-.1 0-.1-.1-.2-.1-.5-2.2-1.2-3.2-.8-5.3z" class="K"/><path d="M328.7 175.2l8.8-.1v.4c3.1 3.4 3.2 6.1 2.3 12-1.1 7.3-.4 13.3-2.8 20.4l-7.4-.4c-.3-8.5 1.9-15.3 2.2-23.8 0-3.6-.1-6.8-3.1-8.5z" class="Q"/><path d="M328.5 80.2c-.6-2.7-.7-5.4-.5-8.1l-.1-.2 2-.9.2.4c1.5 2.5 1.4 5 .4 7.7-.4.8-1.4 1.7-2 1.1zm-1.7 9.7c-.1-1.8 1.7-4 3.3-3.1v.2c.7.2 1.4.8 1.3 1.4s.1 1.4 0 2.4c-.1 1.3-1 2.7-2 4.5 0 .4-2.7-.1-3-.4-.4-1.7.4-3.2.4-5z" class="K"/><path d="M318.4 357.3c11.4 13.3 16.7 32.7 10.1 49-.9 2.5-2.3 4.8-4.1 6.8-6.5 7-18.7 6.1-26.1 0s-10.7-16-11.9-25.5c-1.6-13.5.9-28.3 10.2-38.3l-.2-.2c3.1-2.8 8-1.1 12 .4s7.2 4.5 10 7.8zm-3.3 32c1.9-4 3.6-8.5 2.8-12.9s-3.5-10.8-8-10.3c-2.9.3-3.7.2-5.8 2.2-4 7.3-4.1 11.9-1.1 19.7.6 1.8 1.7 3.4 3.2 4.7 1.5 1.2 3.6 1.5 5.4.8 1.8-.8 2.7-2.5 3.5-4.2z" class="N"/><path d="M355.7 95.8c.3.2.5.4.5.6-.4 1-4.5 2-5.6 2.2l-6.5 1.5c-6.7 1.4-13.8 2.5-19.5 1.1l-.1-.2a11.18 11.18 0 0 0 2.9-1.9c6.7-3.7 14.2-5.6 21.8-5.4 2.3.4 4.4 1.1 6.5 2.1z" class="K"/><path d="M347 92.2c1.1.1 2-.7 2.3-1.7.2-1 .1-2.1-.2-3.1-.1-.8-.5-1.5-1-2-.8-1.2-3-.4-3.3 1s.9 4.7 1.9 5.8h.3zM326.3 95c.3.3 3.1.8 3 .4 1-1.8 1.9-3.2 2-4.5.1-1-.2-1.6 0-2.4s-.6-1.3-1.3-1.4v-.2c-1.6-1-3.3 1.3-3.3 3.1s-.7 3.2-.4 5zm-3.1-17.6c.6-1.7 2.7-3.2 3.3-4.9h.1l1.2-.6.2.1c-.2 2.7 0 5.5.5 8.1.6.6 1.6-.3 1.9-1.1 1-2.7 1.2-5.2-.4-7.7l-.2-.4c3.6-1.5 7.5-2.4 11.4-2.5v.3c.5 1.5.2 4.6.3 6.2s1.5 3.4 3 2.8c.8-.5 1.4-1.3 1.4-2.3.5-2.6.4-4.8-1.2-6.9 2.1.2 4.2.6 6.3 1.2.1 0 2 2.1 2.1 2.2l-.1.2c-.6 2.7-.3 5.6.7 8.1h1.4c.6 4.8.8 9.6.6 14.3v1.1c-2-1-4.2-1.6-6.4-2-7.6-.2-15.2 1.6-21.8 5.4-.9.8-1.9 1.4-2.9 1.9h-.2c-.1-.1-.3-.1-.4-.2 0-.1-.1-.2-.1-.3-.5-7-.9-15.5-.9-23.2l.2.2zm10.4 1.1c-.4 2.1.4 3.1.8 5.2.7.4 1.6.3 2-.4 0-.1.1-.1.1-.2.3-.8.4-1.7.2-2.5-.2-1.8-.4-3.6-.7-5.5-1.4.6-2.4 1.9-2.4 3.4z" class="L"/><path d="M336.5 67c4.2-1.2 8.6-2.4 12.7-1.2s7.4 4.7 6.9 8.8l-.3.1c0-.1 0-.2-.1-.4-.3-1.3-1.3-2.2-2.6-2.4-.1 0-2-2.1-2.1-2.2-2-.6-4.1-1-6.3-1.2-5.1-.4-10.3.5-15 2.5-.7.3-1.4.6-2 .9l-1.2.6h-.1c-.6 1.7-2.7 3.2-3.3 4.9h-.3v-1.3c0-1 0-2 .1-3h.1c.8-1.9 2.8-3.1 4.7-3.7l8.8-2.4z" class="K"/><path d="M319.6 173.5c3 .9 6 1.5 9.2 1.6v.1c3 1.7 3.1 5 3 8.4-.3 8.5-2.5 15.3-2.2 23.8-2-.1-3.9-.3-5.9-.5-1.4-.1-2.8-.3-4.2-.5.1-1.1 1.4-11.3 2.4-17.6.5-2.6.6-5.2.3-7.9-.4-2.6-1.6-6.2-3.9-7.5.4.1.8.2 1.2.2l.1-.1z" class="M"/><path d="M318.1 76.2c-1.9-1.2-2.4-3.7-1.2-5.5.4-.6.8-1 1.4-1.3 3.4 2 2.5 6.2-.2 6.8zm-.2 300.2c.7 4.4-.9 8.9-2.8 12.9-.8 1.7-1.7 3.4-3.4 4.2-1.8.7-3.9.4-5.4-.8s-2.6-2.9-3.2-4.7c-3-7.8-2.9-12.4 1.1-19.7 2.1-2 2.9-1.9 5.8-2.2 4.4-.5 7.2 5.9 7.9 10.3z" class="K"/><path d="M316.6 173.3v-.1l1.6.3c2.2 1.4 3.5 4.9 3.9 7.5a26.21 26.21 0 0 1-.3 7.9 494.21 494.21 0 0 0-2.4 17.6l-9-1c.5-11.5 2.3-26.8-.8-31.5v-.8l7 .1z" class="Q"/><path d="M310.1 68.9c2.1 3.1 1 8.7-1.8 9.1-4.6.4-5.2-9.9-1.2-10.9 2-.5 2.5 1.1 3 1.8zM306.3 94c-1.2-2.9-1.6-6-1.3-9.1 1.1-.7 4.3.6 4 1.9.3 2.5.3 5 0 7.5l-.1.6-2.6-.2V94z" class="K"/><path d="M315.3 112c-2.3 1.4-2 1.7-3.3 3.9-5.3 8.1-8.7 17.7-8.1 27.4s5.3 19.3 13.4 24.5c9.4 6 22.4 5.2 31.5-1.3s14.1-18 13.5-29.1c-.2-4-1.1-7.9-2.7-11.6-6.8-15.5-24.8-22.6-40.3-15.8-1.4.6-2.7 1.3-4 2zm-14.2 39.5a42.6 42.6 0 0 1-.6-24.5c.2-.6.4-1.3.6-2 .2-.5.4-1 .6-1.4 4.7-11.5 13.4-20.7 25.8-20.3 6.5 0 12.2.4 17.3 2.2 3.9 1.4 7.5 3.6 10.6 6.4.3.3.6.5.9.8.9.9 1.8 1.9 2.7 2.9 5.9 7.4 8.8 16.9 7.8 26.3-.7 6.2-3 12.2-5.6 17.9-1.7 3.8-3.6 7.6-6.7 10.2-1.8 1.4-3.9 2.5-6.2 3.2-1.4.4-2.9.8-4.3 1s-2.8.4-4.2.5c-.8.1-1.5.1-2.3.2-2.9.2-5.8.3-8.8.1-3.1-.1-6.2-.7-9.2-1.6-2.6-.8-5-2.1-7.1-3.8-3.4-2.8-6.1-6.3-8-10.3-.7-1.3-1.3-2.6-1.8-3.9l-1.5-3.9z" class="O"/><path d="M303.5 106.4l1.1-.1.1.4c1 0 3.2.2 4.2.3v3c-2.9.1-5.8-.4-8.4-1.5l-.1-.2c.9-.7 2-1.3 3.1-1.9zm-2.3 18.6l-.6 2h-.2c-3.6 1.4-5.1-1.5-4.5-3.4s4.7-1.6 5.3 1.4z" class="L"/><path d="M309.6 173.9c3.1 4.7 1.4 20 .8 31.5-.8-.1-1.6-.2-2.3-.2-3.2-.2-6.4-.4-9.6-.4v-.6c0-8.8.5-17.8.6-26.7 0-.9-1-4.5-1.9-4.7l12.4.3v.8z" class="M"/><path d="M302.6 155.5c-1.1 1.2-3.9 2.1-5.3 1.3s-2.2-2.4-1.9-4l5.8-1.4c.4 1.5.9 2.8 1.4 4.1zm-9.1-20.3c.8-.9 3.3-1 3 3.5-.2 3.6-3.3 3.5-3.8 2.7-.5-.9-.6-1.9-.4-2.9.1-1.2.5-2.4 1.2-3.3z" class="L"/><path d="M298.8 218.5c-2.7-.1-5 0-7.8 0-.6 0-1.1-2.5-.9-3.1.1-.4.7-.5 1.1-.5l6.1.2c1.6 0 3.2.2 4.8.7 0 .9-.2 1.9-.6 2.7-.8.1-1.8.1-2.7 0z" class="N"/><path d="M291.7 71.2c1 2.9 1.5 7.9 0 8.7-2.8.8-3.7-5.3-3.8-8.6.8-1.3 3.7-.4 3.8-.1zm-.7 16c.3.6.4 1.3.2 2-.3 2.1-.7 2.7-1 4.8v.5l-1.8.3c-.9-2.4-1.2-6.1.3-8.2.1-.8 1.9 0 2.3.6z" class="K"/><path d="M288.7 152.7c-1.7-2.4 1.8-3.2 2.6-2s-.2 3.7-2.6 2zM291.1 123.1c.8 1.2.8 2.8 0 3.9-.9-.5-3.1-1.3-4-1.7l-.6-.2c.3-.9.7-1.8 1.1-2.6l.4.2c.7-1 2.5-.5 3.1.4zM288 71.3c0 3.3 1 9.4 3.8 8.6 1.5-.8.9-5.8 0-8.7-.2-.3-3.1-1.2-3.8.1zm15.7-7c6.9.1 15.5 1.2 19.3 7 0 .6-.1 1.3-.1 1.9 0 1 0 2-.1 3l-3.3 22.4c-.1-.8-.5-1.6-1.2-2.1-.7-.4-1.4-.6-2.2-.7-2.4-.4-4.9-.7-7.3-.9l.1-.6c.3-2.5.3-5 0-7.5.4-1.3-2.8-2.5-4-1.9-.3 3.1.2 6.2 1.3 9.1v.6c-4.1-.3-8.2-.4-12.3-.4-1.2 0-2.5.1-3.8.2v-.5c.3-2.1.7-2.7 1-4.8.2-.7.1-1.4-.2-2-.4-.5-2.1-1.4-2.3-.7-1.5 2-1.2 5.8-.3 8.2-1.3.2-2.5.6-3.7 1.1V72.2l-.6-.6c.1-.1.1-.2.2-.3 4.2-5.5 12.6-7.1 19.5-7zm4.6 13.8c2.8-.4 3.9-6 1.8-9.1-.5-.8-1-2.3-3-1.8-3.9 1-3.3 11.2 1.2 10.9zm9.8-1.9c2.7-.5 3.6-4.8.2-6.9-1.9 1.1-2.6 3.5-1.6 5.4.4.6.9 1.1 1.4 1.5z" class="L"/><g class="K"><path d="M288.7 152.7c2.5 1.8 3.3-.7 2.6-2s-4.3-.4-2.6 2zm7.9-14c.2-4.5-2.2-4.4-3-3.5a6.62 6.62 0 0 0-1.2 3.3c-.2 1-.1 2 .4 2.9.5.7 3.6.9 3.8-2.7zm4-11.7c-2.2 8-2 16.6.6 24.5l-5.8 1.4c-.3 1.6.5 3.2 1.9 4 1.4.7 4.2-.2 5.3-1.3.5 1.3 1.2 2.7 1.8 3.9 1.9 4 4.6 7.5 8 10.3 2.2 1.6 4.6 2.9 7.1 3.8l-.1.2c-.4-.1-.8-.2-1.2-.2s-1-.2-1.6-.3c-4.1-.7-8.1-1.8-12-3.1-2.4-.8-4.7-1.9-6.9-3.2-3.6-2-6.6-4.9-8.8-8.4a32.2 32.2 0 0 1-3.8-11.7c-1.1-7.2-1.1-15 1.4-21.7l.6.2c1 .5 3.1 1.2 4 1.7.8-1.2.8-2.8 0-3.9-.7-.9-2.5-1.4-3.1-.5l-.4-.2c.9-1.9 2.1-3.7 3.4-5.3 2.7-3.3 5.8-6.3 9.3-8.7l.1.2c2.7 1 5.6 1.6 8.4 1.5v-3c-1 0-3.2-.2-4.2-.3l-.1-.4c2-.2 4-.6 6-1.1 2.6-.7 5.2-1.7 7.6-3 2.3-1.1 3.9-1.8 5.7-1.3 0 .1.1.2.1.3.1 0 .2-.1.3-.1h.2l.1.2c5.6 1.3 12.8.3 19.5-1.1l.1.5.9 4.3-.2.5c-5.2-1.8-10.8-2.2-17.3-2.2-12.4-.4-21.1 8.8-25.8 20.3-.2.5-.4.9-.6 1.4-.7-3-4.8-3.3-5.3-1.5s.9 4.7 4.5 3.4l.3-.1z"/><path d="M316.2 102.4c.6-.5 1.2-1.2.9-1.8-.3-.4-.7-.6-1.2-.7-6.8-1.5-13.8-2.2-20.8-2.1-3.8 0-7.5-.9-10.1 1.9l-.2-.2V96c1.2-.5 2.4-.9 3.7-1.1l1.8-.3c1.3-.1 2.5-.2 3.8-.2 4.1-.1 8.2 0 12.3.4l2.6.2c2.4.2 4.9.5 7.3.9.8.1 1.5.3 2.2.7.7.5 1.1 1.3 1.2 2.1s0 1.6-.4 2.3c-.3.5-.6 1-1 1.4-2.4 1.3-5 2.3-7.6 3v-.4c1.9-.5 3.8-1.4 5.5-2.6z"/></g><path d="M282.7 135.4c1.6-11.5 7.6-22.7 16.4-29.7 1.7.2 3.4.3 5.1.3 2.1 0 4.2-.3 6.3-.9v.2c-2 .5-4 .9-6 1.1l-1.1.1c-1.1.6-2.2 1.2-3.2 1.9-3.5 2.4-6.6 5.4-9.3 8.7-1.4 1.6-2.5 3.4-3.4 5.3-.4.9-.8 1.7-1.1 2.6-2.5 6.8-2.5 14.5-1.4 21.7.5 4.1 1.8 8.1 3.8 11.7 2.2 3.5 5.2 6.4 8.8 8.4-.4-.1-.7-.3-1.1-.4-2.5-.7-4.9-2-6.8-3.7-2.4-2.2-4.1-4.9-5.1-8-1.8-5-2.6-10.2-2.3-15.5.1-1.2.3-2.5.4-3.8z" class="O"/><path d="M323 71.2c-3.8-5.7-12.4-6.8-19.3-7s-15.3 1.6-19.3 7.1c-1.1.4-2.1-1.1-1.7-2.3.6-1.2 1.5-2.1 2.6-2.8 6.3-4.3 13.5-5 20.8-4.3 1.9.2 3.8-.4 5.7-.2 5.3.7 9.7 4.3 11.4 9.3l-.2.2z" class="L"/><path d="M284.1 204.2v.6l-15.5-.1v-.7c-.3-6.1-.4-12.2-.1-18.3.2-4.8.9-10.3 4.8-13.1v-.3l10.6.3v.3c-.2 4.3.4 25.6.2 31.3z" class="M"/><path d="M284.1 204.2c.2-5.7-.4-27-.2-31.4v-.3l13.3.3c.8.2 1.9 3.8 1.9 4.7 0 8.8-.6 17.9-.6 26.7v.6h-14.4v-.6z" class="Q"/><path d="M280.2 99.8V97l2.1.3c.7-.6 1.5-1.1 2.4-1.5v3.5l.2.2c2.6-2.8 6.3-1.9 10.1-1.9 7-.1 14 .6 20.8 2.1.5 0 .9.3 1.2.7.3.6-.3 1.4-.9 1.8-1.7 1.2-3.6 2.2-5.7 2.7-2.1.6-4.2.8-6.3.9-1.7 0-3.4-.1-5.1-.3-2.5-.3-5-.8-7.4-1.3-3.5-.7-4.7-1.7-7-4.4h-4.4z" class="O"/><path d="M279.3 102.6c.9 0 1.8.6 1.7 1.5s-.9 1.6-1.9 1.5h-.3c-.8-.3-1.2-1.2-.9-2 .1-.1.1-.3.2-.4.4-.4.8-.6 1.2-.6z" class="L"/><path d="M278.8 412.2c.3.6-1.5 1.7-2.2 1.9-1.4.1-1.7-2.9-.4-3.3 1.7-.6 2.2.7 2.6 1.4z" class="M"/><path d="M241.6 399.2c2.3 4.5 4.1 9.2 5.1 14.2.6 2.7.9 5.8-.4 8.2-2.3 4.1-8.5 4.6-12.3 1.8s-3.3-3.6-5.6-7.2c-1.7-2.8-2.9-5.8-3.7-9-4-14.3-6.4-29.1-7.1-43.9 7.8-8.4 19.7-15 31-16.6 4-.6 8.4-.6 11.8 1.5s4.7 5 2.4 8.2c-1.5 2.1-3.6 5.2-6.1 5.9l-17 4.9h-.4c-1 4.5-.1 12.2 3.6 14.9 4.4-4.3 11.1-4.4 17.3-5 2.3-.2 5 .1 6.2 2.1.5.9.7 1.8.8 2.8l.9 5.8c.3 2.2.5 4.4-.8 6.2-2.1 2.8-6.2 2.4-9.6 2-5.5-.6-11.1.5-15.9 3.1l-.2.1z" class="N"/><path d="M257.9 96.1h7.9v.2c-.6 4.4-.3 8.9.9 13.3h-.2c-1.1-.3-2.2-.1-3.2.5-.5.4-.8 1-.8 1.6l-4.5.1-.5-15.7h.4z" class="O"/><g class="L"><path d="M266.6 109.5c-1.1-4.3-1.4-8.8-.9-13.3V96c.8 0 1.6 0 2.4.1v.1c1 4.1.7 9.7-1.5 13.3z"/><path d="M263.2 110c.9-.6 2.1-.8 3.2-.5h.2c1 .2 2 .4 3 .3.9.2 0 2.3 0 3.2l-5 .1c-.6.1-1.1-.1-1.6-.3-.4-.3-.6-.7-.6-1.2 0-.6.3-1.2.8-1.6z"/></g><path d="M262.4 171.9l10.8.3v.4c-3.9 2.8-4.6 8.3-4.8 13.1-.2 6.1-.2 12.2.1 18.3v.7h-10.2v-.3c-1.1-4.7-1.8-9.5-2-14.3-.3-3.4 0-6.8 1.1-10.1s1.5-6.7 4.8-7.6l.2-.5z" class="Q"/><path d="M279.3 102.6c-.4.1-.8.2-1.1.5-.5.7-.4 1.7.3 2.2a.76.76 0 0 0 .4.2 1.79 1.79 0 0 0 2.1-1.2v-.3c.1-.8-.7-1.4-1.7-1.4zm-19.5 32h-.7l-1.2-22.9 4.5-.1c0 .5.2.9.6 1.2.5.3 1.1.4 1.6.3l5-.1c.1-.9.9-3 0-3.2-1 0-2-.1-3-.3 2.1-3.6 2.5-9.2 1.5-13.3 4.1.1 8.4.5 12 .9v2.8l4.6.1c2.3 2.8 3.4 3.8 7 4.4 2.5.5 4.9 1 7.4 1.3-8.8 7.1-14.8 18.3-16.4 29.7l-.6-.1c-5.6-.9-13-.8-18.7-.7h-3.6z" class="O"/><path d="M263.4 134.6c5.8-.1 13.1-.1 18.7.7l.6.1c-.2 1.3-.3 2.6-.4 3.9h-.1c-7.5.5-15 .2-22.4-.8h-.5c-.1-1.3-.1-2.6-.2-3.8h.7c.9-.1 2.6-.1 3.6-.1z" class="L"/><path d="M259.5 159.8c3.1-2 6.4-3.6 9.9-4.6l.2-.2 2.9 2.2c-4.7 1.5-9.2 3.5-13.5 6h-.2c.1-.9.2-2.1.3-3.4h.4z" class="M"/><path d="M280.2 97.1c-3.7-.5-7.9-.8-12-.9-.8 0-1.6 0-2.4-.1h-8.3v-2.5c3.1-1.3 6.6-.6 9.9-.1 5.7.6 11.5.6 17.1-.1h.3v2.5c-.9.4-1.7.9-2.4 1.5l-2.2-.3z" class="L"/><path d="M256.4 39.5c.3 3.6.2 7.3-.2 11-.5.7-15.1-4.3-20.2-7.7-2.3-1.5-6.3-4-5.8-6.7s5.4-3.5 8.2-3.8c5.6-.6 11.2-.3 16.7.9v.1c10.3 2.7 15.7 4.6 23.2 10.9 1.1.8 1.9 1.9 2.4 3.2.7 2.3-1.1 4.7-3.3 5.7-1.5.7-3.2.7-7.1.5-4-.4-7.9-1.2-11.8-2.5h-.6c.2-3.3.6-6.6 1-9.9-.5-.6-1.1-1-1.7-1.3-.1-.3-.5-.4-.8-.4z" class="N"/><path d="M249.5 98.3c-.1-1.3.1-2.6.7-3.7 1-1.2 2.6-1.5 4-.9h.4c.1 13.6.6 27.2 1.4 40.9h-6.4l.3-8.1-.2-.8c-1.5.4-3.1.3-3.7-1s.3-2.7 1.6-3.3c.7-.3 1.4-.4 2.1-.4v-.5l-.2-22.2z" class="L"/><path d="M262.4 172.4c-3.3.9-3.7 4.3-4.8 7.6-1.1 3.2-1.4 6.7-1.1 10.1.2 4.8.9 9.6 2 14.3v.3h-8v-.2c-2.1-7.5-3.5-13.9-3-21.7.3-4 3.5-9.2 5.6-10.6v-.4l9.4.2-.1.4z" class="M"/><path d="M253.3 304.2c.1 2.3 0 4.8-1.6 6.5-1.4 1.4-3.5 1.6-5.5 1.8-17.5 1.2-35 1.2-52.4 0-3-.2-6.3-.6-8.1-3-1.3-1.7-1.5-4-1.6-6.1l-1.7-33.1c-.2-3.1 0-6.8 2.7-8.3a8.49 8.49 0 0 1 3.8-.9c20.9-1.4 41.8-1.4 62.6-.1 1.4 2 .6 5.4.7 7.9l1.1 35.3z" class="R"/><path d="M255.7 134.6h.3l.3 3.6h-.3c-1.3-.6-5.1 1-6.1 0-.4-.5-.5-1.1-.4-1.7 0-.6 0-1.3.1-1.9h6.1z" class="L"/><path d="M244.9 157.7l2-2.3.3.3c1.6 1.2 6.2 3.3 7.8 4.5h.4l-.1 3h-.3c-2.4-1.5-7.3-3.7-9.7-5.2l-.1-.1-.3-.2z" class="O"/><path d="M273.3 172.2l-10.8-.3-9.4-.2-7.8-.2-5.7-.1-2.9-.1 10.1-.2 6.7-.1 3.7-.1 32.6-.4c.4.2.6.4.7.3.3-.1.5-.2.7-.3 3.8 0 7.6.1 11.5.2.6 0 1.5-.6 2.1-.6 3.9 1.3 7.9 2.4 12 3.1v.1l-7.1-.2-12.4-.3-13.3-.3c-3.6-.2-7.2-.3-10.7-.3z" class="M"/><path d="M245.2 171.5l7.8.2v.4c-2.1 1.4-5.3 6.6-5.6 10.6-.6 7.8.8 14.2 3 21.7v.2h-8.1v-.2c-2.9-8.2-2.9-11.5-2.8-20.2 0-1.5.4-9.3 1.1-10.7.7-1.1 3.1-2 4.6-2z" class="Q"/><path d="M242.8 155.7c4.3-4.8 9.3-9.8 13.5-13.6h.2l-.3-3.9-.3-3.6c-.9-13.6-1.4-27.2-1.4-40.9l.3-23.5c-.3-7.7.7-13.8 1.4-19.8.4-3.6.5-7.3.2-11 .3 0 .6.1.9.2.7.3 1.3.7 1.7 1.3-.4 3.2-.7 6.5-1 9.9-1.2 14.4-1.4 28.9-.6 43.3V96l.5 15.7 1.2 22.9c0 1.3.1 2.5.2 3.8 0 .9.1 1.8.1 2.7 1 1 17.3 16.3 26.4 22.7a18.19 18.19 0 0 1 4.2 3.6c.9 1.2 1.8 2.4 1 3h-1.4c-2.5-1.6-10.8-8.3-17.3-13.4-1-.8-2-1.5-2.9-2.2-1.8-1.4-3.2-2.4-4.1-3-2.1-1.2-3.9-2.8-5.4-4.6h-.3c0 3.6-.3 8.7-.7 12.5l-.3 3.4c0 .7-.2 1.5-.3 2.2-.9.7-2.2.6-3-.3-.1-.6-.2-1.1-.1-1.7 0-.8 0-1.8.1-3 .2-4.8.7-12 1.1-15l-9.6 10.1c-.7.7-1.4 1.5-2 2.3-2.9 3.1-5.4 6.5-7.7 10.1-1.2 1.9-1.4 2.3-2.5 2.3-.5 0-1.2-.1-2.4-.2 0-1.7 4.7-7.7 10.6-14.2zm-3.3 15.6l5.7.1c-1.6 0-4 .9-4.5 2-.7 1.3-1.1 9.2-1.1 10.7-.1 8.7-.1 12 2.8 20.2v.2h-8.2l-1 .1-2-27.1c-.2-1.5-.1-3 .4-4.4.5-1.1 1.5-1.8 2.7-1.9h2.4l2.8.1z" class="M"/><path d="M237.2 167.8c2.2-3.6 4.8-7 7.7-10.1l.3.3.1.1-.1.2c3.2 3.9 6 8.2 8.3 12.7-2.2.1-4.4.1-6.7.1l-10.1.2h-2v-1.2c1.1 0 1.3-.4 2.5-2.3z" class="O"/><path d="M235.5 236.8l-2.1-28.5h.3l2.2.1c17.7 1 35.4-1.6 53 0 4.2.4 8.4 1.1 12.6 1.5 5.3.6 10.6.8 16 1.1l45.3 2.2.4.1-6.2 24v.2l-121.4.4-.1-1.1zm66.1-18.3c.4-.9.5-1.8.6-2.7-1.5-.5-3.2-.7-4.8-.7-2 0-4.1-.1-6.1-.2-.4 0-1 .1-1.1.5-.2.6.3 3.1.9 3.1 2.7 0 5-.1 7.7 0 .9.1 1.9.1 2.8 0zm-84.1-47.3l4.2-.1h6.2l6.2.1c-1.2.1-2.2.8-2.7 1.9-.5 1.4-.7 2.9-.4 4.4l2 27.1.3 3.6 2.1 28.5v1.2l-48.2.2v-.5l-7.6-60.6v-.5c2.5-.8 5.1-1.4 7.7-2l9.4-1.7c6.9-1 13.9-1.5 20.8-1.6zm-21.1 12.4c-3.4 3.3-4.7 8.8-4.7 13.5 0 5 1.9 9.8 5.2 13.5 2.6 3.1 6.1 5.1 10 5.9 4 .7 8-.6 10.8-3.6 1.3-1.7 2.3-3.6 2.9-5.6 1.2-3.8 1.9-7.7 2-11.6s-.5-8.1-3-11.1c-2-2.4-5.1-3.7-8.1-4.5-2.7-.9-5.6-1-8.5-.5-2.8.7-4.3 2-6.3 4.1l-.3-.1zm25.4 43.9c1.2-1.7.1-5.9-1.8-5.1-1.9.2-3.3 1.9-3.1 3.8a.9.9 0 0 0 .1.5c.7 1.9 3.7 2.5 4.8.8zm-21.8-2.7c.2-1.2-.1-2.4-.9-3.3-.8-.7-2-.8-2.9-.2-.7.3-.5.6-1 1.2-.3.6-.5 1.3-.4 2 0 1.4.1 3.1 1.3 3.7 1.9 1 3.7-1.4 3.9-3.4z" class="Q"/><path d="M235.8 208.4c-.7 0-1.5-.1-2.2-.1h-.3l-.3-3.6 1-.1h34.5l15.5.1h14.4l9.6.4 2.3.2 9 1 4.2.5 5.9.5 7.4.4 5.7.2 7 .1H364l.4.1-1.1 4.3c-.1.3-.1.5-.2.8l-.4-.1-45.3-2.2c-5.3-.3-10.7-.5-16-1.1-4.2-.4-8.4-1.1-12.6-1.5-17.6-1.6-35.3 1-53 .1z" class="M"/><path d="M221.8 171.1L211 153.3c.9-.4 1.7-.9 2.4-1.6.2-.3.4-.5.6-.9 5 7.4 9.8 14.3 14.1 20.2v.1h-6.3z" class="S"/><path d="M220 222.4c1.9-.7 3 3.5 1.8 5.1s-4.2 1-4.8-.8c-.5-1.9.7-3.7 2.5-4.2.2-.1.4-.1.5-.1z" class="N"/><path d="M221.8 171.1l-4.2.2-9.7-17.2c1.1 0 2.2-.2 3.2-.6l10.7 17.6zm-7.9-20.2c-.1.3-.3.6-.6.9-.7.7-1.5 1.2-2.4 1.6L200 135.6l.2-.2c.8-.6 1.7-.9 2.6-1.1l11.1 16.6z" class="S"/><path d="M323.3 317.2l-238.5-2.7c.9-20.7 1.8-38.3.3-58.9v-1c74.4-2.3 149.7-.9 224.8.6v3.1c-8.5-.1-15.6.6-27.8 1.7-2.3.2-4.8.5-6.6 2-2.4 2.1-2.5 5.7-2.5 8.9l.1 35.3c0 1.5.1 3.2 1.3 4 .7.4 1.4.6 2.2.7 15.6 2 31.2 3 46.9 3l-.2 3.3zm-129.5-4.8c17.5 1.2 35 1.2 52.4 0 2-.1 4.1-.4 5.5-1.8 1.6-1.6 1.7-4.2 1.6-6.5l-1.1-35.4c-.1-2.5.7-5.9-.7-7.9-20.9-1.3-41.8-1.3-62.6.1a8.49 8.49 0 0 0-3.8.9c-2.7 1.6-2.8 5.3-2.7 8.3l1.7 33.1c.1 2.1.3 4.4 1.6 6.1 1.8 2.5 5.1 2.9 8.1 3.1z" class="P"/><path d="M212.1 197.8c.1 1.9-1.4 3.6-3.3 3.7-.3 0-.7 0-1-.1-1.4-1.3-1.9-4.6-.7-6.1 1.7-.9 3.9-.1 4.7 1.6.2.3.3.6.3.9z" class="M"/><path d="M205 183.2c1.1-.5 2.4-.6 3.5-.3 4 1.8 3.8 1.2 7.1 4.2 3.2 2.9 4.8 7.3 4.2 11.6-.4 4.4-1.4 8.2-4.4 11.5-.8 1-1.7 1.8-2.8 2.4-2 .9-4.3 1-6.3.3-8.3-2.3-13.3-10.9-11-19.2 1.4-4.9 4.9-8.8 9.7-10.5zm2.9 18.2c1.8.5 3.6-.5 4.2-2.3.5-1.8-.5-3.6-2.3-4.2-.9-.3-1.9-.1-2.7.3-1.1 1.6-.6 4.9.8 6.2z" class="N"/><g class="S"><path d="M211 153.3c-1 .4-2.1.6-3.2.6l-9.5-16.5c.4-.7 1-1.4 1.7-1.9l11 17.8zm.7-14c1.7 2.8 2.6 6 2.5 9.3 0 .8-.1 1.6-.4 2.3l-11-16.6c1.1-.1 2.2 0 3.3.3a10.01 10.01 0 0 1 5.6 4.7z"/><path d="M207.8 153.9c-.7 0-1.4-.2-2-.6-2.5-1.8-4.7-3.9-6.5-6.5-1.3-2.1-3.1-6.2-1-9.5l9.5 16.6z"/></g><path d="M195.3 222.5c.4-.6.2-.9 1-1.2.9-.6 2.1-.6 2.9.2.8.9 1.2 2.1.9 3.3-.2 2-2 4.4-3.9 3.5-1.2-.6-1.4-2.3-1.3-3.7-.1-.8.1-1.5.4-2.1z" class="N"/><path d="M211.3 180.1c3 .8 6.1 2.1 8.1 4.5 2.6 3 3.1 7.2 3 11.1s-.8 7.9-2 11.6c-.6 2-1.6 3.9-2.9 5.6-2.7 2.9-6.8 4.3-10.8 3.6-3.9-.7-7.4-2.8-10-5.9-3.3-3.7-5.1-8.5-5.1-13.5 0-4.8 1.3-10.2 4.7-13.5l.1.1c2.1-2.1 3.6-3.5 6.3-4.1 3-.5 5.9-.4 8.6.5zm-6.3 3.1c-8.1 3-12.2 12-9.2 20.1 1.8 4.7 5.7 8.3 10.6 9.6 2.1.7 4.3.6 6.3-.3 1.1-.6 2-1.4 2.8-2.4 2.9-3.3 3.9-7.1 4.4-11.5.6-4.3-1-8.7-4.2-11.6-3.3-3-3.1-2.4-7.1-4.2-1.3-.4-2.5-.3-3.6.3z" class="M"/><g class="S"><path d="M186.1 154.4c-.1-.7-.3-1.3-.7-1.9l3.8-.3c.9 1.3 1.9 2.6 3 3.8.7.6 1.2 1.2 1.6 2 .3.9.4 1.8.2 2.8 0 4 .9 8 2.6 11.7v.4c-3.2.4-6.3 1-9.4 1.7v-.1c-1.4-2-2.1-4.4-2-6.8-.4-2.9 1.5-10.5.9-13.3z"/><path d="M185.5 152.5c-.6-.7-1.5-1.3-2.4-1.8-3.8-2.3-5.2-7.1-5.9-11.5s.4-15.4 4.2-22.7l.5-.2v.1l.2-.1c1.6 2.3 1 .6 2.2 3-4.9 7.8-1 23.8 5 33l-3.8.2zM172.6 67c-1.1-.2-2-.9-2.5-1.9-.4-.7-.5-1.3-.1-1.7 2.3-1.1 4.1 3 2.6 3.6zm-3.5-5.3c-1 0-1.8-1-2.1-2.2-.2-.5-.2-1.1-.2-1.7 1.9-1.3 4.5 2.3 2.7 3.8-.2.1-.3.1-.4.1z"/></g><path d="M163.8 422.5c2.8 1.4 3.8 4.8 4.5 7.8l-.2.3c.2 2.6-.2 5.2-1.4 7.6-.4.9-1.1 1.7-1.9 2.2-1.7.9-3.7 0-5.4-1-3.6-2.3-6.9-5-9.9-8-.3-1.5-.6-3.2.5-4.3 1.2-1.1 2.5-2 3.9-2.7 3.1-1.8 6.8-3.5 9.9-1.9z" class="L"/><path d="M166.1 56c-1.8-.5-3.8-.9-3.4-3.1.4-1.4 2.7-1.4 3.7-.3s1.3 3.3-.3 3.4z" class="S"/><path d="M157.3 55.1c3 0 5.5 2.3 5.7 5.3 0 .4 0 .8.1 1.3a10.52 10.52 0 0 0 2.9 5.5c1.4 1.5 2.6 3.3 3.5 5.1v.2c7.3 13.2 27 44 28.9 46.4l.1-.1c5.7-4.2 14.2-1.9 19 3.3s6.7 12.3 8.1 19.2c.2 1.4.7 2.8 1.6 4 .9.9 2 1.6 3.2 2 4.6 2 8.7 4.8 12.3 8.2l.2.2c-5.9 6.5-10.6 12.5-10.5 14.2 1.1 0 1.8.2 2.4.2v1.2h-.4c-2.1 0-4.1-.1-6.2-.1-4.3-5.9-9.1-12.8-14.1-20.2.3-.7.4-1.5.4-2.3 0-3.3-.9-6.5-2.5-9.3a10.01 10.01 0 0 0-5.6-4.7c-1.1-.3-2.2-.4-3.3-.3-1 .1-1.9.5-2.6 1.1l-.2.2c-.7.5-1.3 1.1-1.7 1.9-2 3.3-.3 7.4 1 9.5 1.8 2.5 3.9 4.7 6.5 6.5.6.4 1.3.6 2 .6l9.7 17.2c-7 .1-13.9.6-20.8 1.6v-.4c-1.7-3.6-2.6-7.6-2.6-11.7.1-.9 0-1.9-.2-2.8-.4-.8-.9-1.4-1.6-2-1.1-1.2-2.1-2.4-3-3.8-6-9.1-10-25.2-5-33-1.2-2.4-.6-.6-2.2-3l-.2.1v-.1c-3.8-9.1-22.8-39.2-23.8-40.3l-.2-.2c-.9-2.7-4-3.7-6.5-5.1-2.5-1.5-4.5-3.9-5.5-6.6-.2-.6-.4-1.2-.6-1.9-.3-1-.1-2.1.5-2.9.6-.7 2.1-2.1 3.4-3.4 2.6-1 4.9-1.6 7.8-.8z" class="O"/><path d="M156.6 416c-2.2 4-6.1 7.5-10.7 7.8a1.39 1.39 0 0 1-1.1-.2c-.3-.3-.5-.6-.6-1l-4.1-11.8c-.2-1.8.3-2.4 2.1-2.7 1.9-.2 3.7.2 5.3 1.1 2.9 1.3 5.7 2.8 8.4 4.6.5.2.8.6 1 1.2a1.93 1.93 0 0 1-.3 1z" class="L"/><path d="M152.4 77.7c-3-.5-4.6-1-3.7-3.6 3.9-.5 4.3 1.2 3.7 3.6z" class="S"/><path d="M145.7 434.6c2.1-.6 9.5 8.4 11.8 13.6.5.9.7 1.9.3 2.9-.3.5-.8.9-1.4 1.2-3.1 1.7-6.4 2.8-9.9 3.3-1.3.2-2.8.1-3.5-.9-.4-.9-.5-1.9-.2-2.9 1.1-5.2 1.4-12 2.5-17.2h.4z" class="L"/><path d="M146.1 71.4c.5 1 .2 2.1-.7 2.7-1.1.5-3.7-1.6-1.7-3.7v-.1c1 0 1.8.4 2.4 1.1zM142.7 69.5c-1.9 0-3.8-4.1-1.7-4.9l.2.1c1 0 1.8.5 2.2 1.5.6 1.1.5 2.7-.5 3.4-.1-.1-.2-.1-.2-.1z" class="S"/><path d="M177.5 431.7c.8 7.9-5 15-10.7 20.8-3.7 3.8-7.7 7.5-12.6 9.6-9.7 4.2-21.4 1.1-29.6-5.6-1.9-1.5-3.7-3.3-5.2-5.2-4.7-5.9-7-13.2-6.5-20.7l.2-.9c-.7-6.2 1-12.4 4.8-17.4 3.8-4.9 8.9-8.7 14.8-10.8 3.4-1.3 7-2 10.6-2 3.9.2 7.8 1 11.4 2.5 6.4 2.4 12.1 6.3 16.5 11.5 4.4 5.3 6.9 11.5 6.3 18.2zm-38.1-8.2c-.1-1.5-.8-3-1.8-4.1-1.2-1.7-2.6-3.2-4-4.7-.8-1.1-2-1.9-3.3-2.3-1.3-.3-3 .4-3.2 1.8l.1.1c-2.3 3.3-3.9 7.1-4.7 11.1-.2 1-.2 2.3.7 2.8.6.2 1.2.3 1.8.1 4.3-.8 8.5-1.7 12.6-2.9.5-.1.9-.3 1.3-.7.4-.3.6-.8.5-1.2zm18.1 24.7c-2.3-5.2-9.7-14.2-11.8-13.6h-.4c-1.1 5.2-1.4 12-2.5 17.2-.3.9-.3 2 .2 2.9.7 1.1 2.3 1.1 3.5.9 3.5-.5 6.8-1.6 9.9-3.3.6-.3 1-.7 1.4-1.2.4-1 .3-2.1-.3-2.9zm-8-16.9c3 3 6.3 5.7 9.9 8 1.6 1 3.7 1.9 5.4 1 .8-.5 1.5-1.3 1.9-2.2 1.2-2.4 1.6-5 1.4-7.6l.2-.3c-.7-3-1.7-6.4-4.5-7.8-3.1-1.5-6.8.1-9.8 1.8-1.4.7-2.8 1.6-3.9 2.7-1.1 1.3-.9 2.9-.6 4.4zm-9.5-20.6c1.4 3.9 2.7 7.8 4.1 11.8.1.4.3.7.6 1 .3.2.7.3 1.1.2 4.6-.2 8.5-3.7 10.7-7.8.2-.3.3-.7.3-1-.2-.5-.5-.9-1-1.2-2.6-1.8-5.5-3.3-8.4-4.6-1.6-.9-3.5-1.2-5.3-1.1-1.8.4-2.2.9-2.1 2.7zm-1.8 27c.2-1.2 3-5.4.4-5.9l-8.4 1.2c-1.6.1-3.2.5-4.7 1.2s-2.6 2.1-2.8 3.8c0 1 .2 2 .7 2.9 1.6 3.7 3.5 7.3 5.9 10.6 2.9-3.2 5.5-6.7 7.6-10.4.6-1.1 1.1-2.2 1.3-3.4z" class="P"/><path d="M140.3 353.5a2.19 2.19 0 0 1-2 4c-.6-1.1-.8-2.4-.7-3.7.9-1 1.7-.8 2.7-.3z" class="O"/><path d="M138.6 431.8c2.6.6-.2 4.8-.4 5.9-.3 1.2-.7 2.2-1.4 3.2-2.1 3.8-4.6 7.3-7.6 10.4-2.4-3.3-4.3-6.8-5.9-10.6-.4-.9-.7-1.9-.7-2.9.2-1.7 1.2-3.1 2.8-3.8 1.5-.7 3.1-1.1 4.7-1.2l8.5-1z" class="L"/><path d="M140.3 353.5c-1-.5-1.8-.7-2.6.3-.1 1.3.1 2.6.7 3.7 1.1.5 2.4.1 3-1 .5-1.1 0-2.5-1.1-3zm-6.2-2c-.8-2.8-1.3-7.7 1-9.4s9.2-.7 12.1-.5l10.8-.7c.8-.2 1.7.1 2.3.6.7 1 .4.7.7 1.7l.8 20.6c.1.8 0 1.7-.4 2.4-.6 1.1-2 1.4-3.2 1.6-4.1.8-8.4 1-12.6.9-3.4-.1-7.2-.8-9.2-3.5-1.3-1.8-1.5-4-1.7-6.2l-.6-7.5z" class="N"/><path d="M127.3 414.2c.1-1.4 1.7-2.1 3.1-1.8 1.3.4 2.4 1.2 3.3 2.3l4 4.7c1 1.1 1.7 2.6 1.8 4.1 0 .4-.1.9-.4 1.2-.4.3-.8.6-1.3.7-4.2 1.2-8.4 2.1-12.6 2.9-.6.2-1.2.1-1.8-.1-.9-.5-.9-1.8-.7-2.8.8-4.1 2.4-7.9 4.6-11.2z" class="L"/><g class="K"><path d="M296.4 349.1l.2.2c-9.3 10-11.8 24.8-10.2 38.3 1.1 9.5 4.5 19.3 11.9 25.5 7.4 6.1 19.6 7 26.1 0 1.8-2 3.2-4.3 4.1-6.8 6.6-16.2 1.3-35.7-10.1-49-2.8-3.3-6-6.3-10.1-7.8s-8.8-3.2-11.9-.4zM106.2 346v-4.6H94.8l.3 5c3.7-.3 7.4-.4 11.1-.4zm117.4 113.7c-5.1-.7-7.8-1.2-8.7-2.6l-11.6-18c-1.4-2.2-3-4.6-5.3-5.8s-4.8-1.3-7.4-1.4c-1.3 0-2.5-.1-3.8-.1h-.2c-1-10.7-6.5-20.8-13.2-29.3-3.2-4.1-6.8-8.1-11.4-10.7-3.1-1.7-6.5-2.8-10-3.5-12.4-2.4-25.9-.2-36.1 7.4s-16.3 20.4-14.6 32.8l-.4.1v.5h-4.7c-3-.1-6.2-.1-8.8 1.5-2 1.2-3.4 3.3-4.7 5.3-.5.7-.9 1.5-1.4 2.2l-.6-.4c1.3-33.1 2.1-78.5 1.4-111.7l365 1.7 1.3-.1v.4c1.4 22.9 2.7 46.1 2.8 69.3.1 18.2-.4 36.3-2.1 54.2l.5.3c-.7 1.4-1.7 2.6-3 3.4-1.7.9-3.7 1.3-5.6 1.4l-71.8 6.2c-13.5 1.2-27 2.3-40.5 1.7-13.1-.6-26.1-2.8-39.2-3.4-21.7-1.1-44.2 2.4-65.9-1.4zm-62.5-116.5c-.3-1 .1-.7-.7-1.7-.6-.6-1.5-.8-2.3-.6l-10.8.7c-2.9-.2-9.7-1.1-12.1.5s-1.8 6.6-1 9.4l.8 7.6c.2 2.2.5 4.4 1.7 6.2 2 2.7 5.8 3.4 9.2 3.5 4.2.2 8.4-.1 12.6-.9 1.2-.2 2.5-.6 3.2-1.6a4.09 4.09 0 0 0 .4-2.4c-.5-7-.8-13.8-1-20.7zM402 405.8c1.2 0 2.3-.9 2.3-2.2v-.5c-.3-1.3-.7-2.1-2-1.5-.7 0-1.4.4-1.7 1.1-.6 1-.3 2.3.7 2.9.1.1.4.2.7.2zm-7.1-23.8c1.5-2.2.8-5.1-.1-7.6-.5-1.5-.1-4.1-1.3-5.2-2-1.8-5.9-.5-8.5-.2l-16.2 2.3c-.7.2-1.4.1-2-.2-.5-.3-.8-.8-1-1.4a16.87 16.87 0 0 1-.8-11.5c5.8.4 11.7.2 17.5-.6 2.2-.2 4.4-.8 6.4-1.8 5.3-2.8 7.3-9.3 4.5-14.6-1.3-2.4-3.5-4.3-6.1-5.2-2.5-.7-5-.9-7.6-.5-12.6 1.1-24.8 5.3-35.6 12-.3 5.3 1 10.6 2.3 15.8 4.1 15.2 8.6 30.2 13.7 45.1.9 2.6 1.6 6.8 4.2 7.6 1.7.6 4-1.2 5.6-2.2 3.2-2.1 4.8-6.2 4.6-10.1s-3.7-9.2-5.5-12.7h-.3c-1.4-3.2.1-7 3.4-8.3.2-.1.4-.2.6-.2 1.5-.3 3.1-.2 4.6.2 4.5.9 9 2.6 13.5 1.6 1.6-.2 3.1-1.1 4.1-2.3zm-50.1 28.8c1.9 1.2 2.6-.9 2.3-1.6v-.1c-.4-1-1.6-1.5-2.6-1.1-1 .2-1.2 2.3.3 2.8zm-68.2 3.2c.7-.2 2.5-1.2 2.2-1.9s-.9-1.9-2.6-1.5c-1.3.4-1 3.4.4 3.4zm-9.3-20c1.4-1.8 1.2-3.9.8-6.2l-.9-5.8c-.1-1-.4-1.9-.8-2.8-1.2-2-3.9-2.3-6.2-2.1-6.1.5-12.8.7-17.3 5-3.8-2.6-4.6-10.4-3.6-14.9h.4l17-4.9c2.5-.7 4.6-3.8 6.1-5.9 2.4-3.3 1.1-6.1-2.4-8.2s-7.8-2.1-11.8-1.5c-11.4 1.6-23.2 8.2-31 16.6.7 14.8 3 29.5 7.1 43.8.7 3.2 2 6.2 3.7 9 2.3 3.6 1.9 4.4 5.6 7.2s10 2.3 12.3-1.8c1.3-2.5 1-5.5.4-8.2-1-4.9-2.8-9.7-5.1-14.2l.2-.1c4.9-2.6 10.4-3.7 15.9-3.1 3.4.4 7.5.8 9.6-1.9z"/><path d="M106.2 341.3v4.6c-3.7 0-7.4.1-11.1.4l-.3-5h11.4z"/></g><path d="M118 412.3c-3.8 5-5.5 11.2-4.8 17.4l-.2.9c-.5 7.5 1.8 14.9 6.5 20.7 1.5 1.9 3.3 3.6 5.2 5.2 8.2 6.7 19.9 9.8 29.6 5.6 4.9-2.1 8.8-5.8 12.6-9.6 5.7-5.7 11.5-12.9 10.7-20.8.6-6.8-1.9-12.9-6.2-18.2-4.4-5.2-10.1-9.1-16.5-11.5-3.6-1.5-7.5-2.4-11.4-2.5-3.6 0-7.2.7-10.6 2-6 2.1-11.1 5.9-14.9 10.8zm-16.7 16.1c-1.7-12.4 4.5-25.3 14.6-32.8s23.7-9.8 36.1-7.4c3.5.6 6.9 1.8 10 3.5 4.6 2.6 8.2 6.6 11.4 10.7 6.7 8.6 12.2 18.6 13.2 29.3.2 1.6.2 3.1.2 4.7v.1c-.8 9.3-6.4 18.3-12.9 24.9-7.6 7.6-18 12.1-28.7 13.4-7.2.9-14.7.3-21.3-2.8-7.7-3.7-13.5-10.8-17-18.6-3.5-7.7-4.9-16-5.8-24.4v-.5l.2-.1z" class="R"/><path d="M85.1 255.5c1.5 20.6.7 38.2-.3 58.9l-31.2-.9c-3.8-1-7.9-.7-11.6.8-1.9.9-3.4 2.5-4 4.5l-3-.7c3.9-15.7 8.9-31.1 16.5-45.3 3.3-6.3 7.4-12.2 12.2-17.5l21.4-.8v1z" class="P"/><path d="M67.8 444.4c1.6-.3 3.2.4 3.9 1.8.9 1.7.6 3.8.1 5.8 0 .2-.1.4-.2.7-.7 2.9-1.7 5.7-3 8.3-.3.7-.7 1.3-1.2 1.7-.8.4-1.8.6-2.7.5-6.4-.1-11-2.5-17.2-.9-4.7.5-8.4-.7-13.2-.1-2.7.3-6.1.3-7.6-2-.6-1.2-.9-2.6-.7-4 .2-2.8.7-5.5 1.7-8.2.3-1.4 1.2-2.6 2.5-3.4.7-.2 1.5-.4 2.2-.3h2.4l31.2-.1c.6 0 1.2.1 1.8.2z" class="O"/><path d="M38 318.9c-.7 1.7-.4 3.7.9 5.1 1.7 1.7 4.4 1.8 6.8 1.9l36.6.2c.6 33.1-.1 78.6-1.4 111.7l.6.4-9.3 14.8-.5-.1c.1-.2.1-.4.2-.7.5-1.9.8-4-.1-5.8-.7-1.4-2.3-2.2-3.9-1.8-.6-.1-1.2-.2-1.7-.2l-31.2.1c-6.1-40.9-3.4-80.7-.8-122 .3-1.4.7-2.8 1-4.2l2.8.6z" class="K"/><g fill="none" stroke="#f0785e" stroke-width=".5" stroke-miterlimit="10"><path d="M151.6 229l-1.7.2-41 5c-6.6.8-13.3 1.6-19.6 3.7-10 3.3-18.6 9.5-25.7 17.3-4.8 5.3-8.9 11.1-12.2 17.5-7.5 14.3-12.5 29.7-16.4 45.4-.4 1.4-.7 2.8-1 4.2"/><path d="M34 322.2v.2c-2.5 41.3-5.3 81 .8 122"/><path d="M68.9 445c-.3-.3-.7-.5-1.2-.6l-1.7-.2-31.2.1h-2.4c-.8 0-1.5.1-2.2.3-1.2.7-2.1 1.9-2.5 3.4-.9 2.6-1.5 5.4-1.6 8.2-.2 1.4.1 2.8.7 4 1.5 2.3 4.8 2.3 7.6 2 4.7-.5 8.4.7 13.2.1m37.5-206.8c1.5 20.6.7 38.2-.3 58.9M82.3 326c.6 33.1-.1 78.6-1.4 111.7M53.6 313.5c-3.8-1-7.9-.7-11.6.8-1.9.9-3.4 2.5-4 4.5-.7 1.7-.4 3.7.9 5.1 1.7 1.7 4.4 1.8 6.8 1.9l401.6 1.9"/><path d="M53.6 313.5l31.2.9 238.5 2.7 20.6.4c25.3 1.2 54.2.1 79.2-.5l20.2-.4h4.1m-297.5-87.3c3.6-1.3 6.5.1 10.3.8-1.3 2.4.3 5.5 2.7 6.8s5.2 1.3 7.9 1.3h16.6l48.2-.2 45.3-.1 18.7-.1 69.1-.2c8.7 0 17.4 0 26.1.6 4.5.3 9.1.8 13.7 1.2 9.4.8 18.8 1.2 27.8-1.3m2.6-7.6c6.5-.4 13-.5 19.6-.3 1.4 0 2.8.1 4.2.2h.5m-26.5 7.2l.1-6.9c.7 0 1.3-.1 2-.1m23.8-.1l85.2 7.9c6.7.7 13.6 1.3 19.9 3.8 7.7 3 14.2 8.4 19.7 14.5.1 0 .1.1.2.2M86.1 334.6c12.7 0 25.4.3 38.1.8m-37.6 5.9h37.3M87.1 347c2.7-.3 5.3-.5 8-.7 3.7-.3 7.4-.4 11.1-.4 5.5 0 10.9.3 16.3.8m-35.9 5.7c11.7-1.6 23.6-2 35.4-1.3m-34.9 6.7c2.7-.4 7.2-.5 9.9-.9 10.6-1.2 14-1 25-.1m-34.2 6.7l32.5-1.5m-33.1 7c12.3-.5 24.7-.8 37-.8m-36.4 6.2c12.9-1.5 25.9-1.3 38.7.6m13.8-21.5c-1-.5-1.8-.7-2.6.3-.1 1.3.1 2.6.7 3.7 1.1.5 2.4.1 3-1 .5-1.1 0-2.5-1.1-3zm6.9-12c-2.9-.2-9.7-1.1-12.1.5s-1.8 6.6-1 9.4"/><path d="M161.1 343v.1l.8 20.6c.1.8 0 1.7-.4 2.4-.6 1.1-2 1.4-3.2 1.6-4.1.8-8.4 1-12.6.9-3.4-.1-7.2-.8-9.2-3.5-1.3-1.8-1.5-4-1.7-6.2l-.8-7.6"/><path d="M147.2 341.5l10.8-.7c.8-.2 1.7.1 2.3.6.7 1 .4.7.7 1.7 0 .1.1.2.1.3m-97.5-88.1l21.4-.8c74.4-2.3 149.7-.9 224.8.6l57.9 1.1 136.2.8m-.1.1h.1c18.6 1.7 37.2 2.2 55.8 1.6l6.6-.3c5.1-.2 10.2-.5 15.3-.9l5.4-.4m-139 60.1v.5l.6 9.9v.4c1.4 22.9 2.7 46.1 2.8 69.3.1 18.2-.4 36.3-2.1 54.2m97.1-45c3.1 4.3 5.4 9.6 7.5 14.5.3.6.6 1.3.9 1.9 4 7.9 11.3 15.3 19.8 16.7l.7.1m-52.6-46.2c2.9.8 6 1.9 8.8 3 2.2.8 4.1 1.6 5.6 2.2 3.6 1.5 6.6 4 8.9 7.1m-94.3-8.5c17.1 1.2 32.2-1.1 48.4-3.1 4.8-.6 9.7-1.2 14.8-1.6h.6c2.4 0 4.8.3 7.2 1m82.1-62.2c-.6-.5-2.9-1.9-3.7-1.7-.3 1.1-.4 2.3-.2 3.4.2 1.7.9 3.3 1.9 4.7 2.3-1.2 3.2-4 2-6.2 0-.1-.1-.2 0-.2m7.3 88.6c-.1-.3-.4-.5-.7-.7-1-.4-2.2-.1-2.9.8-.7 1.2-1 2.7-.8 4.1.1 2.1.4 4.7 2.4 5.5.3.1.7.2 1 .2 1.7-.2 3.1-1.4 3.5-3.1.5-2-.1-4-.7-6-.3-1-1.1-2.3-2.1-1.9-.2.1-.4.2-.5.4-.2.5-.4 1.1-.3 1.6l.2 8.5M472 348.7c-1.6-.7-3.4-.8-5-.2-1.8.8-3.5 1.9-5 3.2-1.2-2-4-4.2-6-3s-2.7 5.5-.5 6.6c1.5.7 3.2 1.2 4.9 1.3 2.2.1 4.3.8 6.5 1 2.1.2 4.2-.6 5.5-2.3a5.16 5.16 0 0 0 1.1-3.6c-.2-2.1-.4-2.6-1.5-3zm.7.5c-.2-.2-.5-.3-.7-.5m24.1-84.2c1.3 16.1 2.1 33.7 2 49.8m1.4-49.8c1.3 15.7 3.9 33.6 4.2 49.4v.5m-44.5-50.7c10.5 1.4 21.2 1.6 31.8.8 1.4-.1 2.7-.2 4.1-.4m4.4.4c7.6-1 15.2-1.3 22.8-.8 4.3.3 8.8 1 12.4 3.5s5.8 6.7 7.8 10.7c5.9 11.8 11.6 23.7 17 35.7.1.2.2.5.3.7m-102.2-49.8c1.7 16.7 2 48.7 2.6 48.7m-73.4-38.6l24.7 14m-32-9c7.8 5.3 15.8 10.2 24.1 14.6m-120.7-22.9c16 9.4 32.5 18 49.4 25.7m-44.2-10.8l5 2.4m340.6 96.2c-1.1-1.8-2.7-3.3-4.5-4.2m-.8.6c-2.7 8.1-3.5 16.7-2.2 25.1 0 1.1.5 2.1 1.4 2.8.2.1.5.2.7.3 1.6.2 3.2-1.7 4-3.4 1-2.1 1.9-4.3 2.5-6.5.7-2.3 1.1-4.7 1.1-7.2-.1-2.7-.8-5.3-2.2-7.5"/><path d="M633.7 384.8c-.7-3.8-2-5.8-3.4-6.6-2.4-1.4-5.1.3-6.3 1.7-1.9 2.2-2.4 5.2-2.7 8a95.43 95.43 0 0 0-.3 20c0 1.7.5 3.3 1.3 4.7 1 1.3 3 2 4.3 1.1s1.4-2.6 1.6-4.3c.2-1.4.4-2.7 1.5-3.4m-32.4-86.3c1.6 4.3 2.8 8.8 3.5 13.4m-34.3-73.9c7.2 11.5 11.4 25.2 18.7 36.6 4.9 7.5 9 15.5 12.1 23.8m5.5 17.9v.3l1.4 6.9 5.9 29.7c1.6 8 3.2 16.1 3.3 24.3.1 6.1-.8 14.1-1.6 20.2m-.5 10.5c0 .1-.1.2-.1.4-.7 2.4-1.1 4.9-1.1 7.5m-35.6 2.5c-5.8.1-6 1.9-6.4 6.3s2.4 8.4 6.2 10.6l.3.2c3.9 2.1 8.5 2.5 12.9 2.5s8.9-.4 13.3.2 8.8 2.5 13.2 2.2c2.5-.3 5-.8 7.4-1.5 5.2-1.1 10.6-.7 15.9-.1 1.6.2 3.3.4 4.7-.4.7-.5 1.4-1 1.9-1.7 2.3-2.5 4.7-5.4 4.8-8.8.1-3.8-2.8-7.2-6.3-8.7-2.6-1.1-5.5-1.7-8.3-1.7-1 0-1.9-.1-2.9-.1l-21-.7-16.8-.5c-6.1-.2-12.4-.3-18 2m3.5 5.2c20.5-2.9 38.7 2.8 59.2 0m-58.6 7.1c19.7 1.1 39.3 1.1 59 0"/><path d="M448.7 328c30.1.6 65.1 2.9 95.2 3.5 18.9.4 43.7 3.9 60.3 13.2.4.2.8.4 1.1.6m-.5-.3l.6.3c6 3 10.7 8.1 14.4 13.7 3.8 5.8 7.1 13.2 10.6 19.2m-48.7-120.5l.3 2.1c1.7 8.9 6.9 16.8 12 24.4l19.2 27.9c1 1.5 2 2.9 3.1 4.4m0 0c16.9 33 26.9 75 23.4 112.5-.3 3.3-.7 6.6-1.3 9.9m-2.8-39.4c1.3 8.4 3.7 20.8 4 29.5v.5M66.8 444.9c.3-.3.6-.5 1-.6 1.6-.3 3.2.4 3.9 1.8.9 1.7.6 3.8.1 5.8 0 .2-.1.4-.2.7-.7 2.9-1.7 5.7-3 8.3-.3.7-.7 1.3-1.2 1.7-.8.4-1.8.6-2.7.5-6.4-.1-11-2.5-17.2-.9m139.3-30.5c1.3 0 2.5.1 3.8.1 2.5.1 5.2.2 7.4 1.4s3.9 3.6 5.3 5.8l11.6 18c1 1.5 3.6 2 8.7 2.6m-151.5-6.8l9.3-14.8c.5-.7.9-1.5 1.4-2.2 1.3-2 2.6-4.1 4.7-5.3 2.6-1.6 5.8-1.5 8.8-1.5h4.9m456.1 10.3l10.7 15.9c.7 1.4 1.9 2.4 3.3 3.1 1.5.5 2.3.2 2.8-1.3"/><path d="M219.2 458.8l4.4.9c21.7 3.8 44.2.3 66.2 1.3 13.1.6 26.1 2.8 39.2 3.4 13.5.6 27-.6 40.5-1.7l71.8-6.2c1.9 0 3.9-.5 5.6-1.4 1.3-.8 2.3-2 3-3.4.6-1.2 1.2-2.4 1.7-3.7 4.7-11.6 11.7-22.6 21.5-30m-24.4-100.4c10 .6 75.5-.3 119.2.8 11.9.3 22.2.7 29.3 1.3m-345.7-58.8c-20.9-1.3-41.8-1.3-62.6.1a8.49 8.49 0 0 0-3.8.9c-2.7 1.6-2.8 5.3-2.7 8.3l1.7 33.1c.1 2.1.3 4.4 1.6 6.1 1.8 2.4 5.1 2.8 8.1 3 17.5 1.2 35 1.2 52.4 0 2-.1 4.1-.4 5.5-1.8 1.6-1.6 1.7-4.2 1.6-6.5l-1.1-35.4c-.1-2.4.8-5.8-.7-7.8zm75.7-1.3l-1-.2m1 .2c-7.1-.8-12.5-1.2-17.4-1.3-8.5-.1-15.6.6-27.8 1.7-2.3.2-4.8.5-6.6 2-2.4 2.1-2.5 5.7-2.5 8.9l.1 35.3c0 1.5.1 3.2 1.3 4 .7.4 1.4.6 2.2.7 15.6 2 31.2 3 46.9 3 4.3 0 8.6-.1 12.9-.2 1.9.1 3.9-.3 5.6-1.2 3-1.9 3.6-6 3.8-9.6.5-11.9.1-23.9-1.3-35.7.3-2.6-1.7-5-4.3-5.2h-.5l-12.4-2.4zm96 2.6l-55.5-1.3c-1.3 0-2.8 0-3.8.8-.8.9-1.2 2-1.3 3.2a232.63 232.63 0 0 0-2.4 44.1c-.1 1 .2 2 .7 2.9.8.9 1.9 1.4 3.1 1.5 9.4 2 19 2 28.7 2 10.5 0 13.7-.5 24.3-.5 1 0 3.4 0 6.1-.1 3.9-.2 8.3-.5 9.5-1.3 3.3-2.3 2.5-6.7 2.5-10.7l-.4-28.2c0-3.3-.3-5.1-2-7.9s-5.5-4.6-9.5-4.5m140 1.2c-1 0-2.1 0-3.2.1-5 .3-11.3 1-15.6 1-.7 0 .1.2-.3.7-.3.5-.5 1.1-.4 1.7.3 4.8 2.3 9.2 4.4 13.5l14.3 29.7c.6 1.7 1.7 3.1 3.1 4.2.8.6 1.7.9 2.7.9.5 0 1.1 0 1.8-.1 4.7-.3 3-.5 7.7-.8 1-.1 6.1.1 6.9-.5 1.4-1.1 2-2.9 1.6-4.6-.5-1.7-1.4-3.2-2.5-4.6-9.2-12.7-14.5-26.7-20.5-41.2m18.8-3.5c-2 .3-8.6.5-10.6.8-.1 3.3 2.8 6.8 4.3 9.7l20.3 39.5c1 1.8 2.2 4 4.2 4.4.9.2.9-.1 1.8-.3l10.9-1.7m-109.7 1.5h.6c5.5.5 16.4.1 21.6.2 11.8.3 14.5.3 22.2-1 .1 0 11.7.6 11.8.6m-99.7-.4c.1.1.3.2.4.3 4.2 1.9 31.1.4 38 .9m-280.5 48.8c.7 14.9 3.1 29.6 7.1 43.9.7 3.2 2 6.2 3.7 9m-10.8-52.9c7.8-8.4 19.7-15 31-16.6 4-.6 8.4-.6 11.8 1.5s4.7 5 2.4 8.2c-1.5 2.1-3.6 5.2-6.1 5.9l-17 4.9m-.4.1c-1 4.5-.1 12.2 3.6 14.9m.1-.1c4.4-4.3 11.1-4.4 17.3-5 2.3-.2 5 .1 6.2 2.1.5.9.7 1.8.8 2.8l.9 5.8c.3 2.2.5 4.4-.8 6.2-2.1 2.8-6.2 2.4-9.6 2-5.5-.6-11.1.5-15.9 3.1m-.4 0s.1.1.1.2c2.3 4.5 4.1 9.2 5.1 14.2.6 2.7.9 5.8-.4 8.2-2.3 4.1-8.5 4.6-12.3 1.8s-3.3-3.6-5.6-7.2m75.8-47.9c-4 7.3-4.1 11.9-1.1 19.7.6 1.8 1.7 3.4 3.2 4.7 1.5 1.2 3.6 1.5 5.4.8 1.7-.8 2.6-2.5 3.4-4.2 1.9-4 3.6-8.5 2.8-12.9s-3.5-10.8-8-10.3c-2.8.4-3.6.2-5.7 2.2z"/><path d="M296.6 349.3c-9.3 10-11.8 24.8-10.2 38.3 1.1 9.5 4.5 19.3 11.9 25.5 7.4 6.1 19.6 7 26.1 0 1.8-2 3.2-4.3 4.1-6.8 6.6-16.2 1.3-35.7-10.1-49-2.8-3.3-6-6.3-10.1-7.8s-8.9-3.2-12-.4c-.1 0-.1.1-.1.1m47.9-1.7c-.3 5.3 1 10.6 2.3 15.8 4.1 15.2 8.6 30.2 13.7 45.1.9 2.6 1.6 6.8 4.2 7.6 1.7.6 4-1.2 5.6-2.2 3.2-2.1 4.8-6.2 4.6-10.1s-3.7-9.2-5.5-12.7m-24.9-43.5c10.7-6.7 22.9-10.9 35.6-12 2.5-.3 5.1-.2 7.6.5 5.7 1.9 8.7 8 6.8 13.7-.9 2.6-2.7 4.8-5.2 6.1-2 1-4.2 1.6-6.4 1.8-5.8.8-11.7 1-17.5.6"/><path d="M365 358.2c-1.1 3.8-.8 7.8.8 11.5.2.5.5 1 1 1.4.6.3 1.3.3 2 .2L385 369c2.6-.4 6.6-1.6 8.5.2 1.2 1.1.8 3.7 1.3 5.2.8 2.5 1.6 5.5.1 7.6-1 1.2-2.4 2.1-4 2.3-4.5.9-9-.7-13.5-1.6-1.5-.4-3.1-.5-4.6-.2-3.4 1-5.3 4.6-4.2 7.9.1.2.1.4.2.6m-92.6 19.6c-1.3.4-1 3.4.4 3.3.7-.2 2.5-1.2 2.2-1.9s-.9-1.8-2.6-1.4zm70.9-1.4c-.4-1-1.6-1.5-2.6-1.1-.9.1-1.2 2.3.3 2.8 1.9 1.2 2.6-.9 2.3-1.7m55.2-7.6c-.7 0-1.4.4-1.7 1.1-.6 1-.3 2.3.7 2.9.2.1.5.2.7.3 1.2 0 2.3-.9 2.3-2.2v-.5c-.4-1.4-.8-2.2-2-1.6zM197.1 275.5l23.2 18.5m-25.9-8.8c2.8 1.1 5.5 2.6 7.8 4.5m25.7-20.6c5.3 3.8 10.2 8.1 14.7 12.8m226 7.8c3.4 2.6 6.4 5.8 8.7 9.5M441 114.7c-1.5-.9-3.6.3-4.2 1.9-.5 1.7.5 3.4 2.2 3.9h.2a2.2 2.2 0 0 0 1.4-.2c1.2-.4 2.1-1.5 2.2-2.8 0-.3 0-.7-.1-1-.3-.8-.9-1.5-1.7-1.8m-.3 6.2l3.9 4.7 1.1 1.4c.3.3.5.6.8 1l.2.3m-3.8-11.7c2.6 5 5.5 9.8 8.9 14.3-.5 1.4-2.7.5-3.4-.7s-1.6-2.3-2.6-3.2m-1.2-1.4l1.2 93.3m.6-90.8l2.2 97.2m-2.8-6.4l-.6 5.8v.5"/><path d="M445.8 218.9c.4-.5 1.8 0 2.4 0 .3 2.5.1 3.9.4 6.3v.3c-1-.5-2.4-.5-3.4-.9m-9.6 1.7c1.2-.5 2.4-.8 3.7-1.1 4.2-1.3 8.9.9 13.2 1.8 2.5.5 5.1 1.1 7.1 2.8-.3.3-.7.5-1.1.5-.5.1-1 .2-1.5.1l-16.4.2h-1.7c-.9 0-1.8-.3-2.6-.8-1.3-1-2-2.7-.7-3.5m-201.4-55.1c-2.1 0-4.1-.1-6.2-.1h-6.2c-1.4 0-2.8 0-4.2.1-7 .1-13.9.6-20.8 1.6-3.2.4-6.3 1-9.4 1.7-2.6.5-5.2 1.2-7.7 2m56.9-5.2h-2.2m82.2 2l-7.1-.2-12.4-.3-13.3-.3-10.6-.3-10.8-.3-9.4-.2-7.8-.2-5.7-.1-2.9-.1m124.8 3.5h-1.2c-.7 0-1.4-.1-2.1-.1h-1.2l-5.8-.2-4.9-.2m57.4 2.2l-42.2-1.8M179.7 177l7.6 60.6m216.3-61.1c1-.1 2.1-.2 3.1-.2 2.4-.2 4.9.3 7 1.6 2.3 1.8 3.7 4.4 3.8 7.3.2 2.8-.1 5.7-.8 8.5l-8.4 44.7m-199.8-55.5c-1.2-.3-2.4-.2-3.5.3-8.1 3-12.2 12-9.2 20.1 1.8 4.7 5.7 8.3 10.6 9.6 2.1.7 4.3.6 6.3-.3 1.1-.6 2-1.4 2.8-2.4 2.9-3.3 3.9-7.1 4.4-11.5a13.29 13.29 0 0 0-4.2-11.6c-3.4-3-3.2-2.4-7.2-4.2z"/><path d="M207.1 195.3c1.6-.9 3.6-.4 4.6 1.2.9 1.6.4 3.6-1.2 4.6-.8.5-1.8.6-2.7.3m-.7-6.1c-1.2 1.5-.6 4.8.7 6.1m-11.6 19.9c-.7.3-.5.6-1 1.2-.3.6-.5 1.3-.4 2 0 1.4.1 3.1 1.3 3.7 1.8.9 3.6-1.4 3.9-3.5.2-1.2-.1-2.4-.9-3.3-.9-.6-2-.7-2.9-.1zm23.8 1.1c-1.9.2-3.3 1.9-3.1 3.8a.9.9 0 0 0 .1.5c.7 1.9 3.7 2.5 4.8.8s.1-5.8-1.8-5.1zm166.5-24.6c-1 .5-1.2 2.7-.6 3.8.8 1.1 2.2 1.4 3.4.8 1.1-.7 1.8-1.9 1.7-3.2.1-1.1-.4-2.1-1.3-2.7-1-.6-3 .3-3.2 1.3zm2-11.9h-.3c-4.6 0-8.8 3-11.1 7s-2.3 8.8-2 13.5c.2 2.9 4.9 7.3 6 7.4 3.9.3 7.8.8 11-1.3 1.9-1.2 3.4-2.8 4.6-4.7 2.2-4 3.5-8.8 2-13.1s-5.3-8.8-9.9-8.8m-19.7 36.7c-.9.1-1.6.5-2.1 1.2-.5 1.1-.6 2.4-.3 3.6 1.6.5 3.3-.1 4.2-1.5.8-1.4.6-3-1.8-3.3zm28.9-.7c-1.2 0-3.2 1.5-2.6 3.4s4 2.1 4.9.2-.2-3.9-2.3-3.6zm.2.1h-.2"/><path d="M378.7 186.5c-4.9 4.2-5.6 11.4-6 17.8-.2 3.1-.3 6.5 1.6 9.1 1.7 2.3 4.6 3.4 7.5 3.6 6.8.5 13.4-2.8 17.1-8.6 3.5-5.9 3.7-13.2.4-19.2-1.8-3.2-4.8-6-8.4-6.6-4.7-.7-8.4 1.2-12.2 3.9zm-182-3.1l-.2.2c-3.4 3.3-4.7 8.8-4.7 13.5 0 5 1.9 9.8 5.2 13.5 2.6 3.1 6.1 5.1 10 5.9 4 .7 8-.6 10.8-3.6 1.3-1.7 2.3-3.6 2.9-5.6 1.2-3.8 1.9-7.7 2-11.6s-.5-8.1-3-11.1c-2-2.4-5.1-3.7-8.1-4.5-2.7-.9-5.6-1-8.5-.5-2.8.7-4.3 2-6.3 4.1m38.3-12.3c-.2-.1-.5-.2-.7-.2h-.1c-1.2.1-2.2.8-2.7 1.9-.5 1.4-.7 2.9-.4 4.4l2 27.1.3 3.6 2.1 28.5m112.8-63.2l9.7 1c.7.1 1.4.1 2.1.2h.6c.2 0 .4 0 .6.1 1.4.1 2.8.5 4.1 1.2 2.9 1.9 3.3 6 3.1 9.5-.7 7.7-2 15.3-4.1 22.8-.4 1.4-.7 2.9-1.1 4.3-.1.3-.1.5-.2.8l-6.2 24m-121.4-66.1h1.1l10.1-.2c2.2 0 4.4-.1 6.7-.1 1.2 0 2.4 0 3.7-.1l34-.4c3.8 0 7.6.1 11.5.2.6 0 1.5-.6 2.1-.6m-70.7 34.4h34.5l15.5.1h14.4l9.6.4 2.3.2 9 1 4.2.5 5.9.5 7.4.4 5.7.2 7 .1h14.5m-127.7.5H235m-1.4-.2l2.2.1c17.7 1 35.4-1.6 53 0 4.2.4 8.4 1.1 12.6 1.5 5.3.6 10.6.8 16 1.1l45.3 2.2m-60.6 2.7c-1.5-.5-3.2-.7-4.8-.7-2 0-4.1-.1-6.1-.2-.4 0-1 .1-1.1.5-.2.6.3 3.1.9 3.1 2.7 0 5-.1 7.7 0 .9.1 1.8.1 2.8 0 .4-.8.6-1.8.6-2.7z"/><path d="M350.5 174.2c.2.1.3.1.5.2 2.3 1.3 3.6 5.2 3.9 7.7.1 2.8-.3 5.5-1.1 8.2-1.4 5.4-2.8 12.1-4.2 17.5m7.2-33.2c2.4 1.2 3.6 4.5 4 7.1.2 2.7 0 5.3-.6 7.9l-3.5 18.5m-12.9-33.3l.3.1c1.5.8 2.6 3.4 2.9 4.9.3 1.7.3 3.5 0 5.2-.9 7.7-2.4 15.3-4.5 22.8m-96.4-36.2c-.3-.1-.6-.1-.9-.1-1.6 0-4 .9-4.5 2-.7 1.3-1.1 9.2-1.1 10.7-.1 8.7-.1 12 2.8 20.2m10.6-32.3c-2.1 1.4-5.3 6.6-5.6 10.6-.6 7.8.8 14.2 3 21.7m12-32c-3.3.9-3.7 4.3-4.8 7.6-1.1 3.2-1.4 6.7-1.1 10.1.2 4.8.9 9.6 2 14.3m14.8-31.9c-3.9 2.8-4.6 8.3-4.8 13.1-.2 6.1-.2 12.2.1 18.3m15.3-31.1c-.2 4.4.4 25.7.2 31.4m13.1-31.4c.8.2 1.9 3.8 1.9 4.7 0 8.8-.6 17.9-.6 26.7m11.1-30.3c3.1 4.7 1.4 20 .8 31.5m7.8-31.9c2.2 1.4 3.5 4.9 3.9 7.5a26.21 26.21 0 0 1-.3 7.9 494.21 494.21 0 0 0-2.4 17.6v.1m9.3-31.4c3 1.7 3.1 5 3 8.4-.3 8.5-2.5 15.3-2.2 23.8v.2m8-32.2c3.1 3.4 3.2 6.1 2.3 12-1.1 7.3-.4 13.3-2.8 20.4m-91.8-49.5a71.14 71.14 0 0 1 8.3 12.7c.1.1.1.3.2.4m-55.2-52.6c5.7-4.2 14.2-1.9 19 3.3s6.7 12.3 8.1 19.2c.2 1.4.7 2.8 1.6 4 .9.9 2 1.6 3.2 2 4.6 2 8.7 4.8 12.3 8.2m-61.4-39c-3.7 7.3-4.8 18.3-4.2 22.7s2.1 9.3 5.9 11.5c.9.4 1.7 1 2.4 1.8.3.6.6 1.2.7 1.9.5 2.8-1.3 10.4-.8 13.2m15-32.2l-.2.2c-.7.5-1.3 1.1-1.7 1.9-2 3.3-.3 7.4 1 9.5 1.8 2.5 3.9 4.7 6.5 6.5.6.4 1.3.6 2 .6 1.1 0 2.2-.2 3.2-.6.9-.4 1.7-.9 2.4-1.6.2-.3.4-.5.6-.9.3-.7.4-1.5.4-2.3 0-3.3-.9-6.5-2.5-9.3a10.01 10.01 0 0 0-5.6-4.7c-1.1-.3-2.2-.4-3.3-.3-1.2 0-2.1.4-2.8 1m-30.8-62.9c7.3 13.2 27 44 28.9 46.4 0 0 0 .1.1.1m-41.2-63.9c-2.8-.8-5.1-.2-8 .7-1.3 1.3-2.8 2.7-3.4 3.4-.6.8-.8 1.9-.5 2.9.1.6.3 1.3.6 1.9 1 2.8 3 5.1 5.5 6.6 2.4 1.5 5.6 2.5 6.5 5.1"/><path d="M156.6 55.2c.2 0 .4 0 .7-.1 3 0 5.5 2.3 5.7 5.3 0 .4 0 .8.1 1.3a10.52 10.52 0 0 0 2.9 5.5c1.4 1.5 2.6 3.3 3.5 5.1m-6.1-17l-1.8 1.7m1.1-4.1c-.4 2.3 1.6 2.7 3.4 3.1 1.6-.1 1.3-2.3.3-3.5s-3.3-1-3.7.4zm3.9 6.7c-1.4 0-2.7.8-3.4 2m3.5-3.8c0 .6.1 1.1.2 1.7.3 1.1 1.1 2.2 2.1 2.2h.4c1.8-1.5-.8-5.1-2.7-3.9m3.3 7.4c-.8.9-1.8.9-2.6 1.8m2.6-3.5c-.4.3-.3 1 .1 1.7.5 1 1.4 1.6 2.5 1.9 1.6-.7-.3-4.8-2.6-3.6m-24.2.5c-.6 1.5-1 1.4-2.4 2.1h-.1m-2.4-1.5c-2 .9-.1 4.9 1.7 4.9h.2c1.1-.7 1.1-2.2.5-3.4-.3-.9-1.2-1.5-2.2-1.5m8.1 4.4c-1.3.7-1.6 1.6-2.9 2.4m-2.6-.9c-2 2 .5 4.2 1.7 3.7.9-.6 1.2-1.8.7-2.7-.6-.7-1.5-1.1-2.4-1m10.1 1.8l-1.7 2.3"/><path d="M148.8 74.1c-.9 2.6.6 3.1 3.7 3.6.5-2.4.1-4.1-3.7-3.6zm7.8-14.5v-.7m1.5 17.1c1 1.1 20 31.2 23.8 40.3v.2m2.4 2.7c-4.9 7.8-1 23.8 5 33 .9 1.3 1.9 2.6 3 3.8.7.6 1.2 1.2 1.6 2 .3.9.4 1.8.2 2.8 0 4 .9 8 2.6 11.7m-14.6-56.3c1.6 2.3 1 .6 2.2 3M150.4 61c4.2 1.9 28 41.9 48 76.4l9.5 16.5 9.7 17.3M161.6 67c.4 2.3 20.7 35.9 41.3 67.3l11 16.6c5 7.4 9.8 14.3 14.1 20.2M156.6 59.6c-1 3.2 22.4 41.6 43.5 75.9l10.9 17.8 10.8 17.8m-36.4-3.8v.3c-.1 2.4.6 4.8 2 6.8m41.4-19.9c2.7 1.9 5.1 4.3 7 7m19.8-128.3l-.4-.1a58.46 58.46 0 0 0-16.7-.9c-2.8.3-7.7 1-8.2 3.8s3.5 5.2 5.8 6.7c5.2 3.4 19.7 8.4 20.2 7.7m-1.2-17.2c10.3 2.7 15.7 4.6 23.2 10.9 1.1.8 1.9 1.9 2.4 3.2.7 2.3-1.1 4.7-3.3 5.7-1.5.7-3.2.7-7.1.5-4-.4-7.9-1.2-11.8-2.5"/><path d="M256.4 39.5c.3 3.6.2 7.3-.2 11-.6 6-1.7 12.1-1.4 19.8M259.1 41c-.4 3.2-.7 6.5-1 9.9-1.2 14.4-1.4 28.9-.6 43.3"/><path d="M254.8 70.2l-.3 23.5c.1 13.6.6 27.2 1.4 40.9l.3 3.6.3 3.9m.9-48.8V96l.5 15.7 1.2 22.9c0 1.3.1 2.5.2 3.8 0 .9.1 1.8.1 2.7v.5m-3.1.6c-4.2 3.8-9.2 8.9-13.5 13.6-5.9 6.5-10.6 12.5-10.5 14.2 1.1 0 1.8.2 2.4.2 1 0 1.3-.4 2.5-2.3 2.2-3.6 4.8-7 7.7-10.1.7-.8 1.4-1.5 2-2.3 3.2-3.5 6.6-6.9 9.6-10.1m3.6 1.8c1.5 1.8 3.4 3.4 5.4 4.6.9.6 2.3 1.7 4.1 3l2.9 2.2 17.3 13.4c.4.2.6.4.7.3.3-.1.5-.2.7-.3.7-.6-.1-1.8-1-3a18.19 18.19 0 0 0-4.2-3.6c-9.1-6.4-25.4-21.7-26.4-22.7"/><path d="M256.5 145.3c-.4 3-.9 10.1-1.1 15 0 1.2-.1 2.2-.1 3 0 .6 0 1.1.1 1.7.8.9 2.1 1 3 .3.2-.7.3-1.4.3-2.2.1-.9.2-2.1.3-3.4.3-3.8.7-8.9.7-12.5v-.5M245.2 158l.1.1c2.4 1.5 7.4 3.7 9.7 5.2m-7.8-7.6c1.6 1.2 6.2 3.3 7.8 4.5m14.4-5c-3.5 1.1-6.8 2.6-9.9 4.6m13-2.6c-4.7 1.5-9.2 3.5-13.5 6m25.2-91.6c.1-.1.1-.2.2-.3 4-5.5 12.4-7.2 19.3-7.1s15.5 1.2 19.3 7m3.7 1.3l1.2-.6c.6-.3 1.3-.6 2-.9 4.7-2 9.9-2.8 15-2.5 2.1.2 4.2.6 6.3 1.2.1 0 2 2.1 2.1 2.2"/><path d="M288 71.3c.8-1.3 3.6-.4 3.7-.1 1 2.9 1.5 7.9 0 8.7-2.8.8-3.7-5.3-3.7-8.6zm19.1-4.2c-4 1-3.4 11.3 1.2 10.9 2.8-.4 3.9-6 1.8-9.1-.5-.7-1-2.3-3-1.8zm11.2 2.1c-1.9 1.1-2.6 3.5-1.6 5.4.3.6.8 1.1 1.4 1.5 2.7-.5 3.6-4.7.2-6.9zm23-.5c.5 1.5.2 4.6.3 6.2s1.5 3.4 3 2.8c.8-.5 1.4-1.3 1.4-2.3.5-2.6.4-4.8-1.2-6.9l-.1-.1M328 72c-.2 2.7 0 5.5.5 8.1.6.6 1.6-.3 1.9-1.1 1-2.7 1.2-5.2-.4-7.7m-45.2.9v27.2M323 71.2c0 .6-.1 1.3-.1 1.9 0 1 0 2-.1 3v1.3c0 7.7.4 16.2.9 23.2m-38.8-.9c2.6-2.8 6.4-2 10.2-2 7-.1 14 .6 20.8 2.1.5 0 .9.3 1.2.7.3.6-.3 1.4-.9 1.8-1.7 1.2-3.6 2.2-5.7 2.7-2.1.6-4.2.8-6.3.9-1.7 0-3.4-.1-5.1-.3-2.5-.3-5-.8-7.4-1.3-3.5-.7-4.7-1.7-7-4.4"/><path d="M282.4 97.4c.7-.6 1.5-1.1 2.4-1.5 1.2-.5 2.4-.9 3.7-1.1l1.8-.3 3.8-.2c4.1-.1 8.2 0 12.3.4l2.6.2c2.4.2 4.9.5 7.3.9.8.1 1.5.3 2.2.7.7.5 1.1 1.3 1.2 2.1s0 1.6-.4 2.3c-.3.5-.6 1-1 1.4-.8.7-1.7 1.3-2.7 1.6m37.6-32c1.3.2 2.3 1.1 2.6 2.4 0 .1.1.2.1.4.2 1.1.1 2.2-.1 3.3-.1.6-.3 1.1-.5 1.6-.2.4-.6.7-1.1.8h-.3c-1-2.6-1.2-5.4-.6-8.2m1.8 8.1c.6 4.8.8 9.6.6 14.3v1.2m-28.3 3.4c6.7-3.7 14.2-5.6 21.8-5.4 2.2.4 4.4 1 6.4 2 .3.2.5.4.5.6-.4 1-4.5 2-5.6 2.2l-6.5 1.5c-6.7 1.4-13.8 2.5-19.5 1.1m23.7-15.9c-.8-1.2-3-.4-3.3 1s.9 4.7 1.9 5.8m1-6.9c.2 0 .3.1.4.2.5.5.9 1.2 1 2 .3 1 .4 2.1.2 3.1a2.19 2.19 0 0 1-2.3 1.7m-17-5.4c-1.6-1-3.3 1.3-3.3 3.1s-.8 3.3-.5 5c.3.3 3.1.8 3 .4"/><path d="M329.7 87h.3c.7.2 1.4.8 1.3 1.4s.1 1.4 0 2.4c-.1 1.3-1 2.7-2 4.5m-76-53.7c.1-1.4 1.7-2.2 3.2-2.1.3 0 .6.1.9.2.7.3 1.3.7 1.7 1.3.7.7 1.2 1.6 1.7 2.5m66.8 59.8c-12.4-.4-21.1 8.8-25.8 20.3-.2.5-.4.9-.6 1.4-.2.6-.4 1.3-.6 2-2.2 8-2 16.6.6 24.5.4 1.4.9 2.7 1.5 4.1a73.32 73.32 0 0 0 1.8 3.9c1.9 4 4.6 7.5 8 10.3 2.2 1.6 4.6 2.9 7.1 3.8 3 .9 6 1.5 9.2 1.6 2.9.1 5.8.1 8.8-.1.8 0 1.5-.1 2.3-.2 1.4-.1 2.8-.3 4.2-.5 1.5-.2 2.9-.6 4.3-1 2.2-.6 4.3-1.7 6.2-3.2 3.2-2.6 5.1-6.4 6.7-10.2 2.6-5.8 4.9-11.7 5.6-17.9.9-9.5-1.9-18.9-7.8-26.3-.8-1-1.7-2-2.7-2.9-.3-.3-.6-.6-.9-.8-3-2.9-6.6-5.1-10.6-6.4-5.2-2.1-10.8-2.4-17.3-2.4m-3.3-2.1c-.1-.1-.3-.1-.4-.2-1.8-.6-3.4.1-5.7 1.3-2.4 1.3-5 2.3-7.6 3-2 .5-4 .9-6 1.1l-1.1.1-3.2 1.9c-3.5 2.4-6.6 5.4-9.3 8.7-1.4 1.6-2.5 3.4-3.4 5.3-.4.9-.8 1.7-1.1 2.6-2.5 6.8-2.5 14.5-1.4 21.7a32.2 32.2 0 0 0 3.8 11.7c2.2 3.5 5.2 6.4 8.8 8.4 2.2 1.3 4.5 2.4 6.9 3.2 3.9 1.3 7.9 2.4 12 3.1l1.6.3c.5.1.8.2 1.2.2"/><path d="M296.6 138.6c.2-4.5-2.2-4.4-3-3.5a6.62 6.62 0 0 0-1.2 3.3c-.2 1-.1 2 .4 2.9.5.8 3.6 1 3.8-2.7zm4.6-13.6c-.7-3-4.8-3.3-5.3-1.5s.9 4.7 4.5 3.4m.7 24.6l-5.8 1.4c-.3 1.6.5 3.2 1.9 4 1.4.7 4.2-.2 5.3-1.3m-11.7-33c.2.1.3.3.4.5.8 1.2.8 2.8 0 3.9-.9-.5-3.1-1.3-4-1.7m1.5 27.4c-1.7-2.4 1.8-3.2 2.6-2s-.2 3.7-2.6 2zm-4.2-59.4c-5.7.7-11.4.7-17.1.1-3.3-.5-6.8-1.2-9.9.1m-3.4.2c-1.4-.7-3-.3-4 .9-.6 1.2-.8 2.4-.7 3.7l.1 22.2m.3 6.1l-.3 8.1c0 .6-.1 1.3-.1 1.9-.1.6 0 1.2.4 1.7 1 1 4.8-.7 6.1 0m3.9.2c7.4 1 14.9 1.3 22.4.8m-12.5-29.4c-1 0-2-.1-3-.3h-.2c-1.1-.3-2.2-.1-3.2.5-.5.4-.8 1-.8 1.6 0 .5.2.9.6 1.2.5.3 1.1.4 1.6.3l5-.1c.1-.9.9-3 0-3.2"/><path d="M265.7 96.3c-.6 4.4-.3 8.9.9 13.3 2.1-3.6 2.5-9.2 1.5-13.3"/><path d="M257.9 96.1h7.9l2.4.1c4.1.1 8.4.5 12 .9l2.1.3h.2m-3.2 5.2h-.2m.2 0c-.4.1-.8.2-1.1.5-.5.7-.4 1.7.3 2.2a.76.76 0 0 0 .4.2 1.79 1.79 0 0 0 2.1-1.2v-.3c.1-.8-.7-1.4-1.7-1.4z"/><path d="M280.2 97.1v5.4c-.3 0-.5.1-.8.1m-27.9 18.6c-.6 0-1.3-.1-1.9-.1-.7 0-1.5.1-2.1.4-1.2.6-2.1 2.1-1.6 3.3s2.2 1.4 3.7 1c.6-.1 1.2-.3 1.7-.6m8.5 9.4l3.6-.1c5.8-.1 13.1-.1 18.7.7m-26.4-.6h-6.2m107.1-39.9c3.6-1.8 7.8-2.2 11.6-1.1.4.1.8.3 1.1.6.3.4.5 1 .5 1.5.2 1.4.3 2.8.5 4.2m0 1l2.4.1c.1.2.2.5.2.7 0 1-.7 1.8-1.6 2h-.5c-1-.2-1.7-1.2-1.5-2.2m1.4 2.3c.4 1.3 1.2 4.7 1.6 6l-2.2.3-1.3.2c-2.2.4-4.4.8-6.6 1.3-.7.1-1.3.3-2 .5m.3-11.5c-1.2 1-1.7 2.7-1 4.2.2.6.8 1.1 1.5 1.1.9-.1 1.5-.9 1.4-1.8a3.84 3.84 0 0 0-1.1-2.3m-.3 5.1l.6 4.1m.6.8c-1.7.8-3.7 1-5.5.6m-4.9-10l.9 3c-.9 0-1.8-.4-2.5-1"/><path d="M351.8 102.2c-.8-.6-2-.5-2.6.4-.3.4-.4.8-.4 1.3.3.7 1.1 1.2 1.9 1m-17.1-26.4v.2m0-.3c-.4 2.1.4 3.1.8 5.2.7.4 1.6.3 2-.4 0-.1.1-.1.1-.2.3-.8.4-1.7.2-2.5L336 75c-1.4.6-2.4 1.9-2.4 3.4M309 86.8c.4-1.3-2.8-2.5-4-1.9-.3 3.1.2 6.2 1.3 9.1m2.7-7.2a31.36 31.36 0 0 1 0 7.5m-20.3-7.8c-1.5 2-1.2 5.8-.3 8.2m.3-8.2c.1-.7 1.9.1 2.3.7.3.6.4 1.3.2 2-.3 2.1-.7 2.7-1 4.8m14.5 12.8c1 0 3.2.2 4.2.3v3c-2.9.1-5.8-.4-8.4-1.5m-9.2 14.7c0-.1-.1-.2-.2-.2-.7-.9-2.5-1.4-3.1-.5"/><path d="M299.1 105.6c-8.8 7.1-14.8 18.3-16.4 29.7-.2 1.3-.3 2.6-.4 3.9-.3 5.3.5 10.5 2.3 15.5 1 3.1 2.8 5.8 5.1 8 2 1.7 4.3 3 6.9 3.7.4.1.7.2 1.1.4 2.1.8 3.8 1.9 6.1 2.6m23.8-70.3l-.1.1c-.9.8-1.9 1.4-2.9 1.9h-.2c-.1 0-.2.1-.3.1 0-.1-.1-.2-.1-.3s-.1-.2-.1-.3c-.3-1.1-.4-2.2-.2-3.2m2.9-24.9c-.6 1.7-2.7 3.2-3.3 4.9m20.8 23.2l.9 4.3m-33 11c-5.3 8.1-8.7 17.7-8.1 27.4s5.3 19.3 13.4 24.5c9.4 6 22.4 5.2 31.5-1.3s14.1-18 13.5-29.1c-.2-4-1.1-7.9-2.7-11.6-6.8-15.5-24.8-22.6-40.3-15.8-1.4.6-2.7 1.3-3.9 2.1-2.3 1.3-2.1 1.7-3.4 3.8zm56.6-5.3c0-.1.1-.2.2-.3.4-.3.8-.4 1.3-.2.7.1 1.2.8 1 1.5-.3.7-1 1.2-1.7 1.4-3.2 1.3-6.7 2.1-10.2 2.4m-74.7-44.1h-.1c-1.1.4-2.1-1.1-1.7-2.3.6-1.2 1.5-2.1 2.6-2.8 6.3-4.3 13.5-5 20.8-4.3 1.9.2 3.8-.4 5.7-.2 5.3.7 9.7 4.3 11.4 9.3m-.2 2.2c.8-1.9 2.8-3.1 4.7-3.7l8.8-2.5c4.2-1.2 8.6-2.4 12.7-1.2s7.4 4.7 6.9 8.8m19.3 7.3l2.7.3 3.3.4c4.9.6 10.3 1.1 14.3-1.7-5.8-2.7-12-5.4-18.2-5.2-.7 0-1.4.1-2 .2l-.5.1"/><path d="M375 76c-5.1-1-12.2 1.3-16.8 3.6l17.2 2.2m0-6c-.2-4.5.3-8.9 1.4-13.2l.6 13.2m-2 6c-.2 5.9.4 13.1.8 19.6l.3 6.3c.1 3.3-.6 21.8-.6 27.8m2.2-53.3c-.5 15.9.9 36.5.4 52.4m0 0c8.6 9.8 16.4 20.1 23.6 30.9.7 1 1.4 2.1 1.9 3.2 1.5 3.6 1.4 3.9 2.8 7.6l.1.4m-28.4-37.1c7.4 8.8 12.9 15.7 19.7 24.9 1.4 1.9 2.1 4.2 2.9 6.4.9 2.4 1.6 2.7 2.4 5.6m-27-36.9c-1.8 3-3.7 7.4-5.4 10.5m4.7-14.5c-3.5 7.1-11.1 20.8-14.3 28.4 0 .1-.1.2-.1.2 0 .1-.1.2-.1.3m10-14.8l-.3.6-5.6 11.1-.2.3m.3-.2c-2.6 5.5-4 7.2-5.3 13.2v.1"/><path d="M361.5 164.1c0 .1-.1.2-.1.2-1.8 3.7-2.8 6-3.3 10.1v.2m20.4-35c-.3 7.4-.3 17.8-.1 25.2-1.2-.9-3.2 0-4.2-1.2-.4-.7-.6-1.5-.5-2.3.5-7.3 1.4-14.6 2.7-21.8M323 75.2l-.1.9-3.3 22.4-.3 1.8M113 430.6c-.5 7.5 1.8 14.9 6.5 20.7 1.5 1.9 3.3 3.6 5.2 5.2 8.2 6.7 19.9 9.8 29.6 5.6 4.9-2.1 8.8-5.8 12.6-9.6 5.7-5.7 11.5-12.9 10.7-20.8 0-.4-.1-.8-.2-1.1m9.3 5.9c.1-1.4.1-2.8 0-4.3m-85.8-3.7v.5c.9 8.4 2.4 16.8 5.8 24.4 3.5 7.8 9.3 14.9 17 18.6 6.5 3.1 14.1 3.7 21.3 2.8 10.7-1.3 21.1-5.8 28.7-13.4 6.6-6.6 12.1-15.6 12.9-24.9"/><path d="M138.6 431.8l-8.4 1.2c-1.6.1-3.2.5-4.7 1.2s-2.6 2.1-2.8 3.8c0 1 .2 2 .7 2.9 1.6 3.7 3.5 7.3 5.9 10.6 2.9-3.2 5.5-6.7 7.6-10.4.7-1 1.2-2.1 1.4-3.2.2-1.3 2.9-5.5.3-6.1zm6.7 2.8c-1.1 5.2-1.4 12-2.5 17.2-.3.9-.3 2 .2 2.9.7 1.1 2.3 1.1 3.5.9 3.5-.5 6.8-1.6 9.9-3.3.6-.3 1-.7 1.4-1.2.3-1 .2-2-.3-2.9-2.3-5.2-9.7-14.2-11.8-13.6m3.9-3.3c3 3 6.3 5.7 9.9 8 1.6 1 3.7 1.9 5.4 1a5.1 5.1 0 0 0 1.9-2.2c1.2-2.4 1.6-5 1.4-7.6m-55-.7a24.19 24.19 0 0 1 4.8-17.4c3.8-4.9 8.9-8.7 14.8-10.8 3.4-1.3 7-2 10.6-2 3.9.2 7.8 1 11.4 2.5 6.4 2.4 12.1 6.3 16.5 11.5 4.3 5.2 6.8 11.4 6.2 18.2"/><path d="M101.4 428.7v-.2c-1.7-12.4 4.5-25.3 14.6-32.8s23.7-9.8 36.1-7.4a32.19 32.19 0 0 1 10 3.5c4.6 2.6 8.2 6.6 11.4 10.7 6.7 8.6 12.2 18.6 13.2 29.3.2 1.6.2 3.1.2 4.7v.1m-18.6-6.4c-.7-3-1.7-6.4-4.5-7.8-3.1-1.5-6.8.1-9.8 1.8-1.4.7-2.8 1.6-3.9 2.7-1.1 1.2-.8 2.8-.5 4.3m-22-17.3c-.1.1-.1.2-.2.3-2.3 3.3-3.9 7.1-4.7 11.1-.2 1-.2 2.3.7 2.8.6.2 1.2.3 1.8.1 4.3-.8 8.5-1.7 12.6-2.9.5-.1.9-.3 1.3-.7a1.92 1.92 0 0 0 .4-1.2c-.1-1.5-.8-3-1.8-4.1-1.2-1.7-2.6-3.2-4-4.7-.8-1.1-2-1.9-3.3-2.3-1.3-.3-3 .4-3.2 1.8m12.9-3.3l4.1 11.8c.1.4.3.7.6 1a1.39 1.39 0 0 0 1.1.2c4.6-.2 8.5-3.7 10.7-7.8a1.93 1.93 0 0 0 .3-1c-.2-.5-.5-.9-1-1.2-2.6-1.8-5.5-3.3-8.4-4.6-1.6-.9-3.5-1.3-5.3-1.1-1.9.3-2.3.8-2.1 2.7zm343.1 25c-.5 7.5 1.8 14.9 6.5 20.7 1.5 1.9 3.3 3.6 5.2 5.2 8.2 6.7 19.9 9.8 29.6 5.6 4.9-2.1 8.8-5.9 12.6-9.6 5.8-5.8 11.7-13.2 10.6-21.2 0-.2 0-.5-.1-.7m9.5 3.5c0-.6 0-1.3-.1-1.9m-85.8-3.7c.9 8.5 2.3 17.1 5.9 24.9s9.3 14.9 17 18.6c6.5 3.1 14 3.7 21.2 2.8 10.7-1.3 21.1-5.8 28.7-13.4 6.9-7 12.7-16.6 13-26.4m-48.1-3.2c-1.4-1.6-5.6.8-8.4 1.2-1.6.1-3.2.5-4.7 1.2s-2.6 2.1-2.8 3.8c0 1 .2 2 .7 2.9 1.6 3.7 3.5 7.3 5.9 10.6 3.1-3 5.3-6.8 7.6-10.4a18.47 18.47 0 0 0 2.1-4.5c.1-1.3 0-4.5-.4-4.8zm7 3.2c-1.9.9-1.7 11.5-2.7 16.7-.3.9-.3 2 .2 2.9.7 1.1 2.3 1.1 3.6.9 3.5-.5 6.8-1.6 9.9-3.3.6-.3 1-.7 1.4-1.2.3-1 .2-2-.3-2.9-2.6-5.1-8.5-14-12.1-13.1zm3.2-7.3c-1.8 3.8 6.9 7.7 10.8 10.1 1.6 1 4.3 2 6 1.1.9-.5 1.7-2.5 2.1-3.4 1.2-2.3 1-2.5.7-5m-55.5.1c-.8-6.1 1.3-13.3 5-18.3 3.8-4.9 8.9-8.7 14.8-10.8 3.4-1.3 7-2 10.6-2 3.9.2 7.8 1 11.4 2.5 6.4 2.4 12.1 6.3 16.5 11.5 4.2 4.9 6.5 11.3 6.2 17.7"/><path d="M471.3 434v-.3c-.7-5.3 0-10.7 2-15.7 2.6-6.8 7-12.8 12.8-17.2 4.2-3.1 9-5.3 14-6.7 4.8-1.3 9.8-1.8 14.8-1.6a44.14 44.14 0 0 1 7.3.9c.1 0 .3 0 .4.1 3 .6 6 1.6 8.8 3 .3.1.5.3.8.4 4.6 2.6 10.5 4.8 13.7 9l.4.6c7.2 9.4 11 21 10.7 32.8v.8m-18.4-4.7c-.7-3-1.7-6.4-4.5-7.8-3.1-1.5-6.8.1-9.8 1.8-1.4.8-4.9 1.7-5.1 3.3M497.8 419c-.1.1-.1.2-.2.3-2.3 3.3-3.9 7.1-4.7 11.1-.2 1-.2 2.3.7 2.8.6.3 1.2.3 1.8.1 4.3-.8 8.5-1.7 12.6-2.9.5-.1.9-.3 1.3-.7a1.92 1.92 0 0 0 .4-1.2c-.1-1.5-.8-3-1.8-4.1-1.2-1.7-2.6-3.2-4-4.7-.8-1.1-2-1.9-3.3-2.3-1.3-.3-2.9.4-3.2 1.8m12.9-4.1l4.1 11.8c.1.4.3.7.6 1a1.39 1.39 0 0 0 1.1.2c4.6-.2 8.5-3.7 10.7-7.8a1.93 1.93 0 0 0 .3-1c-.2-.5-.5-.9-1-1.2-2.6-1.8-5.5-3.3-8.4-4.6-1.6-.9-3.5-1.3-5.3-1.1-1.8.3-2.3.8-2.1 2.7zm4.9-143.2c5.5 4.7 11.4 8.9 17.6 12.7m-23.9-7.6a506.33 506.33 0 0 0 29.4 25.5"/></g></svg>