<?xml version="1.0" encoding="utf-8"?>
<!-- Generator: Adobe Illustrator 23.0.1, SVG Export Plug-In . SVG Version: 6.00 Build 0)  -->
<svg version="1.1" id="van" xmlns="http://www.w3.org/2000/svg" xmlns:xlink="http://www.w3.org/1999/xlink" x="0px" y="0px"
	 viewBox="0 0 668.8 499.4" style="enable-background:new 0 0 668.8 499.4;" xml:space="preserve">
<style type="text/css">
	.st0{fill:#F0785E;}
	.st1{fill:#FBC94A;}
	.st2{fill:#63BDC6;}
	.st3{fill:#EC3B33;}
	.st4{fill:#EADAC7;}
	.st5{fill:#FAA235;}
	.st6{fill:#C45188;}
	.st7{fill:#6D62D1;}
	.st8{fill:#4ACBB8;}
	.st9{fill:none;stroke:#F0785E;stroke-width:0.5;stroke-miterlimit:10;}
</style>
<path class="st0" d="M642.3,440.6c3.5,1.6,6.4,4.9,6.3,8.7c-0.1,3.4-2.5,6.2-4.8,8.8c-0.5,0.7-1.2,1.2-1.9,1.7
	c-1.4,0.8-3.1,0.5-4.7,0.4c-5.3-0.7-10.7-1-15.9,0.1c-2.4,0.7-4.9,1.2-7.4,1.5c-4.5,0.3-8.8-1.5-13.2-2.2s-8.8-0.3-13.3-0.2
	s-9-0.3-12.9-2.5l-0.3-0.2c-3.8-2.2-6.6-6.3-6.2-10.6s0.7-6.3,6.4-6.3l0.1-0.3l0.7,0.1c5.6-2.3,11.9-2.2,18-2l16.9,0.5l21.1,0.7
	c0.9,0,1.9,0.1,2.9,0.1C636.9,439,639.7,439.6,642.3,440.6L642.3,440.6z"/>
<path class="st1" d="M605.3,345.3c6,3,10.7,8.1,14.4,13.7c3.8,5.8,7.1,13.2,10.6,19.2c-2.4-1.4-5.1,0.3-6.3,1.7
	c-1.9,2.2-2.4,5.2-2.7,8c-0.8,6.6-0.9,13.3-0.3,20c0,1.7,0.5,3.3,1.3,4.7c1,1.3,3,2,4.3,1.1s1.4-2.6,1.6-4.3c1.6,0.2,3.2-1.7,4-3.4
	c1-2.1,1.9-4.3,2.5-6.5h0.9c1.3,8.4,3.7,20.8,4,29.5c-0.3,3.3-0.7,6.6-1.3,9.9L634,439c-1,0-1.9-0.1-2.9-0.1l-21.1-0.7v-0.9
	c0-2.5,0.4-5.1,1.1-7.5c1.7-0.2,3.1-1.4,3.5-3.1c0.5-2-0.1-4-0.7-6c-0.3-1-1.1-2.3-2.1-1.9c0.7-6.1,1.7-14,1.6-20.2
	c-0.1-8.2-1.7-16.3-3.3-24.3c-2-9.9-3.9-19.8-5.9-29.7C604.6,344.9,605,345.1,605.3,345.3L605.3,345.3z"/>
<path class="st0" d="M628.3,409.4c-0.3,0-0.5-0.1-0.7-0.3c-0.8-0.7-1.3-1.7-1.4-2.8c-1.3-8.4-0.5-17,2.2-25.1l0.8-0.6
	c1.9,0.9,3.5,2.4,4.5,4.2c1.4,2.3,2.1,4.9,2.2,7.5c0,2.4-0.4,4.8-1.1,7.2c-0.7,2.2-1.5,4.4-2.5,6.5
	C631.5,407.7,629.9,409.6,628.3,409.4L628.3,409.4z"/>
<path class="st0" d="M624,379.9c1.2-1.4,3.9-3.1,6.3-1.7c1.4,0.8,2.7,2.8,3.4,6.6c-1.1-1.8-2.7-3.3-4.5-4.2l-0.8,0.6
	c-2.7,8.1-3.5,16.7-2.2,25.1c0,1.1,0.5,2.1,1.4,2.8c0.2,0.1,0.5,0.2,0.7,0.3c-0.2,1.7-0.3,3.4-1.6,4.3s-3.3,0.2-4.3-1.1
	c-0.9-1.4-1.3-3-1.3-4.7c-0.6-6.7-0.5-13.4,0.3-20C621.6,385,622.2,382,624,379.9L624,379.9z"/>
<path class="st0" d="M611.9,418.9c1-0.4,1.8,0.9,2.1,1.9c0.6,2,1.2,4,0.7,6c-0.4,1.6-1.8,2.9-3.5,3.1c0.1-0.1,0.1-0.3,0.1-0.4
	c-0.1-2.8-0.2-5.7-0.2-8.5c0-0.6,0.1-1.1,0.3-1.6C611.5,419.1,611.7,419,611.9,418.9L611.9,418.9z"/>
<path class="st2" d="M613.2,312.2l-0.3,0.2l-10.9,1.7c-0.9,0.1-0.9,0.5-1.8,0.3c-2-0.5-3.3-2.6-4.2-4.4c-7-13.3-13.3-26.2-20.3-39.5
	c-1.5-2.9-4.4-6.5-4.3-9.7c2-0.3,8.6-0.5,10.6-0.8c1.7,8.9,6.9,16.8,12,24.4C600.4,293.6,606.8,302.9,613.2,312.2z"/>
<path class="st3" d="M611.3,429.4c0,0.1-0.1,0.2-0.1,0.4c-0.3,0-0.7,0-1-0.2c-2-0.8-2.4-3.4-2.4-5.5c-0.2-1.4,0.1-2.9,0.8-4.1
	c0.7-0.9,1.8-1.2,2.9-0.8c-0.2,0.5-0.4,1.1-0.3,1.6C611.2,423.8,611.3,426.6,611.3,429.4z"/>
<path class="st0" d="M604.8,331.4c1.2,2.2,0.4,5.1-1.8,6.3l-0.1,0.1c-1-1.4-1.7-3-1.9-4.7c-0.2-1.1-0.1-2.3,0.2-3.4
	C601.9,329.4,604.2,330.8,604.8,331.4z"/>
<path class="st4" d="M597.3,319.7c1.6,4.3,2.8,8.8,3.5,13.4h0.1c0.2,1.7,0.9,3.3,1.9,4.7c0.5,2.3,0.9,4.6,1.4,6.9
	c-16.6-9.3-41.5-12.9-60.3-13.2c-30.1-0.6-65.1-2.9-95.2-3.5c0-0.1,0-0.3,0-0.4c-0.2-3.3-0.4-6.6-0.6-9.9l0.7-0.1
	c10,0.6,75.5-0.3,119.2,0.8C579.8,318.7,590.1,319.1,597.3,319.7L597.3,319.7z"/>
<path class="st2" d="M586.1,309.2c0.5,1.7-0.1,3.6-1.6,4.6c-0.9,0.5-5.9,0.4-6.9,0.5c-4.7,0.3-3,0.5-7.7,0.8c-0.8,0-1.3,0.1-1.8,0.1
	c-1,0-1.9-0.3-2.7-0.9c-1.4-1.1-2.4-2.6-3.1-4.2c-4.8-9.9-9.5-19.8-14.3-29.7c-2-4.3-4.1-8.8-4.4-13.5c-0.1-0.6,0.1-1.2,0.4-1.7
	c0.4-0.5-0.4-0.7,0.3-0.7c4.3,0,10.5-0.7,15.6-1c1.2-0.1,2.2-0.1,3.2-0.1c6,14.4,11.3,28.5,20.4,41.2
	C584.8,306,585.6,307.5,586.1,309.2L586.1,309.2z"/>
<path class="st4" d="M597.3,319.7c-3.1-8.4-7.2-16.4-12.1-23.8c-7.3-11.4-11.5-25.2-18.7-36.6v-0.8c5.1-0.2,10.2-0.5,15.3-0.9v0.3
	c0.1,0.7,0.2,1.4,0.3,2.1c-2,0.3-8.6,0.5-10.6,0.8c-0.1,3.3,2.8,6.8,4.3,9.7c7,13.3,13.3,26.2,20.3,39.5c1,1.8,2.2,4,4.2,4.4
	c0.9,0.2,0.9-0.1,1.8-0.3l10.9-1.7l0.3-0.2c1,1.5,2,2.9,3.1,4.4c16.9,33,26.9,75,23.4,112.5c-0.3-8.6-2.7-21.1-4-29.5h-0.9
	c0.7-2.3,1.1-4.7,1.1-7.2c-0.1-2.7-0.8-5.3-2.2-7.5c-0.7-3.8-2-5.8-3.4-6.6c-3.5-6-6.7-13.4-10.6-19.2c-3.7-5.6-8.4-10.7-14.4-13.7
	c-0.4-0.2-0.8-0.4-1.1-0.6c-0.4-2.3-0.9-4.6-1.4-6.9c2.3-1.2,3.2-4,2-6.2l-0.1-0.1c-0.6-0.5-2.9-1.9-3.7-1.7
	c-0.3,1.1-0.4,2.3-0.2,3.4h-0.1C600.1,328.6,598.9,324.1,597.3,319.7L597.3,319.7z"/>
<path class="st1" d="M554.8,422.8c4,7.9,11.3,15.3,19.8,16.7l-0.1,0.3c-5.8,0.1-6,1.9-6.4,6.3s2.4,8.4,6.2,10.6l-0.2,0.3
	c-0.5,1.4-1.4,1.8-2.8,1.3c-1.4-0.6-2.6-1.7-3.3-3.1l-10.7-15.9h-0.1C557.2,433.7,556.5,428.1,554.8,422.8L554.8,422.8z"/>
<path class="st4" d="M597.3,319.7c-7.2-0.6-17.4-1-29.3-1.3l0.1-3.2c0.5,0,1.1,0,1.8-0.1c4.7-0.3,3-0.5,7.7-0.8
	c1-0.1,6.1,0.1,6.9-0.5c1.4-1.1,2-2.9,1.6-4.6c-0.5-1.7-1.4-3.2-2.5-4.6c-9.1-12.7-14.4-26.8-20.4-41.2c-1,0-2.1,0-3.2,0.1l-0.1-4.9
	c2.2-0.1,4.4-0.2,6.6-0.3v0.8c7.2,11.5,11.4,25.2,18.7,36.6C590.1,303.3,594.1,311.3,597.3,319.7L597.3,319.7z"/>
<path class="st2" d="M542.5,277.9c5.9,11.8,11.6,23.7,17,35.7l-0.3,0.1c-0.1,0-11.7-0.6-11.8-0.6c-7.7,1.3-10.3,1.3-22.2,1
	c-5.1-0.1-16.1,0.3-21.6-0.2c-0.3-15.8-3-33.7-4.2-49.4c7.6-1,15.2-1.3,22.8-0.8c4.3,0.3,8.8,1,12.4,3.5S540.6,274,542.5,277.9
	L542.5,277.9z"/>
<path class="st2" d="M537.1,457.7c5.8-5.8,11.7-13.2,10.6-21.2c0.3-6.5-2-12.8-6.2-17.7c-4.4-5.2-10.1-9.2-16.6-11.6
	c-3.6-1.5-7.5-2.4-11.4-2.5c-3.6,0-7.2,0.7-10.6,2c-5.8,2.1-11,5.9-14.8,10.8c-3.7,5-5.8,12.2-5,18.3c-0.5,7.5,1.8,14.9,6.5,20.7
	c1.5,1.9,3.3,3.6,5.2,5.2c8.2,6.7,19.9,9.8,29.6,5.6C529.4,465.2,533.4,461.4,537.1,457.7L537.1,457.7z M471.3,433.7
	c-0.7-5.3,0-10.7,2-15.7c2.6-6.8,7-12.8,12.8-17.2c4.2-3.1,9-5.3,14-6.7c4.8-0.6,9.7-1.2,14.8-1.6c2.5,0.1,4.9,0.4,7.3,0.9
	c0.1,0,0.3,0,0.4,0.1c2.9,0.8,6,1.9,8.8,3c0.3,0.1,0.5,0.3,0.8,0.4c4.6,2.6,10.5,4.8,13.7,9l0.4,0.6c3.1,4.3,5.4,9.6,7.5,14.5
	c0.3,0.6,0.6,1.3,0.9,1.9c1.7,5.3,2.4,10.9,2.3,16.5v0.8c-0.3,9.8-6.1,19.4-13,26.4c-7.6,7.6-18,12.2-28.7,13.4
	c-7.2,0.9-14.7,0.3-21.2-2.8c-7.7-3.7-13.5-10.8-17-18.6S472.2,442.2,471.3,433.7L471.3,433.7z"/>
<path class="st5" d="M538.6,435.4l0.1,0.2c0.2,2.6,0.4,2.7-0.7,5c-0.4,0.9-1.2,3-2.1,3.4c-1.7,0.9-4.4-0.1-6-1.1
	c-3.9-2.4-12.6-6.3-10.8-10.1v-0.2c0.2-1.6,3.7-2.6,5.1-3.3c3.1-1.7,6.7-3.4,9.8-1.8C536.9,429,537.9,432.4,538.6,435.4L538.6,435.4
	z"/>
<path class="st5" d="M527.8,453.4c0.5,0.9,0.7,1.9,0.3,2.9c-0.3,0.5-0.8,0.9-1.4,1.2c-3.1,1.7-6.4,2.8-9.9,3.3
	c-1.3,0.2-2.8,0.1-3.6-0.9c-0.4-0.9-0.5-1.9-0.2-2.9c1.1-5.2,0.9-15.8,2.7-16.7C519.5,439.3,525.4,448.2,527.8,453.4L527.8,453.4z"
	/>
<path class="st5" d="M526.1,418.1c0.5,0.2,0.8,0.6,1,1.2c0,0.4-0.1,0.7-0.3,1c-2.2,4-6.1,7.5-10.7,7.8c-0.4,0.1-0.8,0-1.1-0.2
	c-0.3-0.3-0.5-0.6-0.6-1l-4.1-11.8c-0.2-1.8,0.3-2.4,2.1-2.7c1.9-0.1,3.7,0.2,5.3,1.1C520.7,414.7,523.5,416.3,526.1,418.1
	L526.1,418.1z"/>
<path class="st4" d="M524.2,429.4c-1.4,0.8-4.9,1.7-5.1,3.3v0.2c-1.8,3.8,6.9,7.7,10.8,10.1c1.6,1,4.3,2,6,1.1
	c0.9-0.5,1.7-2.5,2.1-3.4c1.2-2.3,1-2.5,0.7-5l-0.1-0.2c-0.7-3-1.7-6.4-4.5-7.8C531,426.1,527.3,427.8,524.2,429.4L524.2,429.4z
	 M527.8,453.4c-2.4-5.2-8.3-14.1-11.9-13.1c-1.9,0.9-1.7,11.5-2.7,16.7c-0.3,0.9-0.3,2,0.2,2.9c0.7,1.1,2.3,1.1,3.6,0.9
	c3.5-0.5,6.8-1.6,9.9-3.3c0.6-0.3,1-0.7,1.4-1.2C528.5,455.3,528.3,454.2,527.8,453.4z M510.3,415.1l4.1,11.8c0.1,0.4,0.3,0.7,0.6,1
	c0.3,0.2,0.7,0.3,1.1,0.2c4.6-0.2,8.5-3.7,10.7-7.8c0.2-0.3,0.3-0.7,0.3-1c-0.2-0.5-0.5-0.9-1-1.2c-2.6-1.8-5.5-3.3-8.4-4.6
	c-1.6-0.9-3.5-1.3-5.3-1.1C510.6,412.7,510.1,413.2,510.3,415.1L510.3,415.1z M509.7,428.6c-0.1-1.5-0.8-3-1.8-4.1
	c-1.2-1.7-2.6-3.2-4-4.7c-0.8-1.1-2-1.9-3.3-2.3c-1.3-0.3-2.9,0.4-3.2,1.8l0.1,0.1c-2.3,3.3-3.9,7.1-4.7,11.1
	c-0.2,1-0.2,2.3,0.7,2.8c0.6,0.3,1.2,0.3,1.8,0.1c4.3-0.8,8.5-1.7,12.6-2.9c0.5-0.1,0.9-0.3,1.3-0.7
	C509.6,429.5,509.7,429.1,509.7,428.6L509.7,428.6z M547.7,436.5c1.1,8-4.9,15.4-10.6,21.2c-3.7,3.8-7.7,7.5-12.6,9.6
	c-9.7,4.2-21.4,1.1-29.6-5.6c-1.9-1.5-3.7-3.3-5.2-5.2c-4.7-5.9-7-13.2-6.5-20.7c-0.8-6.1,1.3-13.3,5-18.3
	c3.8-4.9,8.9-8.7,14.8-10.8c3.4-1.3,7-2,10.6-2c3.9,0.2,7.8,1,11.4,2.5c6.4,2.4,12.1,6.3,16.5,11.5C545.7,423.7,548,430,547.7,436.5
	L547.7,436.5z M509.2,441.7c0.2-1.2,0-4.4-0.4-4.7c-1.4-1.6-5.6,0.8-8.4,1.2c-1.6,0.1-3.2,0.5-4.7,1.2s-2.6,2.1-2.8,3.8
	c0,1,0.2,2,0.7,2.9c1.6,3.7,3.5,7.3,5.9,10.6c3.1-3,5.3-6.8,7.6-10.4C508,444.8,508.7,443.3,509.2,441.7L509.2,441.7z"/>
<path class="st5" d="M508.9,437c0.4,0.3,0.5,3.5,0.4,4.7c-0.5,1.6-1.2,3.1-2.1,4.5c-2.2,3.7-4.5,7.4-7.6,10.4
	c-2.4-3.3-4.3-6.8-5.9-10.6c-0.4-0.9-0.7-1.9-0.7-2.9c0.2-1.7,1.3-3.1,2.8-3.8s3.1-1.1,4.7-1.2C503.3,437.8,507.5,435.4,508.9,437
	L508.9,437z"/>
<path class="st5" d="M497.6,419.4l-0.1-0.1c0.2-1.3,1.8-2,3.2-1.8c1.3,0.4,2.4,1.2,3.3,2.3c1.4,1.5,2.8,3.1,4,4.7
	c1,1.1,1.7,2.6,1.8,4.1c0,0.4-0.1,0.9-0.4,1.2c-0.4,0.3-0.8,0.6-1.3,0.7c-4.2,1.2-8.4,2.1-12.6,2.9c-0.6,0.2-1.2,0.1-1.8-0.1
	c-0.9-0.5-0.9-1.8-0.7-2.8C493.7,426.5,495.3,422.7,497.6,419.4L497.6,419.4z"/>
<path class="st2" d="M460.2,313.3c-0.6,0-0.9-32-2.6-48.7l1.6-0.9c10.5,1.4,21.2,1.6,31.8,0.8h5.1c1.3,16.1,2.1,33.7,2,49.8
	c-6.9-0.5-33.8,1-38-0.9L460.2,313.3z"/>
<path class="st3" d="M472,348.7c1.1,0.4,1.3,0.9,1.4,3c0.1,1.3-0.3,2.6-1.1,3.6c-1.3,1.6-3.4,2.5-5.5,2.3c-2.2-0.2-4.3-0.9-6.5-1
	c-1.7-0.1-3.3-0.6-4.9-1.3c-2.1-1-1.5-5.4,0.5-6.6s4.8,1,6,3c1.5-1.3,3.2-2.4,5-3.2C468.5,347.9,470.4,347.9,472,348.7z"/>
<path class="st4" d="M149.9,229.3c3.6-1.3,6.5,0.1,10.3,0.8c-1.3,2.4,0.3,5.5,2.7,6.8s5.2,1.3,7.9,1.3h16.6l48.2-0.2
	c15.1,0,30.2,0,45.3-0.1c6.2,0,12.5-0.1,18.7-0.1c19.1,0,38.2-0.1,57.4-0.2h11.7c8.7,0,17.4,0,26.1,0.6c4.5,0.3,9.1,0.8,13.7,1.2
	c9.4,0.8,18.8,1.2,27.8-1.3l0.5-0.5c0-2.3,0.1-4.6,0.1-6.9c0.7,0,1.3-0.1,2-0.1h0.1h1.6c5.5-0.1,10.9-0.1,16.4-0.2
	c0.5,0,1,0,1.5-0.1c1.4,0,2.8,0.1,4.2,0.2v0.1c28.8,2.8,56.4,5.2,85.2,7.9c6.7,0.7,13.6,1.3,19.9,3.8c7.7,3,14.2,8.4,19.7,14.5
	l-0.3,0.3l-5.4,0.4c-5.1,0.4-10.2,0.7-15.3,0.9c-2.2,0.1-4.4,0.2-6.6,0.3c-18.6,0.7-37.3,0.1-55.8-1.6c-45.1,0.5-90.6,0-136.2-0.8
	c-19.3-0.3-38.6-0.7-57.9-1.1c-75.2-1.5-150.5-2.9-224.8-0.6c-7.1,0.2-14.3,0.5-21.4,0.8c7.1-7.8,15.7-14,25.7-17.3
	c6.3-2.1,13-2.9,19.6-3.7C122.6,232.6,136.3,230.9,149.9,229.3L149.9,229.3z"/>
<path class="st1" d="M455.9,348.7c-2,1.2-2.7,5.5-0.5,6.6c1.5,0.7,3.2,1.2,4.9,1.3c2.2,0.1,4.3,0.8,6.5,1c2.1,0.2,4.2-0.6,5.5-2.3
	c0.8-1,1.2-2.3,1.1-3.6c-0.1-2.1-0.3-2.6-1.4-3c-1.6-0.7-3.4-0.8-5-0.2c-1.8,0.8-3.5,1.9-5,3.2C460.7,349.7,457.9,347.5,455.9,348.7
	z M451.5,397.3c-0.2-23.2-1.4-46.4-2.8-69.3c30.1,0.6,65.1,2.9,95.2,3.5c18.9,0.4,43.7,3.9,60.3,13.2c2,9.9,4,19.8,5.9,29.7
	c1.6,8,3.2,16.1,3.3,24.3c0.1,6.1-0.8,14.1-1.6,20.2c-0.2,0.1-0.4,0.2-0.5,0.4c-1-0.4-2.2-0.1-2.9,0.8c-0.7,1.2-1,2.7-0.8,4.1
	c0.1,2.1,0.4,4.7,2.4,5.5c0.3,0.1,0.7,0.2,1,0.2c-0.7,2.4-1.1,4.9-1.1,7.5v0.9l-16.8-0.5c-6.1-0.2-12.4-0.3-18,2l-0.7-0.1
	c-8.5-1.5-15.7-8.8-19.8-16.7c-1.8-5.9-4.7-11.4-8.4-16.3l-0.4-0.6c-2.2-3.2-5.3-5.6-8.9-7.1c-1.5-0.6-3.4-1.4-5.6-2.2
	c-2.8-1.4-5.7-2.4-8.8-3c-2.3-0.7-4.7-1-7.2-1H515c-5-0.2-10,0.3-14.8,1.6c-16.1,2-31.3,4.3-48.4,3.1L451.5,397.3z"/>
<path class="st6" d="M458.4,230.3c-6.5-0.2-13-0.1-19.6,0.3h-0.1c-0.9,0-1.8-0.3-2.6-0.8c-1.2-0.9-1.9-2.6-0.7-3.4
	c1.2-0.5,2.4-0.8,3.7-1.1c4.2-1.3,8.9,0.9,13.2,1.8c2.5,0.5,5.1,1.1,7.1,2.8C459.2,230,458.8,230.2,458.4,230.3z"/>
<path class="st1" d="M451.6,448c-0.5,1.3-1,2.5-1.7,3.7l-0.5-0.3c1.6-17.9,2.2-36,2.1-54.2h0.2c17.1,1.2,32.2-1.1,48.4-3.1
	c-5,1.3-9.7,3.6-13.9,6.6c-5.8,4.4-10.3,10.4-12.9,17.2h-0.1C463.3,425.5,456.3,436.4,451.6,448L451.6,448z"/>
<path class="st4" d="M82.3,326l-36.6-0.2c-2.4,0-5.1-0.1-6.8-1.9c-1.3-1.4-1.6-3.4-0.9-5.1c0.6-2,2.1-3.6,4-4.5
	c3.7-1.5,7.7-1.8,11.6-0.8c8.5,0.3,19.1,0.6,31.2,0.9c69.8,1.6,189.8,2.2,238.5,2.7c11,0.1,18.3,0.2,20.6,0.4
	c25.3,1.2,54.2,0.1,79.2-0.5c7.1-0.2,13.9-0.3,20.2-0.4l4.8,0.6v0.5c0.2,3.3,0.4,6.6,0.6,9.9l-1.3,0.1c-45.8-0.2-91.5-0.4-137.3-0.6
	l-124-0.6C151.4,326.3,116.9,326.1,82.3,326L82.3,326z"/>
<path class="st6" d="M448.6,225.2c-0.3-2.4,0-3.8-0.4-6.3c-0.6,0-2-0.5-2.4,0c-0.4-30.9-0.8-62.4-1.2-93.3l1.1,1.4
	c0.3,0.3,0.5,0.6,0.8,1l-0.1,0.1C447.5,160,448.3,193.2,448.6,225.2L448.6,225.2z"/>
<path class="st5" d="M442.9,116.6c2.6,5,5.5,9.8,8.9,14.3c-0.5,1.4-2.7,0.5-3.4-0.7s-1.6-2.3-2.6-3.2h-0.1l-1.1-1.4l-3.9-4.7
	l-0.2-0.5c1.2-0.4,2.1-1.5,2.2-2.8c0-0.3,0-0.7-0.1-1H442.9z"/>
<path class="st1" d="M442.6,116.6c0.1,0.3,0.1,0.7,0.1,1c-0.1,1.3-1,2.4-2.2,2.8c-0.4,0.2-0.9,0.2-1.4,0.2c-1.7-0.4-2.8-2.1-2.4-3.8
	c0-0.1,0-0.1,0-0.2c0.6-1.6,2.7-2.8,4.2-1.9C441.8,115.1,442.4,115.8,442.6,116.6L442.6,116.6z"/>
<path class="st2" d="M435,302.8c0.1,4,0.9,8.4-2.5,10.7c-1.2,0.8-5.6,1.2-9.5,1.3c-2.7,0.1-5.1,0.1-6.1,0.1
	c-10.5,0-13.7,0.5-24.3,0.5c-9.6,0-19.3,0.1-28.7-2c-1.2-0.1-2.3-0.7-3.1-1.5c-0.5-0.9-0.8-1.9-0.7-2.9c-0.6-14.8,0.2-29.5,2.4-44.1
	c0.1-1.2,0.5-2.3,1.3-3.2c1-0.9,2.4-0.9,3.8-0.8c20.8,0.7,34.8,0.6,55.5,1.3c4.1-0.1,7.8,1.7,9.5,4.5s1.9,4.6,2,7.9
	C434.7,284,434.9,293.4,435,302.8L435,302.8z"/>
<path class="st3" d="M404.2,403.2c0.2,1.2-0.6,2.4-1.8,2.7c-0.2,0-0.3,0-0.5,0c-1.1-0.2-1.9-1.3-1.7-2.4c0-0.3,0.1-0.5,0.3-0.7
	c0.3-0.7,1-1.1,1.7-1.1C403.5,401,403.9,401.8,404.2,403.2z"/>
<path class="st7" d="M403.6,176.5c1-0.1,2.1-0.2,3.1-0.2c2.4-0.2,4.9,0.3,7,1.6c2.3,1.8,3.7,4.4,3.8,7.3c0.2,2.8-0.1,5.7-0.8,8.5
	c-2.8,14.9-5.6,29.8-8.4,44.7l-0.1,1c-4.6-0.4-9.2-0.9-13.7-1.2c-8.7-0.6-17.4-0.6-26.1-0.6c-3.9,0-7.8,0-11.7,0v-0.2
	c1.8-7.1,4.3-16.7,6.2-24c0.1-0.3,0.1-0.5,0.2-0.8c0.4-1.5,0.8-2.9,1.1-4.3c2.1-7.5,3.4-15.1,4.1-22.8c0.2-3.5-0.1-7.6-3.1-9.5
	c-1.2-0.7-2.6-1.1-4.1-1.2C375.5,175.3,389.6,175.9,403.6,176.5z M398.9,208.4c3.5-5.9,3.7-13.2,0.4-19.2c-1.8-3.2-4.8-6-8.4-6.6
	c-4.6-0.7-8.4,1.2-12.2,4c-4.9,4.2-5.6,11.4-6,17.8c-0.2,3.1-0.3,6.5,1.6,9.1c1.7,2.3,4.6,3.4,7.5,3.6
	C388.7,217.5,395.2,214.2,398.9,208.4L398.9,208.4z M400.4,225.6c0.9-1.9-0.3-4-2.3-3.6c-1.2,0-3.2,1.5-2.6,3.4
	S399.5,227.5,400.4,225.6L400.4,225.6z M370.9,225.9c0.8-1.4,0.6-3-1.8-3.3c-0.9,0.1-1.6,0.5-2.1,1.2c-0.5,1.1-0.6,2.4-0.3,3.6
	C368.2,227.8,369.9,227.3,370.9,225.9L370.9,225.9z"/>
<path class="st3" d="M398,221.9c2.1-0.3,3.2,1.7,2.3,3.6s-4.2,1.8-4.9-0.2S396.8,221.9,398,221.9L398,221.9z"/>
<path class="st4" d="M498.1,314.3c0-16.1-0.7-33.8-2-49.8H491c-10.6,0.8-21.2,0.6-31.8-0.8l-1.6,0.9c1.7,16.7,2,48.7,2.6,48.7
	l-0.1,0.1C464.3,315.4,491.2,313.8,498.1,314.3L498.1,314.3z M568,318.4c-43.8-1-109.2-0.2-119.2-0.8l-0.7,0.1c0-0.2,0-0.3,0-0.5
	l-4.8-0.6c-6.3,0-13.1,0.2-20.2,0.4v-2.1c3.9-0.2,8.3-0.5,9.5-1.3c3.3-2.3,2.5-6.7,2.5-10.7c-0.1-9.4-0.2-18.8-0.4-28.2
	c0-3.3-0.3-5.1-2-7.9s-5.4-4.6-9.5-4.5c-20.8-0.7-34.8-0.6-55.5-1.3l0.1-4.6c45.6,0.8,91.1,1.4,136.2,0.8
	c18.6,1.7,37.2,2.2,55.8,1.6l0.1,4.9c-5,0.3-11.3,1-15.6,1c-0.7,0,0.1,0.2-0.3,0.7c-0.3,0.5-0.5,1.1-0.4,1.7
	c0.3,4.8,2.3,9.2,4.4,13.5c4.7,9.9,9.5,19.8,14.3,29.7c0.6,1.7,1.7,3.1,3.1,4.2c0.8,0.6,1.7,0.9,2.7,0.9L568,318.4z M559.3,313.7
	l0.3-0.1c-5.4-12-11.1-23.9-17-35.7c-2-4-4.2-8.1-7.8-10.7s-8.1-3.2-12.4-3.5c-7.6-0.5-15.3-0.3-22.8,0.8
	c1.3,15.7,3.9,33.6,4.2,49.4c5.5,0.5,16.4,0.1,21.6,0.2c11.8,0.3,14.5,0.3,22.2-1C547.6,313.2,559.2,313.8,559.3,313.7L559.3,313.7z
	"/>
<path class="st3" d="M394.8,374.3c0.8,2.5,1.6,5.5,0.1,7.6c-1,1.2-2.4,2.1-4,2.3c-4.5,0.9-9-0.7-13.5-1.6c-1.5-0.4-3.1-0.5-4.6-0.2
	c-3.4,1-5.3,4.6-4.2,7.9c0.1,0.2,0.1,0.4,0.2,0.6h0.3c1.8,3.4,5.4,8.8,5.5,12.7s-1.4,8-4.6,10.1c-1.5,1-3.9,2.8-5.6,2.2
	c-2.6-0.9-3.3-5.1-4.2-7.6c-5-14.9-9.6-29.9-13.7-45.1c-1.4-5.2-2.7-10.4-2.3-15.8c10.7-6.7,22.9-10.9,35.6-12
	c2.5-0.3,5.1-0.2,7.6,0.5c5.7,1.9,8.7,8,6.8,13.7c-0.9,2.6-2.7,4.8-5.2,6.1c-2,1-4.2,1.6-6.4,1.8c-5.8,0.8-11.7,1-17.5,0.6
	c-1.1,3.8-0.8,7.8,0.8,11.5c0.2,0.5,0.5,1,1,1.4c0.6,0.3,1.3,0.3,2,0.2l16.2-2.3c2.6-0.4,6.6-1.6,8.5,0.2
	C394.7,370.2,394.3,372.8,394.8,374.3L394.8,374.3z"/>
<path class="st6" d="M389.7,196.4c0.9,0.6,1.4,1.6,1.3,2.7c0,1.3-0.6,2.5-1.7,3.2c-1.2,0.7-2.6,0.3-3.4-0.8
	c-0.7-1.1-0.4-3.3,0.6-3.8C386.7,196.8,388.7,195.9,389.7,196.4L389.7,196.4z"/>
<path class="st3" d="M392,212.4c-3.2,2.1-7.2,1.5-11,1.3c-1.1-0.1-5.8-4.5-6-7.4c-0.3-4.7-0.3-9.3,2-13.5s6.6-7,11.1-7h0.6
	c4.6,0,8.4,4.4,9.9,8.8s0.2,9.1-2,13.1C395.4,209.7,393.8,211.3,392,212.4L392,212.4z M391,199.1c0.1-1.1-0.4-2.1-1.3-2.7
	c-0.9-0.5-2.9,0.4-3.2,1.4c-1,0.5-1.2,2.7-0.6,3.8c0.8,1.1,2.2,1.4,3.4,0.8C390.4,201.7,391,200.5,391,199.1z"/>
<path class="st1" d="M378.1,82.2c-0.9-0.1-1.8-0.2-2.7-0.3l-17.3-2.2c4.6-2.4,11.8-4.6,16.8-3.6l0.4-0.1c0.7-0.1,1.4-0.1,2-0.2
	c6.3-0.2,12.4,2.5,18.2,5.2c-4,2.8-9.4,2.3-14.3,1.7L378.1,82.2z"/>
<path class="st1" d="M375.4,75.8c-0.2-4.5,0.3-8.9,1.4-13.2c0.2,4.9,0.4,8.3,0.6,13.2c-0.7,0-1.4,0.1-2,0.2V75.8z"/>
<path class="st6" d="M377,192.9c-2.4,4.1-2.3,8.8-2,13.5c0.2,2.9,4.9,7.3,6,7.4c3.9,0.3,7.8,0.8,11-1.3c1.9-1.2,3.4-2.8,4.6-4.7
	c2.2-4,3.5-8.8,2-13.1s-5.3-8.8-9.9-8.8h-0.6C383.5,185.9,379.3,188.9,377,192.9L377,192.9z M381.8,217c-2.8-0.2-5.8-1.3-7.5-3.6
	c-1.8-2.5-1.8-5.9-1.6-9.1c0.3-6.4,1-13.6,6-17.8c3.8-2.8,7.5-4.7,12.2-4c3.7,0.6,6.6,3.4,8.4,6.6c3.3,6,3.1,13.3-0.4,19.2
	C395.3,214.1,388.7,217.5,381.8,217L381.8,217z"/>
<path class="st3" d="M370.9,225.9c-0.9,1.4-2.6,1.9-4.2,1.5c-0.4-1.2-0.3-2.5,0.3-3.6c0.5-0.7,1.3-1.2,2.1-1.2
	C371.5,222.9,371.7,224.5,370.9,225.9L370.9,225.9z"/>
<path class="st1" d="M362.2,137.4c0.6,11.1-4.4,22.6-13.5,29.1s-22.1,7.3-31.5,1.3c-8.2-5.2-12.9-14.8-13.4-24.5s2.8-19.3,8.1-27.4
	c1.3-2.1,1.1-2.5,3.3-3.9c14.3-8.9,33.2-4.6,42.2,9.8c0.8,1.3,1.5,2.6,2.1,3.9C361.1,129.4,362,133.4,362.2,137.4L362.2,137.4z"/>
<path class="st6" d="M378.5,134.6c8.6,9.8,16.4,20.1,23.6,30.9c0.7,1,1.4,2.1,1.9,3.2c1.5,3.6,1.4,3.9,2.8,7.6
	c-1.1,0-2.1,0.1-3.1,0.2c-0.8-2.9-1.5-3.2-2.4-5.6c-0.9-2.2-1.5-4.5-2.9-6.4c-6.8-9.2-12.3-16.1-19.7-24.9
	c-0.3,7.4-0.3,17.8-0.1,25.2c-1.2-0.9-3.2,0-4.2-1.2c-0.4-0.7-0.6-1.5-0.5-2.3c0.5-7.3,1.4-14.6,2.7-21.8c-1.8,3-3.7,7.4-5.4,10.5
	l-0.1,0.2c-1.9,3.7-3.7,7.4-5.6,11.1l0.1,0.1c-2.6,5.5-4,7.2-5.3,13.2c-0.7-0.1-1.4-0.2-2.1-0.2c0.5-4.1,1.5-6.4,3.3-10.1
	c0-0.1,0.1-0.2,0.1-0.2c3.2-7.6,10.8-21.4,14.3-28.4c0-6.1,0.7-24.5,0.6-27.8c-0.1-2-0.2-4.1-0.3-6.3c-0.4-6.5-1-13.8-0.8-19.6
	c0.9,0.1,1.8,0.2,2.7,0.3C377.7,98.2,379,118.7,378.5,134.6z"/>
<path class="st7" d="M361.4,164.3c0-0.1,0.1-0.2,0.1-0.2C361.4,164.2,361.4,164.2,361.4,164.3z"/>
<path class="st7" d="M358.1,174.6c0.7,0,1.4,0,2.1,0.1h1.2c1.4,0.1,2.8,0.5,4.1,1.2c2.9,1.9,3.3,6,3.1,9.5c-0.7,7.7-2,15.3-4.1,22.8
	l-0.4-0.1h-7.4c1.2-6.5,2.3-12,3.5-18.5c0.6-2.6,0.9-5.3,0.6-7.9c-0.4-2.6-1.6-6-3.9-7.1H358.1z"/>
<path class="st1" d="M369.4,113.2c-3.2,1.3-6.7,2.1-10.2,2.4l-0.3,0.2c-0.8-1-1.7-2-2.7-2.9l0.3-0.3c1.9,0.4,3.8,0.1,5.5-0.6v-0.1
	c2.2-0.5,4.4-1,6.6-1.3l1.3-0.2c0.7,0.1,1.2,0.8,1,1.5C370.7,112.5,370.1,113,369.4,113.2L369.4,113.2z"/>
<path class="st6" d="M351,174.4l5.8,0.2c2.3,1.2,3.6,4.5,3.9,7.1c0.2,2.7,0,5.3-0.6,7.9c-1.2,6.5-2.3,12.1-3.5,18.5
	c-2.4,0-4.8,0-7.1,0v-0.3c1.4-5.4,2.8-12.1,4.2-17.5c0.9-2.6,1.2-5.4,1.1-8.2C354.6,179.5,353.3,175.7,351,174.4z"/>
<path class="st1" d="M353.2,71.9c1.3,0.2,2.3,1.1,2.6,2.4c0,0.1,0.1,0.2,0.1,0.4c0.2,1.1,0.1,2.2-0.1,3.3c-0.1,0.6-0.3,1.1-0.5,1.6
	c-0.2,0.4-0.6,0.7-1.1,0.8c-0.1,0-0.2,0-0.3,0c-1-2.6-1.2-5.4-0.6-8.2L353.2,71.9z"/>
<path class="st5" d="M355.7,95.8c0-0.4,0-0.8,0-1.1h0.9c3.6-1.8,7.8-2.2,11.6-1.1c0.4,0.1,0.8,0.3,1.1,0.6c0.3,0.4,0.5,1,0.5,1.5
	c0.2,1.4,0.3,2.8,0.5,4.2v1l2.4,0.1c0.1,0.2,0.2,0.5,0.2,0.7c0,1-0.7,1.8-1.6,2c-0.2,0-0.3,0-0.5,0v0.2c0.4,1.3,1.2,4.7,1.6,6
	c-0.7,0.1-1.5,0.2-2.2,0.3c-0.4-0.2-0.9-0.1-1.3,0.2c-2.2,0.4-4.4,0.8-6.6,1.3v0.1c-1.7,0.8-3.7,1-5.5,0.6l-0.3,0.3
	c-0.3-0.3-0.6-0.6-0.9-0.8c-3-2.9-6.6-5.1-10.6-6.4l0.2-0.5c-0.2-1-0.7-3.3-0.9-4.3l-0.1-0.5c2.3-0.5,4.5-1,6.5-1.5
	c1-0.2,5.2-1.2,5.6-2.2C356.2,96.2,356,96,355.7,95.8L355.7,95.8z"/>
<path class="st1" d="M346.7,92.2c-0.9-1.1-2.2-4.4-1.9-5.8s2.5-2.2,3.3-1c0.5,0.5,0.9,1.2,1,2c0.3,1,0.4,2.1,0.2,3.1
	s-1.2,1.8-2.3,1.7L346.7,92.2z"/>
<path class="st3" d="M344.8,410.8c-1.5-0.5-1.2-2.7-0.3-2.8c1-0.4,2.1,0.1,2.6,1.1v0.1C347.4,409.9,346.6,412.1,344.8,410.8
	L344.8,410.8z"/>
<path class="st7" d="M347,179.9c-0.4-1.6-1.5-4.2-2.9-4.9l-0.1-0.7c1.5-0.2,2.9-0.6,4.3-1l0.1,0.2c3.2,0.3,6.5,0.6,9.7,1v0.2h-1.2
	l-5.8-0.2c2.3,1.3,3.6,5.2,3.9,7.7c0.1,2.8-0.3,5.5-1.1,8.2c-1.4,5.4-2.8,12.1-4.2,17.5v0.2c-2.3,0-4.6,0-7-0.1v-0.2
	c2.1-7.5,3.6-15.1,4.5-22.8C347.3,183.4,347.3,181.6,347,179.9L347,179.9z"/>
<path class="st2" d="M344.3,267.1c1.4,11.9,1.9,23.8,1.3,35.7c-0.2,3.6-0.7,7.7-3.8,9.6c-1.7,0.9-3.7,1.3-5.6,1.2
	c-4.3,0.2-8.6,0.2-12.9,0.2c-15.7,0-31.4-1-46.9-3c-0.8,0-1.5-0.3-2.2-0.7c-1.2-0.9-1.3-2.5-1.3-4c0-11.8,0-23.5-0.1-35.3
	c0-3.2,0.2-6.8,2.5-8.9c1.8-1.5,4.2-1.8,6.6-2c12.2-1,19.4-1.8,27.9-1.7c4.9,0.1,10.3,0.5,17.4,1.3l12.2,2.2c2.7,0,4.8,2.1,4.9,4.7
	C344.4,266.7,344.4,266.9,344.3,267.1L344.3,267.1z"/>
<path class="st1" d="M341.3,68.4c1.2,0,2.3,0,3.5,0.1c1.6,2.1,1.7,4.3,1.2,6.9c0,1-0.6,1.8-1.4,2.3c-1.5,0.6-2.9-1.2-3-2.8
	s0.2-4.7-0.3-6.2L341.3,68.4z"/>
<path class="st6" d="M344.1,175c1.5,0.8,2.6,3.4,2.9,4.9c0.3,1.7,0.3,3.5,0,5.2c-0.9,7.7-2.4,15.3-4.5,22.8v0.2
	c-1.9,0-3.8-0.1-5.7-0.2c2.4-7.1,1.8-13.1,2.8-20.4c0.9-6,0.8-8.7-2.3-12V175c0.8,0,1.5-0.1,2.3-0.2c1.4-0.1,2.8-0.3,4.2-0.5
	L344.1,175z"/>
<path class="st4" d="M392.7,315.5c10.5,0,13.7-0.5,24.3-0.5c1,0,3.4,0,6.1-0.1v2.1c-24.9,0.7-53.8,1.8-79.2,0.5
	c-2.3-0.1-9.7-0.2-20.6-0.4v-3.4c4.3,0,8.6-0.1,12.9-0.2c1.9,0.1,3.9-0.3,5.6-1.2c3-1.9,3.6-6,3.8-9.6c0.5-11.9,0.1-23.9-1.3-35.7
	c0.3-2.6-1.7-5-4.3-5.2c-0.2,0-0.4,0-0.5,0l-12.2-2.2c-7.1-0.8-12.5-1.2-17.4-1.3v-3.1c19.3,0.4,38.6,0.8,57.9,1.1l-0.1,4.6
	c-1.3,0-2.8,0-3.8,0.8c-0.8,0.9-1.2,2-1.3,3.2c-2.2,14.6-3,29.4-2.4,44.1c-0.1,1,0.2,2,0.7,2.9c0.8,0.9,1.9,1.4,3.1,1.5
	C373.4,315.6,383.1,315.5,392.7,315.5L392.7,315.5z"/>
<path class="st1" d="M333.6,78.5c0-1.5,1-2.8,2.4-3.3c0.2,1.8,0.4,3.6,0.7,5.5c0.2,0.8,0.1,1.7-0.2,2.5c-0.3,0.7-1.2,1-1.9,0.7
	c-0.1,0-0.1-0.1-0.2-0.1C333.9,81.6,333.2,80.6,333.6,78.5z"/>
<path class="st7" d="M328.7,175.2c2.9,0.1,5.8,0.1,8.8-0.1v0.4c3.1,3.4,3.2,6.1,2.3,12c-1.1,7.3-0.4,13.3-2.8,20.4
	c-2.5-0.1-5-0.2-7.4-0.4c-0.3-8.5,1.9-15.3,2.2-23.8C331.8,180.1,331.7,176.9,328.7,175.2L328.7,175.2z"/>
<path class="st1" d="M328.5,80.2c-0.6-2.7-0.7-5.4-0.5-8.1l-0.1-0.2c0.6-0.3,1.3-0.6,2-0.9l0.2,0.4c1.5,2.5,1.4,5,0.4,7.7
	C330.1,79.9,329.1,80.8,328.5,80.2z"/>
<path class="st1" d="M326.8,89.9c-0.1-1.8,1.7-4,3.3-3.1V87c0.7,0.2,1.4,0.8,1.3,1.4s0.1,1.4,0,2.4c-0.1,1.3-1,2.7-2,4.5
	c0,0.4-2.7-0.1-3-0.4C326,93.2,326.8,91.7,326.8,89.9L326.8,89.9z"/>
<path class="st3" d="M318.4,357.3c11.4,13.3,16.7,32.7,10.1,49c-0.9,2.5-2.3,4.8-4.1,6.8c-6.5,7-18.7,6.1-26.1,0s-10.7-16-11.9-25.5
	c-1.6-13.5,0.9-28.3,10.2-38.3l-0.2-0.2c3.1-2.8,8-1.1,12,0.4S315.6,354,318.4,357.3L318.4,357.3z M315.1,389.3
	c1.9-4,3.6-8.5,2.8-12.9s-3.5-10.8-8-10.3c-2.9,0.3-3.7,0.2-5.8,2.2c-4,7.3-4.1,11.9-1.1,19.7c0.6,1.8,1.7,3.4,3.2,4.7
	c1.5,1.2,3.6,1.5,5.4,0.8C313.4,392.7,314.3,391,315.1,389.3L315.1,389.3z"/>
<path class="st1" d="M355.7,95.8c0.3,0.2,0.5,0.4,0.5,0.6c-0.4,1-4.5,2-5.6,2.2c-2.1,0.5-4.3,1-6.5,1.5c-6.7,1.4-13.8,2.5-19.5,1.1
	l-0.1-0.2c1.1-0.5,2-1.1,2.9-1.9c6.7-3.7,14.2-5.6,21.8-5.4C351.5,94.1,353.6,94.8,355.7,95.8L355.7,95.8z"/>
<path class="st5" d="M347,92.2c1.1,0.1,2-0.7,2.3-1.7c0.2-1,0.1-2.1-0.2-3.1c-0.1-0.8-0.5-1.5-1-2c-0.8-1.2-3-0.4-3.3,1
	s0.9,4.7,1.9,5.8L347,92.2z M326.3,95c0.3,0.3,3.1,0.8,3,0.4c1-1.8,1.9-3.2,2-4.5c0.1-1-0.2-1.6,0-2.4s-0.6-1.3-1.3-1.4v-0.2
	c-1.6-1-3.3,1.3-3.3,3.1S326,93.2,326.3,95L326.3,95z M323.2,77.4c0.6-1.7,2.7-3.2,3.3-4.9h0.1c0.4-0.2,0.8-0.4,1.2-0.6L328,72
	c-0.2,2.7,0,5.5,0.5,8.1c0.6,0.6,1.6-0.3,1.9-1.1c1-2.7,1.2-5.2-0.4-7.7l-0.2-0.4c3.6-1.5,7.5-2.4,11.4-2.5v0.3
	c0.5,1.5,0.2,4.6,0.3,6.2s1.5,3.4,3,2.8c0.8-0.5,1.4-1.3,1.4-2.3c0.5-2.6,0.4-4.8-1.2-6.9c2.1,0.2,4.2,0.6,6.3,1.2
	c0.1,0,2,2.1,2.1,2.2l-0.1,0.2c-0.6,2.7-0.3,5.6,0.7,8.1h0.3h1.1c0.6,4.8,0.8,9.6,0.6,14.3v1.1c-2-1-4.2-1.6-6.4-2
	c-7.6-0.2-15.2,1.6-21.8,5.4c-0.9,0.8-1.9,1.4-2.9,1.9h-0.2c-0.1-0.1-0.3-0.1-0.4-0.2c0-0.1-0.1-0.2-0.1-0.3
	c-0.5-7-0.9-15.5-0.9-23.2L323.2,77.4z M333.6,78.5c-0.4,2.1,0.4,3.1,0.8,5.2c0.7,0.4,1.6,0.3,2-0.4c0-0.1,0.1-0.1,0.1-0.2
	c0.3-0.8,0.4-1.7,0.2-2.5c-0.2-1.8-0.4-3.6-0.7-5.5C334.6,75.7,333.6,77,333.6,78.5z"/>
<path class="st1" d="M336.5,67c4.2-1.2,8.6-2.4,12.7-1.2s7.4,4.7,6.9,8.8l-0.3,0.1c0-0.1,0-0.2-0.1-0.4c-0.3-1.3-1.3-2.2-2.6-2.4
	c-0.1,0-2-2.1-2.1-2.2c-2-0.6-4.1-1-6.3-1.2c-5.1-0.4-10.3,0.5-15,2.5c-0.7,0.3-1.4,0.6-2,0.9c-0.4,0.2-0.8,0.4-1.2,0.6h-0.1
	c-0.6,1.7-2.7,3.2-3.3,4.9h-0.3c0-0.4,0-0.8,0-1.3c0-1,0-2,0.1-3h0.1c0.8-1.9,2.8-3.1,4.7-3.7C330.6,68.6,333.6,67.8,336.5,67
	L336.5,67z"/>
<path class="st6" d="M319.6,173.5c3,0.9,6,1.5,9.2,1.6v0.1c3,1.7,3.1,5,3,8.4c-0.3,8.5-2.5,15.3-2.2,23.8c-2-0.1-3.9-0.3-5.9-0.5
	c-1.4-0.1-2.8-0.3-4.2-0.5c0.1-1.1,1.4-11.3,2.4-17.6c0.5-2.6,0.6-5.2,0.3-7.9c-0.4-2.6-1.6-6.2-3.9-7.5c0.4,0.1,0.8,0.2,1.2,0.2
	L319.6,173.5z"/>
<path class="st1" d="M318.1,76.2c-1.9-1.2-2.4-3.7-1.2-5.5c0.4-0.6,0.8-1,1.4-1.3C321.7,71.4,320.8,75.6,318.1,76.2L318.1,76.2z"/>
<path class="st1" d="M317.9,376.4c0.7,4.4-0.9,8.9-2.8,12.9c-0.8,1.7-1.7,3.4-3.4,4.2c-1.8,0.7-3.9,0.4-5.4-0.8s-2.6-2.9-3.2-4.7
	c-3-7.8-2.9-12.4,1.1-19.7c2.1-2,2.9-1.9,5.8-2.2C314.4,365.6,317.2,372,317.9,376.4L317.9,376.4z"/>
<path class="st7" d="M316.6,173.3v-0.1c0.5,0.1,1.1,0.2,1.6,0.3c2.2,1.4,3.5,4.9,3.9,7.5c0.3,2.6,0.2,5.3-0.3,7.9
	c-1,6.2-2.3,16.5-2.4,17.6c-3-0.4-6-0.7-9-1c0.5-11.5,2.3-26.8-0.8-31.5v-0.8L316.6,173.3z"/>
<path class="st1" d="M310.1,68.9c2.1,3.1,1,8.7-1.8,9.1c-4.6,0.4-5.2-9.9-1.2-10.9C309.1,66.6,309.6,68.2,310.1,68.9z"/>
<path class="st1" d="M306.3,94c-1.2-2.9-1.6-6-1.3-9.1c1.1-0.7,4.3,0.6,4,1.9c0.3,2.5,0.3,5,0,7.5l-0.1,0.6l-2.6-0.2V94z"/>
<path class="st0" d="M315.3,112c-2.3,1.4-2,1.7-3.3,3.9c-5.3,8.1-8.7,17.7-8.1,27.4s5.3,19.3,13.4,24.5c9.4,6,22.4,5.2,31.5-1.3
	s14.1-18,13.5-29.1c-0.2-4-1.1-7.9-2.7-11.6c-6.8-15.5-24.8-22.6-40.3-15.8C317.9,110.6,316.6,111.3,315.3,112z M301.1,151.5
	c-2.6-7.9-2.8-16.5-0.6-24.5c0.2-0.6,0.4-1.3,0.6-2c0.2-0.5,0.4-1,0.6-1.4c4.7-11.5,13.4-20.7,25.8-20.3c6.5,0,12.2,0.4,17.3,2.2
	c3.9,1.4,7.5,3.6,10.6,6.4c0.3,0.3,0.6,0.5,0.9,0.8c0.9,0.9,1.8,1.9,2.7,2.9c5.9,7.4,8.8,16.9,7.8,26.3c-0.7,6.2-3,12.2-5.6,17.9
	c-1.7,3.8-3.6,7.6-6.7,10.2c-1.8,1.4-3.9,2.5-6.2,3.2c-1.4,0.4-2.9,0.8-4.3,1s-2.8,0.4-4.2,0.5c-0.8,0.1-1.5,0.1-2.3,0.2
	c-2.9,0.2-5.8,0.3-8.8,0.1c-3.1-0.1-6.2-0.7-9.2-1.6c-2.6-0.8-5-2.1-7.1-3.8c-3.4-2.8-6.1-6.3-8-10.3c-0.7-1.3-1.3-2.6-1.8-3.9
	S301.6,152.9,301.1,151.5L301.1,151.5z"/>
<path class="st5" d="M303.5,106.4l1.1-0.1l0.1,0.4c1,0,3.2,0.2,4.2,0.3v3c-2.9,0.1-5.8-0.4-8.4-1.5l-0.1-0.2
	C301.3,107.6,302.4,107,303.5,106.4L303.5,106.4z"/>
<path class="st5" d="M301.2,125c-0.2,0.6-0.4,1.3-0.6,2h-0.2c-3.6,1.4-5.1-1.5-4.5-3.4S300.6,122,301.2,125L301.2,125z"/>
<path class="st6" d="M309.6,173.9c3.1,4.7,1.4,20,0.8,31.5c-0.8-0.1-1.6-0.2-2.3-0.2c-3.2-0.2-6.4-0.4-9.6-0.4v-0.6
	c0-8.8,0.5-17.8,0.6-26.7c0-0.9-1-4.5-1.9-4.7c4.1,0.1,8.3,0.2,12.4,0.3V173.9z"/>
<path class="st5" d="M302.6,155.5c-1.1,1.2-3.9,2.1-5.3,1.3s-2.2-2.4-1.9-4c0.8-0.2,5-1.2,5.8-1.4
	C301.6,152.9,302.1,154.2,302.6,155.5L302.6,155.5z"/>
<path class="st5" d="M293.5,135.2c0.8-0.9,3.3-1,3,3.5c-0.2,3.6-3.3,3.5-3.8,2.7c-0.5-0.9-0.6-1.9-0.4-2.9
	C292.4,137.3,292.8,136.1,293.5,135.2L293.5,135.2z"/>
<path class="st3" d="M298.8,218.5c-2.7-0.1-5,0-7.8,0c-0.6,0-1.1-2.5-0.9-3.1c0.1-0.4,0.7-0.5,1.1-0.5c2,0.1,4.1,0.1,6.1,0.2
	c1.6,0,3.2,0.2,4.8,0.7c0,0.9-0.2,1.9-0.6,2.7C300.7,218.6,299.7,218.6,298.8,218.5L298.8,218.5z"/>
<path class="st1" d="M291.7,71.2c1,2.9,1.5,7.9,0,8.7c-2.8,0.8-3.7-5.3-3.8-8.6C288.7,70,291.6,70.9,291.7,71.2z"/>
<path class="st1" d="M291,87.2c0.3,0.6,0.4,1.3,0.2,2c-0.3,2.1-0.7,2.7-1,4.8v0.5c-0.6,0.1-1.2,0.2-1.8,0.3
	c-0.9-2.4-1.2-6.1,0.3-8.2C288.8,85.8,290.6,86.6,291,87.2z"/>
<path class="st5" d="M288.7,152.7c-1.7-2.4,1.8-3.2,2.6-2S291.1,154.4,288.7,152.7z"/>
<path class="st5" d="M291.1,123.1c0.8,1.2,0.8,2.8,0,3.9c-0.9-0.5-3.1-1.3-4-1.7l-0.6-0.2c0.3-0.9,0.7-1.8,1.1-2.6l0.4,0.2
	C288.7,121.7,290.5,122.2,291.1,123.1z"/>
<path class="st5" d="M288,71.3c0,3.3,1,9.4,3.8,8.6c1.5-0.8,0.9-5.8,0-8.7C291.6,70.9,288.7,70,288,71.3z M303.7,64.3
	c6.9,0.1,15.5,1.2,19.3,7c0,0.6-0.1,1.3-0.1,1.9c0,1,0,2-0.1,3l-3.3,22.4c-0.1-0.8-0.5-1.6-1.2-2.1c-0.7-0.4-1.4-0.6-2.2-0.7
	c-2.4-0.4-4.9-0.7-7.3-0.9l0.1-0.6c0.3-2.5,0.3-5,0-7.5c0.4-1.3-2.8-2.5-4-1.9c-0.3,3.1,0.2,6.2,1.3,9.1v0.6
	c-4.1-0.3-8.2-0.4-12.3-0.4c-1.2,0-2.5,0.1-3.8,0.2v-0.5c0.3-2.1,0.7-2.7,1-4.8c0.2-0.7,0.1-1.4-0.2-2c-0.4-0.5-2.1-1.4-2.3-0.7
	c-1.5,2-1.2,5.8-0.3,8.2c-1.3,0.2-2.5,0.6-3.7,1.1V72.2l-0.6-0.6c0.1-0.1,0.1-0.2,0.2-0.3C288.4,65.8,296.8,64.2,303.7,64.3z
	 M308.3,78.1c2.8-0.4,3.9-6,1.8-9.1c-0.5-0.8-1-2.3-3-1.8C303.2,68.2,303.8,78.4,308.3,78.1z M318.1,76.2c2.7-0.5,3.6-4.8,0.2-6.9
	c-1.9,1.1-2.6,3.5-1.6,5.4C317.1,75.3,317.6,75.8,318.1,76.2z"/>
<path class="st1" d="M288.7,152.7c2.5,1.8,3.3-0.7,2.6-2S287,150.3,288.7,152.7z M296.6,138.7c0.2-4.5-2.2-4.4-3-3.5
	c-0.7,1-1.1,2.1-1.2,3.3c-0.2,1-0.1,2,0.4,2.9C293.3,142.1,296.4,142.3,296.6,138.7L296.6,138.7z M300.6,127c-2.2,8-2,16.6,0.6,24.5
	c-0.8,0.2-5,1.2-5.8,1.4c-0.3,1.6,0.5,3.2,1.9,4c1.4,0.7,4.2-0.2,5.3-1.3c0.5,1.3,1.2,2.7,1.8,3.9c1.9,4,4.6,7.5,8,10.3
	c2.2,1.6,4.6,2.9,7.1,3.8l-0.1,0.2c-0.4-0.1-0.8-0.2-1.2-0.2s-1-0.2-1.6-0.3c-4.1-0.7-8.1-1.8-12-3.1c-2.4-0.8-4.7-1.9-6.9-3.2
	c-3.6-2-6.6-4.9-8.8-8.4c-2-3.6-3.3-7.6-3.8-11.7c-1.1-7.2-1.1-15,1.4-21.7l0.6,0.2c1,0.5,3.1,1.2,4,1.7c0.8-1.2,0.8-2.8,0-3.9
	c-0.7-0.9-2.5-1.4-3.1-0.5l-0.4-0.2c0.9-1.9,2.1-3.7,3.4-5.3c2.7-3.3,5.8-6.3,9.3-8.7l0.1,0.2c2.7,1,5.6,1.6,8.4,1.5c0-1,0-2,0-3
	c-1,0-3.2-0.2-4.2-0.3l-0.1-0.4c2-0.2,4-0.6,6-1.1c2.6-0.7,5.2-1.7,7.6-3c2.3-1.1,3.9-1.8,5.7-1.3c0,0.1,0.1,0.2,0.1,0.3
	c0.1,0,0.2-0.1,0.3-0.1h0.2l0.1,0.2c5.6,1.3,12.8,0.3,19.5-1.1l0.1,0.5c0.2,1,0.7,3.3,0.9,4.3l-0.2,0.5c-5.2-1.8-10.8-2.2-17.3-2.2
	c-12.4-0.4-21.1,8.8-25.8,20.3c-0.2,0.5-0.4,0.9-0.6,1.4c-0.7-3-4.8-3.3-5.3-1.5s0.9,4.7,4.5,3.4L300.6,127z"/>
<path class="st1" d="M316.2,102.4c0.6-0.5,1.2-1.2,0.9-1.8c-0.3-0.4-0.7-0.6-1.2-0.7c-6.8-1.5-13.8-2.2-20.8-2.1
	c-3.8,0-7.5-0.9-10.1,1.9l-0.2-0.2V96c1.2-0.5,2.4-0.9,3.7-1.1c0.6-0.1,1.2-0.2,1.8-0.3c1.3-0.1,2.5-0.2,3.8-0.2
	c4.1-0.1,8.2,0,12.3,0.4L309,95c2.4,0.2,4.9,0.5,7.3,0.9c0.8,0.1,1.5,0.3,2.2,0.7c0.7,0.5,1.1,1.3,1.2,2.1s0,1.6-0.4,2.3
	c-0.3,0.5-0.6,1-1,1.4c-2.4,1.3-5,2.3-7.6,3V105C312.6,104.5,314.5,103.6,316.2,102.4L316.2,102.4z"/>
<path class="st0" d="M282.7,135.4c1.6-11.5,7.6-22.7,16.4-29.7c1.7,0.2,3.4,0.3,5.1,0.3c2.1,0,4.2-0.3,6.3-0.9v0.2
	c-2,0.5-4,0.9-6,1.1l-1.1,0.1c-1.1,0.6-2.2,1.2-3.2,1.9c-3.5,2.4-6.6,5.4-9.3,8.7c-1.4,1.6-2.5,3.4-3.4,5.3
	c-0.4,0.9-0.8,1.7-1.1,2.6c-2.5,6.8-2.5,14.5-1.4,21.7c0.5,4.1,1.8,8.1,3.8,11.7c2.2,3.5,5.2,6.4,8.8,8.4c-0.4-0.1-0.7-0.3-1.1-0.4
	c-2.5-0.7-4.9-2-6.8-3.7c-2.4-2.2-4.1-4.9-5.1-8c-1.8-5-2.6-10.2-2.3-15.5C282.4,138,282.6,136.7,282.7,135.4L282.7,135.4z"/>
<path class="st5" d="M323,71.2c-3.8-5.7-12.4-6.8-19.3-7s-15.3,1.6-19.3,7.1c-1.1,0.4-2.1-1.1-1.7-2.3c0.6-1.2,1.5-2.1,2.6-2.8
	c6.3-4.3,13.5-5,20.8-4.3c1.9,0.2,3.8-0.4,5.7-0.2c5.3,0.7,9.7,4.3,11.4,9.3L323,71.2z"/>
<path class="st6" d="M284.1,204.2v0.6l-15.5-0.1V204c-0.3-6.1-0.4-12.2-0.1-18.3c0.2-4.8,0.9-10.3,4.8-13.1v-0.3
	c3.5,0.1,7.1,0.2,10.6,0.3v0.3C283.7,177.2,284.3,198.5,284.1,204.2z"/>
<path class="st7" d="M284.1,204.2c0.2-5.7-0.4-27-0.2-31.4v-0.3c4.4,0.1,8.8,0.2,13.3,0.3c0.8,0.2,1.9,3.8,1.9,4.7
	c0,8.8-0.6,17.9-0.6,26.7v0.6c-2.4,0-4.9,0-7.3,0c-2.3,0-4.7,0-7.1,0L284.1,204.2z"/>
<path class="st0" d="M280.2,99.8c0-1.1,0-2.2,0-2.8c0.7,0.1,1.5,0.2,2.1,0.3c0.7-0.6,1.5-1.1,2.4-1.5v3.5l0.2,0.2
	c2.6-2.8,6.3-1.9,10.1-1.9c7-0.1,14,0.6,20.8,2.1c0.5,0,0.9,0.3,1.2,0.7c0.3,0.6-0.3,1.4-0.9,1.8c-1.7,1.2-3.6,2.2-5.7,2.7
	c-2.1,0.6-4.2,0.8-6.3,0.9c-1.7,0-3.4-0.1-5.1-0.3c-2.5-0.3-5-0.8-7.4-1.3c-3.5-0.7-4.7-1.7-7-4.4L280.2,99.8z"/>
<path class="st5" d="M279.3,102.6c0.9,0,1.8,0.6,1.7,1.5s-0.9,1.6-1.9,1.5c-0.1,0-0.2,0-0.3,0c-0.8-0.3-1.2-1.2-0.9-2
	c0.1-0.1,0.1-0.3,0.2-0.4C278.5,102.8,278.9,102.6,279.3,102.6L279.3,102.6z"/>
<path class="st6" d="M278.8,412.2c0.3,0.6-1.5,1.7-2.2,1.9c-1.4,0.1-1.7-2.9-0.4-3.3C277.9,410.2,278.4,411.5,278.8,412.2z"/>
<path class="st3" d="M241.6,399.2c2.3,4.5,4.1,9.2,5.1,14.2c0.6,2.7,0.9,5.8-0.4,8.2c-2.3,4.1-8.5,4.6-12.3,1.8s-3.3-3.6-5.6-7.2
	c-1.7-2.8-2.9-5.8-3.7-9c-4-14.3-6.4-29.1-7.1-43.9c7.8-8.4,19.7-15,31-16.6c4-0.6,8.4-0.6,11.8,1.5s4.7,5,2.4,8.2
	c-1.5,2.1-3.6,5.2-6.1,5.9l-17,4.9h-0.4c-1,4.5-0.1,12.2,3.6,14.9c4.4-4.3,11.1-4.4,17.3-5c2.3-0.2,5,0.1,6.2,2.1
	c0.5,0.9,0.7,1.8,0.8,2.8c0.3,2,0.6,3.9,0.9,5.8c0.3,2.2,0.5,4.4-0.8,6.2c-2.1,2.8-6.2,2.4-9.6,2c-5.5-0.6-11.1,0.5-15.9,3.1
	L241.6,399.2z"/>
<path class="st0" d="M257.9,96.1c2.4-0.1,5-0.1,7.9,0v0.2c-0.6,4.4-0.3,8.9,0.9,13.3h-0.2c-1.1-0.3-2.2-0.1-3.2,0.5
	c-0.5,0.4-0.8,1-0.8,1.6l-4.5,0.1c-0.2-5-0.4-10.1-0.5-15.7H257.9z"/>
<path class="st5" d="M266.6,109.5c-1.1-4.3-1.4-8.8-0.9-13.3V96c0.8,0,1.6,0,2.4,0.1v0.1C269.1,100.3,268.8,105.9,266.6,109.5z"/>
<path class="st5" d="M263.2,110c0.9-0.6,2.1-0.8,3.2-0.5h0.2c1,0.2,2,0.4,3,0.3c0.9,0.2,0,2.3,0,3.2l-5,0.1
	c-0.6,0.1-1.1-0.1-1.6-0.3c-0.4-0.3-0.6-0.7-0.6-1.2C262.4,111,262.7,110.4,263.2,110z"/>
<path class="st7" d="M262.4,171.9l10.8,0.3v0.4c-3.9,2.8-4.6,8.3-4.8,13.1c-0.2,6.1-0.2,12.2,0.1,18.3v0.7c-3.4,0-6.8,0-10.2,0v-0.3
	c-1.1-4.7-1.8-9.5-2-14.3c-0.3-3.4,0-6.8,1.1-10.1s1.5-6.7,4.8-7.6L262.4,171.9z"/>
<path class="st0" d="M279.3,102.6c-0.4,0.1-0.8,0.2-1.1,0.5c-0.5,0.7-0.4,1.7,0.3,2.2c0.1,0.1,0.3,0.2,0.4,0.2
	c0.9,0.2,1.8-0.3,2.1-1.2c0-0.1,0-0.2,0-0.3C281.1,103.2,280.3,102.6,279.3,102.6L279.3,102.6z M259.8,134.6h-0.7
	c-0.4-8.1-0.9-15.4-1.2-22.9l4.5-0.1c0,0.5,0.2,0.9,0.6,1.2c0.5,0.3,1.1,0.4,1.6,0.3l5-0.1c0.1-0.9,0.9-3,0-3.2c-1,0-2-0.1-3-0.3
	c2.1-3.6,2.5-9.2,1.5-13.3c4.1,0.1,8.4,0.5,12,0.9v2.8l4.6,0.1c2.3,2.8,3.4,3.8,7,4.4c2.5,0.5,4.9,1,7.4,1.3
	c-8.8,7.1-14.8,18.3-16.4,29.7l-0.6-0.1c-5.6-0.9-13-0.8-18.7-0.7C262.4,134.6,260.7,134.6,259.8,134.6L259.8,134.6z"/>
<path class="st5" d="M263.4,134.6c5.8-0.1,13.1-0.1,18.7,0.7l0.6,0.1c-0.2,1.3-0.3,2.6-0.4,3.9h-0.1c-7.5,0.5-15,0.2-22.4-0.8h-0.5
	c-0.1-1.3-0.1-2.6-0.2-3.8h0.7C260.7,134.6,262.4,134.6,263.4,134.6L263.4,134.6z"/>
<path class="st6" d="M259.5,159.8c3.1-2,6.4-3.6,9.9-4.6l0.2-0.2c0.9,0.7,1.9,1.4,2.9,2.2c-4.7,1.5-9.2,3.5-13.5,6h-0.2
	c0.1-0.9,0.2-2.1,0.3-3.4H259.5z"/>
<path class="st5" d="M280.2,97.1c-3.7-0.5-7.9-0.8-12-0.9c-0.8,0-1.6,0-2.4-0.1c-2.8,0-5.5,0-7.9,0h-0.4c0-0.6,0-1.3,0-1.9
	c0-0.2,0-0.4,0-0.6c3.1-1.3,6.6-0.6,9.9-0.1c5.7,0.6,11.5,0.6,17.1-0.1h0.3v2.5c-0.9,0.4-1.7,0.9-2.4,1.5
	C281.7,97.3,281,97.2,280.2,97.1z"/>
<path class="st3" d="M256.4,39.5c0.3,3.6,0.2,7.3-0.2,11c-0.5,0.7-15.1-4.3-20.2-7.7c-2.3-1.5-6.3-4-5.8-6.7s5.4-3.5,8.2-3.8
	c5.6-0.6,11.2-0.3,16.7,0.9v0.1c10.3,2.7,15.7,4.6,23.2,10.9c1.1,0.8,1.9,1.9,2.4,3.2c0.7,2.3-1.1,4.7-3.3,5.7
	c-1.5,0.7-3.2,0.7-7.1,0.5c-4-0.4-7.9-1.2-11.8-2.5h-0.6c0.2-3.3,0.6-6.6,1-9.9c-0.5-0.6-1.1-1-1.7-1.3
	C257.1,39.6,256.7,39.5,256.4,39.5z"/>
<path class="st5" d="M249.5,98.3c-0.1-1.3,0.1-2.6,0.7-3.7c1-1.2,2.6-1.5,4-0.9h0.4c0.1,13.6,0.6,27.2,1.4,40.9h-6.4
	c0.1-2.7,0.2-5.4,0.3-8.1l-0.2-0.8c-1.5,0.4-3.1,0.3-3.7-1s0.3-2.7,1.6-3.3c0.7-0.3,1.4-0.4,2.1-0.4v-0.5L249.5,98.3z"/>
<path class="st6" d="M262.4,172.4c-3.3,0.9-3.7,4.3-4.8,7.6c-1.1,3.2-1.4,6.7-1.1,10.1c0.2,4.8,0.9,9.6,2,14.3v0.3c-2.7,0-5.3,0-8,0
	v-0.2c-2.1-7.5-3.5-13.9-3-21.7c0.3-4,3.5-9.2,5.6-10.6v-0.4l9.4,0.2L262.4,172.4z"/>
<path class="st2" d="M253.3,304.2c0.1,2.3,0,4.8-1.6,6.5c-1.4,1.4-3.5,1.6-5.5,1.8c-17.5,1.2-35,1.2-52.4,0c-3-0.2-6.3-0.6-8.1-3
	c-1.3-1.7-1.5-4-1.6-6.1l-1.7-33.1c-0.2-3.1,0-6.8,2.7-8.3c1.2-0.6,2.5-0.9,3.8-0.9c20.9-1.4,41.8-1.4,62.6-0.1
	c1.4,2,0.6,5.4,0.7,7.9C252.6,280.6,253,292.4,253.3,304.2L253.3,304.2z"/>
<path class="st5" d="M255.7,134.6h0.3c0.1,1.2,0.2,2.4,0.3,3.6H256c-1.3-0.6-5.1,1-6.1,0c-0.4-0.5-0.5-1.1-0.4-1.7
	c0-0.6,0-1.3,0.1-1.9L255.7,134.6z"/>
<path class="st0" d="M244.9,157.7c0.7-0.8,1.4-1.5,2-2.3l0.3,0.3c1.6,1.2,6.2,3.3,7.8,4.5h0.4c0,1.2-0.1,2.2-0.1,3H255
	c-2.4-1.5-7.3-3.7-9.7-5.2l-0.1-0.1L244.9,157.7z"/>
<path class="st6" d="M273.3,172.2l-10.8-0.3l-9.4-0.2c-2.6-0.1-5.2-0.1-7.8-0.2l-5.7-0.1l-2.9-0.1l10.1-0.2c2.2,0,4.4-0.1,6.7-0.1
	c1.2,0,2.4,0,3.7-0.1c10.9-0.2,21.8-0.4,32.6-0.4c0.4,0.2,0.6,0.4,0.7,0.3c0.3-0.1,0.5-0.2,0.7-0.3c3.8,0,7.6,0.1,11.5,0.2
	c0.6,0,1.5-0.6,2.1-0.6c3.9,1.3,7.9,2.4,12,3.1v0.1l-7.1-0.2c-4.1-0.1-8.3-0.2-12.4-0.3c-4.4-0.1-8.8-0.2-13.3-0.3
	C280.4,172.3,276.8,172.2,273.3,172.2L273.3,172.2z"/>
<path class="st7" d="M245.2,171.5c2.6,0,5.2,0.1,7.8,0.2v0.4c-2.1,1.4-5.3,6.6-5.6,10.6c-0.6,7.8,0.8,14.2,3,21.7v0.2h-8.1v-0.2
	c-2.9-8.2-2.9-11.5-2.8-20.2c0-1.5,0.4-9.3,1.1-10.7C241.3,172.4,243.7,171.5,245.2,171.5z"/>
<path class="st6" d="M242.8,155.7c4.3-4.8,9.3-9.8,13.5-13.6h0.2c-0.1-1.3-0.2-2.6-0.3-3.9s-0.2-2.4-0.3-3.6
	c-0.9-13.6-1.4-27.2-1.4-40.9c0-7.8,0.1-15.7,0.3-23.5c-0.3-7.7,0.7-13.8,1.4-19.8c0.4-3.6,0.5-7.3,0.2-11c0.3,0,0.6,0.1,0.9,0.2
	c0.7,0.3,1.3,0.7,1.7,1.3c-0.4,3.2-0.7,6.5-1,9.9c-1.2,14.4-1.4,28.9-0.6,43.3V96c0.1,5.5,0.3,10.7,0.5,15.7
	c0.3,7.6,0.8,14.9,1.2,22.9c0,1.3,0.1,2.5,0.2,3.8c0,0.9,0.1,1.8,0.1,2.7c1,1,17.3,16.3,26.4,22.7c1.6,1,3,2.2,4.2,3.6
	c0.9,1.2,1.8,2.4,1,3h-1.4c-2.5-1.6-10.8-8.3-17.3-13.4c-1-0.8-2-1.5-2.9-2.2c-1.8-1.4-3.2-2.4-4.1-3c-2.1-1.2-3.9-2.8-5.4-4.6h-0.3
	c0,3.6-0.3,8.7-0.7,12.5c-0.1,1.3-0.2,2.5-0.3,3.4c0,0.7-0.2,1.5-0.3,2.2c-0.9,0.7-2.2,0.6-3-0.3c-0.1-0.6-0.2-1.1-0.1-1.7
	c0-0.8,0-1.8,0.1-3c0.2-4.8,0.7-12,1.1-15c-3,3.2-6.3,6.6-9.6,10.1c-0.7,0.7-1.4,1.5-2,2.3c-2.9,3.1-5.4,6.5-7.7,10.1
	c-1.2,1.9-1.4,2.3-2.5,2.3c-0.5,0-1.2-0.1-2.4-0.2C232.2,168.2,236.9,162.2,242.8,155.7L242.8,155.7z"/>
<path class="st6" d="M239.5,171.3l5.7,0.1c-1.6,0-4,0.9-4.5,2c-0.7,1.3-1.1,9.2-1.1,10.7c-0.1,8.7-0.1,12,2.8,20.2v0.2h-8.2l-1,0.1
	l-2-27.1c-0.2-1.5-0.1-3,0.4-4.4c0.5-1.1,1.5-1.8,2.7-1.9h0.1h0.3h1.9h0.1L239.5,171.3z"/>
<path class="st0" d="M237.2,167.8c2.2-3.6,4.8-7,7.7-10.1l0.3,0.3l0.1,0.1l-0.1,0.2c3.2,3.9,6,8.2,8.3,12.7
	c-2.2,0.1-4.4,0.1-6.7,0.1l-10.1,0.2h-0.1h-1.9v-1.2C235.8,170.1,236,169.7,237.2,167.8z"/>
<path class="st7" d="M235.5,236.8l-2.1-28.5h0.3c0.7,0,1.4,0.1,2.2,0.1c17.7,1,35.4-1.6,53,0c4.2,0.4,8.4,1.1,12.6,1.5
	c5.3,0.6,10.6,0.8,16,1.1l45.3,2.2l0.4,0.1c-1.9,7.3-4.4,16.9-6.2,24v0.2c-19.1,0.1-38.3,0.1-57.4,0.2c-6.2,0-12.5,0-18.7,0.1
	c-15.1,0-30.2,0.1-45.3,0.1L235.5,236.8z M301.6,218.5c0.4-0.9,0.5-1.8,0.6-2.7c-1.5-0.5-3.2-0.7-4.8-0.7c-2,0-4.1-0.1-6.1-0.2
	c-0.4,0-1,0.1-1.1,0.5c-0.2,0.6,0.3,3.1,0.9,3.1c2.7,0,5-0.1,7.7,0C299.7,218.6,300.7,218.6,301.6,218.5L301.6,218.5z"/>
<path class="st7" d="M217.5,171.2c1.4,0,2.8-0.1,4.2-0.1h6.2c2.1,0,4.2,0.1,6.2,0.1c-1.2,0.1-2.2,0.8-2.7,1.9
	c-0.5,1.4-0.7,2.9-0.4,4.4l2,27.1c0.1,1.2,0.2,2.4,0.3,3.6l2.1,28.5v1.2l-48.2,0.2v-0.5c-2.8-20.2-5.3-40.4-7.6-60.6v-0.5
	c2.5-0.8,5.1-1.4,7.7-2c3.1-0.7,6.2-1.3,9.4-1.7C203.6,171.8,210.6,171.3,217.5,171.2z M196.4,183.6c-3.4,3.3-4.7,8.8-4.7,13.5
	c0,5,1.9,9.8,5.2,13.5c2.6,3.1,6.1,5.1,10,5.9c4,0.7,8-0.6,10.8-3.6c1.3-1.7,2.3-3.6,2.9-5.6c1.2-3.8,1.9-7.7,2-11.6
	s-0.5-8.1-3-11.1c-2-2.4-5.1-3.7-8.1-4.5c-2.7-0.9-5.6-1-8.5-0.5c-2.8,0.7-4.3,2-6.3,4.1L196.4,183.6z M221.8,227.5
	c1.2-1.7,0.1-5.9-1.8-5.1c-1.9,0.2-3.3,1.9-3.1,3.8c0,0.2,0,0.3,0.1,0.5C217.7,228.6,220.7,229.2,221.8,227.5z M200,224.8
	c0.2-1.2-0.1-2.4-0.9-3.3c-0.8-0.7-2-0.8-2.9-0.2c-0.7,0.3-0.5,0.6-1,1.2c-0.3,0.6-0.5,1.3-0.4,2c0,1.4,0.1,3.1,1.3,3.7
	C198,229.2,199.8,226.8,200,224.8L200,224.8z"/>
<path class="st6" d="M235.8,208.4c-0.7,0-1.5-0.1-2.2-0.1h-0.3c-0.1-1.2-0.2-2.4-0.3-3.6l1-0.1h8.2h8.1h8h10.2l15.5,0.1h7.1h7.3
	c3.2,0,6.4,0.2,9.6,0.4c0.8,0.1,1.6,0.1,2.3,0.2c3,0.3,6,0.7,9,1c1.4,0.2,2.8,0.3,4.2,0.5c2,0.2,3.9,0.4,5.9,0.5
	c2.5,0.2,5,0.3,7.4,0.4c1.9,0.1,3.8,0.2,5.7,0.2c2.3,0.1,4.6,0.1,7,0.1s4.8,0,7.1,0h7.4l0.4,0.1c-0.4,1.4-0.7,2.9-1.1,4.3
	c-0.1,0.3-0.1,0.5-0.2,0.8l-0.4-0.1l-45.3-2.2c-5.3-0.3-10.7-0.5-16-1.1c-4.2-0.4-8.4-1.1-12.6-1.5
	C271.2,206.7,253.5,209.3,235.8,208.4L235.8,208.4z"/>
<path class="st8" d="M221.8,171.1c-3.1-5.2-6.8-11.3-10.8-17.8c0.9-0.4,1.7-0.9,2.4-1.6c0.2-0.3,0.4-0.5,0.6-0.9
	c5,7.4,9.8,14.3,14.1,20.2v0.1H221.8z"/>
<path class="st3" d="M220,222.4c1.9-0.7,3,3.5,1.8,5.1s-4.2,1-4.8-0.8c-0.5-1.9,0.7-3.7,2.5-4.2C219.7,222.4,219.9,222.4,220,222.4z
	"/>
<path class="st8" d="M221.8,171.1c-1.4,0.1-2.8,0.1-4.2,0.2c-2.8-5-6.1-10.9-9.7-17.2c1.1,0,2.2-0.2,3.2-0.6
	C214.9,159.8,218.7,165.9,221.8,171.1z"/>
<path class="st8" d="M213.9,150.9c-0.1,0.3-0.3,0.6-0.6,0.9c-0.7,0.7-1.5,1.2-2.4,1.6L200,135.6l0.2-0.2c0.8-0.6,1.7-0.9,2.6-1.1
	C206.6,140,210.3,145.6,213.9,150.9L213.9,150.9z"/>
<path class="st4" d="M323.3,317.2c-48.7-0.5-168.8-1.1-238.5-2.7c0.9-20.7,1.8-38.3,0.3-58.9v-1c74.4-2.3,149.7-0.9,224.8,0.6v3.1
	c-8.5-0.1-15.6,0.6-27.8,1.7c-2.3,0.2-4.8,0.5-6.6,2c-2.4,2.1-2.5,5.7-2.5,8.9c0,11.8,0,23.5,0.1,35.3c0,1.5,0.1,3.2,1.3,4
	c0.7,0.4,1.4,0.6,2.2,0.7c15.6,2,31.2,3,46.9,3L323.3,317.2z M193.8,312.4c17.5,1.2,35,1.2,52.4,0c2-0.1,4.1-0.4,5.5-1.8
	c1.6-1.6,1.7-4.2,1.6-6.5c-0.4-11.8-0.7-23.6-1.1-35.4c-0.1-2.5,0.7-5.9-0.7-7.9c-20.9-1.3-41.8-1.3-62.6,0.1
	c-1.3,0-2.6,0.3-3.8,0.9c-2.7,1.6-2.8,5.3-2.7,8.3l1.7,33.1c0.1,2.1,0.3,4.4,1.6,6.1C187.5,311.8,190.8,312.2,193.8,312.4
	L193.8,312.4z"/>
<path class="st6" d="M212.1,197.8c0.1,1.9-1.4,3.6-3.3,3.7c-0.3,0-0.7,0-1-0.1c-1.4-1.3-1.9-4.6-0.7-6.1c1.7-0.9,3.9-0.1,4.7,1.6
	C212,197.2,212.1,197.5,212.1,197.8L212.1,197.8z"/>
<path class="st3" d="M205,183.2c1.1-0.5,2.4-0.6,3.5-0.3c4,1.8,3.8,1.2,7.1,4.2c3.2,2.9,4.8,7.3,4.2,11.6c-0.4,4.4-1.4,8.2-4.4,11.5
	c-0.8,1-1.7,1.8-2.8,2.4c-2,0.9-4.3,1-6.3,0.3c-8.3-2.3-13.3-10.9-11-19.2C196.7,188.8,200.2,184.9,205,183.2z M207.9,201.4
	c1.8,0.5,3.6-0.5,4.2-2.3c0.5-1.8-0.5-3.6-2.3-4.2c-0.9-0.3-1.9-0.1-2.7,0.3C206,196.8,206.5,200.1,207.9,201.4z"/>
<path class="st8" d="M211,153.3c-1,0.4-2.1,0.6-3.2,0.6c-3-5.2-6.2-10.8-9.5-16.5c0.4-0.7,1-1.4,1.7-1.9L211,153.3z"/>
<path class="st8" d="M211.7,139.3c1.7,2.8,2.6,6,2.5,9.3c0,0.8-0.1,1.6-0.4,2.3c-3.6-5.3-7.3-10.9-11-16.6c1.1-0.1,2.2,0,3.3,0.3
	C208.5,135.4,210.5,137.1,211.7,139.3L211.7,139.3z"/>
<path class="st8" d="M207.8,153.9c-0.7,0-1.4-0.2-2-0.6c-2.5-1.8-4.7-3.9-6.5-6.5c-1.3-2.1-3.1-6.2-1-9.5
	C201.6,143.2,204.8,148.7,207.8,153.9z"/>
<path class="st3" d="M195.3,222.5c0.4-0.6,0.2-0.9,1-1.2c0.9-0.6,2.1-0.6,2.9,0.2c0.8,0.9,1.2,2.1,0.9,3.3c-0.2,2-2,4.4-3.9,3.5
	c-1.2-0.6-1.4-2.3-1.3-3.7C194.8,223.8,195,223.1,195.3,222.5L195.3,222.5z"/>
<path class="st6" d="M211.3,180.1c3,0.8,6.1,2.1,8.1,4.5c2.6,3,3.1,7.2,3,11.1s-0.8,7.9-2,11.6c-0.6,2-1.6,3.9-2.9,5.6
	c-2.7,2.9-6.8,4.3-10.8,3.6c-3.9-0.7-7.4-2.8-10-5.9c-3.3-3.7-5.1-8.5-5.1-13.5c0-4.8,1.3-10.2,4.7-13.5l0.1,0.1
	c2.1-2.1,3.6-3.5,6.3-4.1C205.7,179.1,208.6,179.2,211.3,180.1L211.3,180.1z M205,183.2c-8.1,3-12.2,12-9.2,20.1
	c1.8,4.7,5.7,8.3,10.6,9.6c2.1,0.7,4.3,0.6,6.3-0.3c1.1-0.6,2-1.4,2.8-2.4c2.9-3.3,3.9-7.1,4.4-11.5c0.6-4.3-1-8.7-4.2-11.6
	c-3.3-3-3.1-2.4-7.1-4.2C207.3,182.5,206.1,182.6,205,183.2L205,183.2z"/>
<path class="st8" d="M186.1,154.4c-0.1-0.7-0.3-1.3-0.7-1.9l3.8-0.3c0.9,1.3,1.9,2.6,3,3.8c0.7,0.6,1.2,1.2,1.6,2
	c0.3,0.9,0.4,1.8,0.2,2.8c0,4,0.9,8,2.6,11.7v0.4c-3.2,0.4-6.3,1-9.4,1.7v-0.1c-1.4-2-2.1-4.4-2-6.8
	C184.8,164.8,186.7,157.2,186.1,154.4L186.1,154.4z"/>
<path class="st8" d="M185.5,152.5c-0.6-0.7-1.5-1.3-2.4-1.8c-3.8-2.3-5.2-7.1-5.9-11.5s0.4-15.4,4.2-22.7l0.5-0.2v0.1l0.2-0.1
	c1.6,2.3,1,0.6,2.2,3c-4.9,7.8-1,23.8,5,33L185.5,152.5z"/>
<path class="st8" d="M172.6,67c-1.1-0.2-2-0.9-2.5-1.9c-0.4-0.7-0.5-1.3-0.1-1.7C172.3,62.3,174.1,66.4,172.6,67z"/>
<path class="st8" d="M169.1,61.7c-1,0-1.8-1-2.1-2.2c-0.2-0.5-0.2-1.1-0.2-1.7c1.9-1.3,4.5,2.3,2.7,3.8
	C169.3,61.7,169.2,61.7,169.1,61.7z"/>
<path class="st5" d="M163.8,422.5c2.8,1.4,3.8,4.8,4.5,7.8l-0.2,0.3c0.2,2.6-0.2,5.2-1.4,7.6c-0.4,0.9-1.1,1.7-1.9,2.2
	c-1.7,0.9-3.7,0-5.4-1c-3.6-2.3-6.9-5-9.9-8c-0.3-1.5-0.6-3.2,0.5-4.3c1.2-1.1,2.5-2,3.9-2.7C157,422.6,160.7,420.9,163.8,422.5
	L163.8,422.5z"/>
<path class="st8" d="M166.1,56c-1.8-0.5-3.8-0.9-3.4-3.1c0.4-1.4,2.7-1.4,3.7-0.3S167.7,55.9,166.1,56z"/>
<path class="st0" d="M157.3,55.1c3,0,5.5,2.3,5.7,5.3c0,0.4,0,0.8,0.1,1.3c0.4,2.1,1.4,4,2.9,5.5c1.4,1.5,2.6,3.3,3.5,5.1v0.2
	c7.3,13.2,27,44,28.9,46.4l0.1-0.1c5.7-4.2,14.2-1.9,19,3.3s6.7,12.3,8.1,19.2c0.2,1.4,0.7,2.8,1.6,4c0.9,0.9,2,1.6,3.2,2
	c4.6,2,8.7,4.8,12.3,8.2l0.2,0.2c-5.9,6.5-10.6,12.5-10.5,14.2c1.1,0,1.8,0.2,2.4,0.2v1.2c-0.1,0-0.2,0-0.3,0h-0.1
	c-2.1,0-4.1-0.1-6.2-0.1c-4.3-5.9-9.1-12.8-14.1-20.2c0.3-0.7,0.4-1.5,0.4-2.3c0-3.3-0.9-6.5-2.5-9.3c-1.2-2.2-3.2-3.9-5.6-4.7
	c-1.1-0.3-2.2-0.4-3.3-0.3c-1,0.1-1.9,0.5-2.6,1.1l-0.2,0.2c-0.7,0.5-1.3,1.1-1.7,1.9c-2,3.3-0.3,7.4,1,9.5c1.8,2.5,3.9,4.7,6.5,6.5
	c0.6,0.4,1.3,0.6,2,0.6c3.6,6.4,6.9,12.2,9.7,17.2c-7,0.1-13.9,0.6-20.8,1.6v-0.4c-1.7-3.6-2.6-7.6-2.6-11.7c0.1-0.9,0-1.9-0.2-2.8
	c-0.4-0.8-0.9-1.4-1.6-2c-1.1-1.2-2.1-2.4-3-3.8c-6-9.1-10-25.2-5-33c-1.2-2.4-0.6-0.6-2.2-3l-0.2,0.1c0,0,0,0,0-0.1
	c-3.8-9.1-22.8-39.2-23.8-40.3l-0.2-0.2c-0.9-2.7-4-3.7-6.5-5.1c-2.5-1.5-4.5-3.9-5.5-6.6c-0.2-0.6-0.4-1.2-0.6-1.9
	c-0.3-1-0.1-2.1,0.5-2.9c0.6-0.7,2.1-2.1,3.4-3.4C152.1,54.9,154.4,54.3,157.3,55.1L157.3,55.1z"/>
<path class="st5" d="M156.6,416c-2.2,4-6.1,7.5-10.7,7.8c-0.4,0.1-0.8,0-1.1-0.2c-0.3-0.3-0.5-0.6-0.6-1c-1.4-3.9-2.7-7.8-4.1-11.8
	c-0.2-1.8,0.3-2.4,2.1-2.7c1.9-0.2,3.7,0.2,5.3,1.1c2.9,1.3,5.7,2.8,8.4,4.6c0.5,0.2,0.8,0.6,1,1.2
	C156.9,415.3,156.8,415.7,156.6,416L156.6,416z"/>
<path class="st8" d="M152.4,77.7c-3-0.5-4.6-1-3.7-3.6C152.6,73.6,153,75.3,152.4,77.7z"/>
<path class="st5" d="M145.7,434.6c2.1-0.6,9.5,8.4,11.8,13.6c0.5,0.9,0.7,1.9,0.3,2.9c-0.3,0.5-0.8,0.9-1.4,1.2
	c-3.1,1.7-6.4,2.8-9.9,3.3c-1.3,0.2-2.8,0.1-3.5-0.9c-0.4-0.9-0.5-1.9-0.2-2.9c1.1-5.2,1.4-12,2.5-17.2H145.7z"/>
<path class="st8" d="M146.1,71.4c0.5,1,0.2,2.1-0.7,2.7c-1.1,0.5-3.7-1.6-1.7-3.7v-0.1C144.7,70.3,145.5,70.7,146.1,71.4z"/>
<path class="st8" d="M142.7,69.5c-1.9,0-3.8-4.1-1.7-4.9l0.2,0.1c1,0,1.8,0.5,2.2,1.5c0.6,1.1,0.5,2.7-0.5,3.4
	C142.8,69.5,142.7,69.5,142.7,69.5z"/>
<path class="st4" d="M177.5,431.7c0.8,7.9-5,15-10.7,20.8c-3.7,3.8-7.7,7.5-12.6,9.6c-9.7,4.2-21.4,1.1-29.6-5.6
	c-1.9-1.5-3.7-3.3-5.2-5.2c-4.7-5.9-7-13.2-6.5-20.7l0.2-0.9c-0.7-6.2,1-12.4,4.8-17.4c3.8-4.9,8.9-8.7,14.8-10.8
	c3.4-1.3,7-2,10.6-2c3.9,0.2,7.8,1,11.4,2.5c6.4,2.4,12.1,6.3,16.5,11.5C175.6,418.8,178.1,425,177.5,431.7z M139.4,423.5
	c-0.1-1.5-0.8-3-1.8-4.1c-1.2-1.7-2.6-3.2-4-4.7c-0.8-1.1-2-1.9-3.3-2.3c-1.3-0.3-3,0.4-3.2,1.8l0.1,0.1c-2.3,3.3-3.9,7.1-4.7,11.1
	c-0.2,1-0.2,2.3,0.7,2.8c0.6,0.2,1.2,0.3,1.8,0.1c4.3-0.8,8.5-1.7,12.6-2.9c0.5-0.1,0.9-0.3,1.3-0.7
	C139.3,424.4,139.5,423.9,139.4,423.5L139.4,423.5z M157.5,448.2c-2.3-5.2-9.7-14.2-11.8-13.6h-0.4c-1.1,5.2-1.4,12-2.5,17.2
	c-0.3,0.9-0.3,2,0.2,2.9c0.7,1.1,2.3,1.1,3.5,0.9c3.5-0.5,6.8-1.6,9.9-3.3c0.6-0.3,1-0.7,1.4-1.2C158.2,450.1,158.1,449,157.5,448.2
	L157.5,448.2z M149.5,431.3c3,3,6.3,5.7,9.9,8c1.6,1,3.7,1.9,5.4,1c0.8-0.5,1.5-1.3,1.9-2.2c1.2-2.4,1.6-5,1.4-7.6l0.2-0.3
	c-0.7-3-1.7-6.4-4.5-7.8c-3.1-1.5-6.8,0.1-9.8,1.8c-1.4,0.7-2.8,1.6-3.9,2.7C149,428.2,149.2,429.8,149.5,431.3L149.5,431.3z
	 M140,410.7c1.4,3.9,2.7,7.8,4.1,11.8c0.1,0.4,0.3,0.7,0.6,1c0.3,0.2,0.7,0.3,1.1,0.2c4.6-0.2,8.5-3.7,10.7-7.8
	c0.2-0.3,0.3-0.7,0.3-1c-0.2-0.5-0.5-0.9-1-1.2c-2.6-1.8-5.5-3.3-8.4-4.6c-1.6-0.9-3.5-1.2-5.3-1.1
	C140.3,408.4,139.9,408.9,140,410.7L140,410.7z M138.2,437.7c0.2-1.2,3-5.4,0.4-5.9l-8.4,1.2c-1.6,0.1-3.2,0.5-4.7,1.2
	s-2.6,2.1-2.8,3.8c0,1,0.2,2,0.7,2.9c1.6,3.7,3.5,7.3,5.9,10.6c2.9-3.2,5.5-6.7,7.6-10.4C137.5,440,138,438.9,138.2,437.7
	L138.2,437.7z"/>
<path class="st0" d="M140.3,353.5c1.1,0.5,1.6,1.9,1,3c-0.5,1.1-1.9,1.6-3,1c-0.6-1.1-0.8-2.4-0.7-3.7
	C138.5,352.8,139.3,353,140.3,353.5z"/>
<path class="st5" d="M138.6,431.8c2.6,0.6-0.2,4.8-0.4,5.9c-0.3,1.2-0.7,2.2-1.4,3.2c-2.1,3.8-4.6,7.3-7.6,10.4
	c-2.4-3.3-4.3-6.8-5.9-10.6c-0.4-0.9-0.7-1.9-0.7-2.9c0.2-1.7,1.2-3.1,2.8-3.8c1.5-0.7,3.1-1.1,4.7-1.2L138.6,431.8z"/>
<path class="st3" d="M140.3,353.5c-1-0.5-1.8-0.7-2.6,0.3c-0.1,1.3,0.1,2.6,0.7,3.7c1.1,0.5,2.4,0.1,3-1
	C141.9,355.4,141.4,354,140.3,353.5L140.3,353.5z M134.1,351.5c-0.8-2.8-1.3-7.7,1-9.4s9.2-0.7,12.1-0.5l10.8-0.7
	c0.8-0.2,1.7,0.1,2.3,0.6c0.7,1,0.4,0.7,0.7,1.7c0.3,6.9,0.5,13.8,0.8,20.6c0.1,0.8,0,1.7-0.4,2.4c-0.6,1.1-2,1.4-3.2,1.6
	c-4.1,0.8-8.4,1-12.6,0.9c-3.4-0.1-7.2-0.8-9.2-3.5c-1.3-1.8-1.5-4-1.7-6.2L134.1,351.5z"/>
<path class="st5" d="M127.3,414.2c0.1-1.4,1.7-2.1,3.1-1.8c1.3,0.4,2.4,1.2,3.3,2.3c1.4,1.5,2.8,3.1,4,4.7c1,1.1,1.7,2.6,1.8,4.1
	c0,0.4-0.1,0.9-0.4,1.2c-0.4,0.3-0.8,0.6-1.3,0.7c-4.2,1.2-8.4,2.1-12.6,2.9c-0.6,0.2-1.2,0.1-1.8-0.1c-0.9-0.5-0.9-1.8-0.7-2.8
	C123.5,421.3,125.1,417.5,127.3,414.2L127.3,414.2z"/>
<path class="st1" d="M296.4,349.1l0.2,0.2c-9.3,10-11.8,24.8-10.2,38.3c1.1,9.5,4.5,19.3,11.9,25.5c7.4,6.1,19.6,7,26.1,0
	c1.8-2,3.2-4.3,4.1-6.8c6.6-16.2,1.3-35.7-10.1-49c-2.8-3.3-6-6.3-10.1-7.8S299.5,346.3,296.4,349.1L296.4,349.1z M106.2,346v-4.6
	H94.8l0.3,5C98.8,346.1,102.5,346,106.2,346z M223.6,459.7c-5.1-0.7-7.8-1.2-8.7-2.6l-11.6-18c-1.4-2.2-3-4.6-5.3-5.8
	s-4.8-1.3-7.4-1.4c-1.3,0-2.5-0.1-3.8-0.1h-0.2c-1-10.7-6.5-20.8-13.2-29.3c-3.2-4.1-6.8-8.1-11.4-10.7c-3.1-1.7-6.5-2.8-10-3.5
	c-12.4-2.4-25.9-0.2-36.1,7.4s-16.3,20.4-14.6,32.8l-0.4,0.1v0.5c-1.2,0-3.6,0-4.7,0c-3-0.1-6.2-0.1-8.8,1.5c-2,1.2-3.4,3.3-4.7,5.3
	c-0.5,0.7-0.9,1.5-1.4,2.2l-0.6-0.4c1.3-33.1,2.1-78.5,1.4-111.7c34.6,0.2,69.1,0.3,103.7,0.5l124,0.6c45.8,0.2,91.5,0.4,137.3,0.6
	l1.3-0.1v0.4c1.4,22.9,2.7,46.1,2.8,69.3c0.1,18.2-0.4,36.3-2.1,54.2l0.5,0.3c-0.7,1.4-1.7,2.6-3,3.4c-1.7,0.9-3.7,1.3-5.6,1.4
	l-71.8,6.2c-13.5,1.2-27,2.3-40.5,1.7c-13.1-0.6-26.1-2.8-39.2-3.4C267.8,460,245.3,463.5,223.6,459.7z M161.1,343.2
	c-0.3-1,0.1-0.7-0.7-1.7c-0.6-0.6-1.5-0.8-2.3-0.6l-10.8,0.7c-2.9-0.2-9.7-1.1-12.1,0.5s-1.8,6.6-1,9.4l0.8,7.6
	c0.2,2.2,0.5,4.4,1.7,6.2c2,2.7,5.8,3.4,9.2,3.5c4.2,0.2,8.4-0.1,12.6-0.9c1.2-0.2,2.5-0.6,3.2-1.6c0.4-0.8,0.5-1.6,0.4-2.4
	C161.6,356.9,161.3,350.1,161.1,343.2L161.1,343.2z M402,405.8c1.2,0,2.3-0.9,2.3-2.2c0-0.2,0-0.3,0-0.5c-0.3-1.3-0.7-2.1-2-1.5
	c-0.7,0-1.4,0.4-1.7,1.1c-0.6,1-0.3,2.3,0.7,2.9C401.4,405.7,401.7,405.8,402,405.8z M394.9,382c1.5-2.2,0.8-5.1-0.1-7.6
	c-0.5-1.5-0.1-4.1-1.3-5.2c-2-1.8-5.9-0.5-8.5-0.2l-16.2,2.3c-0.7,0.2-1.4,0.1-2-0.2c-0.5-0.3-0.8-0.8-1-1.4
	c-1.6-3.6-1.9-7.7-0.8-11.5c5.8,0.4,11.7,0.2,17.5-0.6c2.2-0.2,4.4-0.8,6.4-1.8c5.3-2.8,7.3-9.3,4.5-14.6c-1.3-2.4-3.5-4.3-6.1-5.2
	c-2.5-0.7-5-0.9-7.6-0.5c-12.6,1.1-24.8,5.3-35.6,12c-0.3,5.3,1,10.6,2.3,15.8c4.1,15.2,8.6,30.2,13.7,45.1c0.9,2.6,1.6,6.8,4.2,7.6
	c1.7,0.6,4-1.2,5.6-2.2c3.2-2.1,4.8-6.2,4.6-10.1s-3.7-9.2-5.5-12.7h-0.3c-1.4-3.2,0.1-7,3.4-8.3c0.2-0.1,0.4-0.2,0.6-0.2
	c1.5-0.3,3.1-0.2,4.6,0.2c4.5,0.9,9,2.6,13.5,1.6C392.4,384.1,393.9,383.2,394.9,382L394.9,382z M344.8,410.8
	c1.9,1.2,2.6-0.9,2.3-1.6v-0.1c-0.4-1-1.6-1.5-2.6-1.1C343.5,408.2,343.3,410.3,344.8,410.8L344.8,410.8z M276.6,414
	c0.7-0.2,2.5-1.2,2.2-1.9s-0.9-1.9-2.6-1.5C274.9,411,275.2,414,276.6,414z M267.3,394c1.4-1.8,1.2-3.9,0.8-6.2
	c-0.3-2-0.6-3.9-0.9-5.8c-0.1-1-0.4-1.9-0.8-2.8c-1.2-2-3.9-2.3-6.2-2.1c-6.1,0.5-12.8,0.7-17.3,5c-3.8-2.6-4.6-10.4-3.6-14.9h0.4
	l17-4.9c2.5-0.7,4.6-3.8,6.1-5.9c2.4-3.3,1.1-6.1-2.4-8.2s-7.8-2.1-11.8-1.5c-11.4,1.6-23.2,8.2-31,16.6c0.7,14.8,3,29.5,7.1,43.8
	c0.7,3.2,2,6.2,3.7,9c2.3,3.6,1.9,4.4,5.6,7.2s10,2.3,12.3-1.8c1.3-2.5,1-5.5,0.4-8.2c-1-4.9-2.8-9.7-5.1-14.2l0.2-0.1
	c4.9-2.6,10.4-3.7,15.9-3.1C261.1,396.3,265.2,396.7,267.3,394L267.3,394z"/>
<path class="st1" d="M106.2,341.3v4.6c-3.7,0-7.4,0.1-11.1,0.4l-0.3-5H106.2z"/>
<path class="st2" d="M118,412.3c-3.8,5-5.5,11.2-4.8,17.4l-0.2,0.9c-0.5,7.5,1.8,14.9,6.5,20.7c1.5,1.9,3.3,3.6,5.2,5.2
	c8.2,6.7,19.9,9.8,29.6,5.6c4.9-2.1,8.8-5.8,12.6-9.6c5.7-5.7,11.5-12.9,10.7-20.8c0.6-6.8-1.9-12.9-6.2-18.2
	c-4.4-5.2-10.1-9.1-16.5-11.5c-3.6-1.5-7.5-2.4-11.4-2.5c-3.6,0-7.2,0.7-10.6,2C126.9,403.6,121.8,407.4,118,412.3z M101.3,428.4
	c-1.7-12.4,4.5-25.3,14.6-32.8s23.7-9.8,36.1-7.4c3.5,0.6,6.9,1.8,10,3.5c4.6,2.6,8.2,6.6,11.4,10.7c6.7,8.6,12.2,18.6,13.2,29.3
	c0.2,1.6,0.2,3.1,0.2,4.7v0.1c-0.8,9.3-6.4,18.3-12.9,24.9c-7.6,7.6-18,12.1-28.7,13.4c-7.2,0.9-14.7,0.3-21.3-2.8
	c-7.7-3.7-13.5-10.8-17-18.6c-3.5-7.7-4.9-16-5.8-24.4c0-0.2,0-0.3,0-0.5L101.3,428.4z"/>
<path class="st4" d="M85.1,255.5c1.5,20.6,0.7,38.2-0.3,58.9c-12.2-0.3-22.8-0.6-31.2-0.9c-3.8-1-7.9-0.7-11.6,0.8
	c-1.9,0.9-3.4,2.5-4,4.5l-3-0.7c3.9-15.7,8.9-31.1,16.5-45.3c3.3-6.3,7.4-12.2,12.2-17.5c7.1-0.3,14.2-0.5,21.4-0.8L85.1,255.5z"/>
<path class="st0" d="M67.8,444.4c1.6-0.3,3.2,0.4,3.9,1.8c0.9,1.7,0.6,3.8,0.1,5.8c0,0.2-0.1,0.4-0.2,0.7c-0.7,2.9-1.7,5.7-3,8.3
	c-0.3,0.7-0.7,1.3-1.2,1.7c-0.8,0.4-1.8,0.6-2.7,0.5c-6.4-0.1-11-2.5-17.2-0.9c-4.7,0.5-8.4-0.7-13.2-0.1c-2.7,0.3-6.1,0.3-7.6-2
	c-0.6-1.2-0.9-2.6-0.7-4c0.2-2.8,0.7-5.5,1.7-8.2c0.3-1.4,1.2-2.6,2.5-3.4c0.7-0.2,1.5-0.4,2.2-0.3h2.4l31.2-0.1
	C66.6,444.2,67.2,444.3,67.8,444.4L67.8,444.4z"/>
<path class="st1" d="M38,318.9c-0.7,1.7-0.4,3.7,0.9,5.1c1.7,1.7,4.4,1.8,6.8,1.9l36.6,0.2c0.6,33.1-0.1,78.6-1.4,111.7l0.6,0.4
	c-3.1,4.9-6.2,9.9-9.3,14.8l-0.5-0.1c0.1-0.2,0.1-0.4,0.2-0.7c0.5-1.9,0.8-4-0.1-5.8c-0.7-1.4-2.3-2.2-3.9-1.8
	c-0.6-0.1-1.2-0.2-1.7-0.2L35,444.5c-6.1-40.9-3.4-80.7-0.8-122c0.3-1.4,0.7-2.8,1-4.2L38,318.9z"/>
<g>
	<path class="st9" d="M151.6,229l-1.7,0.2c-13.7,1.7-27.3,3.3-41,5c-6.6,0.8-13.3,1.6-19.6,3.7c-10,3.3-18.6,9.5-25.7,17.3
		c-4.8,5.3-8.9,11.1-12.2,17.5C43.9,287,38.9,302.4,35,318.1c-0.4,1.4-0.7,2.8-1,4.2"/>
	<path class="st9" d="M34,322.2v0.2c-2.5,41.3-5.3,81,0.8,122"/>
	<path class="st9" d="M68.9,445c-0.3-0.3-0.7-0.5-1.2-0.6c-0.6-0.1-1.2-0.2-1.7-0.2l-31.2,0.1h-2.4c-0.8,0-1.5,0.1-2.2,0.3
		c-1.2,0.7-2.1,1.9-2.5,3.4c-0.9,2.6-1.5,5.4-1.6,8.2c-0.2,1.4,0.1,2.8,0.7,4c1.5,2.3,4.8,2.3,7.6,2c4.7-0.5,8.4,0.7,13.2,0.1"/>
	<path class="st9" d="M85.1,255.5c1.5,20.6,0.7,38.2-0.3,58.9"/>
	<path class="st9" d="M82.3,326c0.6,33.1-0.1,78.6-1.4,111.7"/>
	<path class="st9" d="M53.6,313.5c-3.8-1-7.9-0.7-11.6,0.8c-1.9,0.9-3.4,2.5-4,4.5c-0.7,1.7-0.4,3.7,0.9,5.1
		c1.7,1.7,4.4,1.8,6.8,1.9l36.6,0.2c34.6,0.2,69.1,0.3,103.7,0.5l124,0.6c45.8,0.2,91.5,0.4,137.3,0.6"/>
	<path class="st9" d="M53.6,313.5c8.5,0.3,19.1,0.6,31.2,0.9c69.8,1.6,189.9,2.2,238.5,2.7c11,0.1,18.3,0.2,20.6,0.4
		c25.3,1.2,54.2,0.1,79.2-0.5c7.1-0.2,13.9-0.3,20.2-0.4h4.1"/>
	<path class="st9" d="M149.9,229.3c3.6-1.3,6.5,0.1,10.3,0.8c-1.3,2.4,0.3,5.5,2.7,6.8s5.2,1.3,7.9,1.3h16.6l48.2-0.2
		c15.1,0,30.2,0,45.3-0.1c6.2,0,12.5-0.1,18.7-0.1c19.1,0,38.2-0.1,57.4-0.2h11.7c8.7,0,17.4,0,26.1,0.6c4.5,0.3,9.1,0.8,13.7,1.2
		c9.4,0.8,18.8,1.2,27.8-1.3"/>
	<path class="st9" d="M438.9,230.5c6.5-0.4,13-0.5,19.6-0.3c1.4,0,2.8,0.1,4.2,0.2h0.5"/>
	<path class="st9" d="M436.7,237.6c0-2.3,0.1-4.6,0.1-6.9c0.7,0,1.3-0.1,2-0.1"/>
	<path class="st9" d="M462.6,230.5c28.8,2.8,56.4,5.2,85.2,7.9c6.7,0.7,13.6,1.3,19.9,3.8c7.7,3,14.2,8.4,19.7,14.5
		c0.1,0,0.1,0.1,0.2,0.2"/>
	<path class="st9" d="M86.1,334.6c12.7,0,25.4,0.3,38.1,0.8"/>
	<path class="st9" d="M86.6,341.3h37.3"/>
	<path class="st9" d="M87.1,347c2.7-0.3,5.3-0.5,8-0.7c3.7-0.3,7.4-0.4,11.1-0.4c5.5,0,10.9,0.3,16.3,0.8"/>
	<path class="st9" d="M86.6,352.4c11.7-1.6,23.6-2,35.4-1.3"/>
	<path class="st9" d="M87.1,357.8c2.7-0.4,7.2-0.5,9.9-0.9c10.6-1.2,14-1,25-0.1"/>
	<path class="st9" d="M87.8,363.5l32.5-1.5"/>
	<path class="st9" d="M87.2,369c12.3-0.5,24.7-0.8,37-0.8"/>
	<path class="st9" d="M87.8,374.4c12.9-1.5,25.9-1.3,38.7,0.6"/>
	<path class="st9" d="M140.3,353.5c-1-0.5-1.8-0.7-2.6,0.3c-0.1,1.3,0.1,2.6,0.7,3.7c1.1,0.5,2.4,0.1,3-1
		C141.9,355.4,141.4,354,140.3,353.5L140.3,353.5z"/>
	<path class="st9" d="M147.2,341.5c-2.9-0.2-9.7-1.1-12.1,0.5s-1.8,6.6-1,9.4"/>
	<path class="st9" d="M161.1,343v0.1c0.3,6.9,0.5,13.8,0.8,20.6c0.1,0.8,0,1.7-0.4,2.4c-0.6,1.1-2,1.4-3.2,1.6
		c-4.1,0.8-8.4,1-12.6,0.9c-3.4-0.1-7.2-0.8-9.2-3.5c-1.3-1.8-1.5-4-1.7-6.2l-0.8-7.6"/>
	<path class="st9" d="M147.2,341.5l10.8-0.7c0.8-0.2,1.7,0.1,2.3,0.6c0.7,1,0.4,0.7,0.7,1.7c0,0.1,0.1,0.2,0.1,0.3"/>
	<path class="st9" d="M63.6,255.3c7.1-0.3,14.2-0.5,21.4-0.8c74.4-2.3,149.7-0.9,224.8,0.6c19.3,0.4,38.6,0.8,57.9,1.1
		c45.6,0.8,91.1,1.4,136.2,0.8"/>
	<path class="st9" d="M503.8,257.1h0.1c18.6,1.7,37.2,2.2,55.8,1.6c2.2-0.1,4.4-0.2,6.6-0.3c5.1-0.2,10.2-0.5,15.3-0.9l5.4-0.4"/>
	<path class="st9" d="M448,317.2v0.5c0.2,3.3,0.4,6.6,0.6,9.9v0.4c1.4,22.9,2.7,46.1,2.8,69.3c0.1,18.2-0.4,36.3-2.1,54.2"/>
	<path class="st9" d="M546.4,406.5c3.1,4.3,5.4,9.6,7.5,14.5c0.3,0.6,0.6,1.3,0.9,1.9c4,7.9,11.3,15.3,19.8,16.7l0.7,0.1"/>
	<path class="st9" d="M522.7,393.5c2.9,0.8,6,1.9,8.8,3c2.2,0.8,4.1,1.6,5.6,2.2c3.6,1.5,6.6,4,8.9,7.1"/>
	<path class="st9" d="M451.7,397.3c17.1,1.2,32.2-1.1,48.4-3.1c4.8-0.6,9.7-1.2,14.8-1.6h0.6c2.4,0,4.8,0.3,7.2,1"/>
	<path class="st9" d="M604.8,331.4c-0.6-0.5-2.9-1.9-3.7-1.7c-0.3,1.1-0.4,2.3-0.2,3.4c0.2,1.7,0.9,3.3,1.9,4.7c2.3-1.2,3.2-4,2-6.2
		C604.8,331.5,604.7,331.4,604.8,331.4"/>
	<path class="st9" d="M612.1,420c-0.1-0.3-0.4-0.5-0.7-0.7c-1-0.4-2.2-0.1-2.9,0.8c-0.7,1.2-1,2.7-0.8,4.1c0.1,2.1,0.4,4.7,2.4,5.5
		c0.3,0.1,0.7,0.2,1,0.2c1.7-0.2,3.1-1.4,3.5-3.1c0.5-2-0.1-4-0.7-6c-0.3-1-1.1-2.3-2.1-1.9c-0.2,0.1-0.4,0.2-0.5,0.4
		c-0.2,0.5-0.4,1.1-0.3,1.6c0.1,2.8,0.2,5.7,0.2,8.5"/>
	<path class="st9" d="M472,348.7c-1.6-0.7-3.4-0.8-5-0.2c-1.8,0.8-3.5,1.9-5,3.2c-1.2-2-4-4.2-6-3s-2.7,5.5-0.5,6.6
		c1.5,0.7,3.2,1.2,4.9,1.3c2.2,0.1,4.3,0.8,6.5,1c2.1,0.2,4.2-0.6,5.5-2.3c0.8-1,1.2-2.3,1.1-3.6C473.3,349.6,473.1,349.1,472,348.7
		z"/>
	<path class="st9" d="M472.7,349.2c-0.2-0.2-0.5-0.3-0.7-0.5"/>
	<path class="st9" d="M496.1,264.5c1.3,16.1,2.1,33.7,2,49.8"/>
	<path class="st9" d="M499.5,264.5c1.3,15.7,3.9,33.6,4.2,49.4v0.5"/>
	<path class="st9" d="M459.2,263.7c10.5,1.4,21.2,1.6,31.8,0.8c1.4-0.1,2.7-0.2,4.1-0.4"/>
	<path class="st9" d="M499.5,264.5c7.6-1,15.2-1.3,22.8-0.8c4.3,0.3,8.8,1,12.4,3.5s5.8,6.7,7.8,10.7c5.9,11.8,11.6,23.7,17,35.7
		c0.1,0.2,0.2,0.5,0.3,0.7"/>
	<path class="st9" d="M457.6,264.5c1.7,16.7,2,48.7,2.6,48.7"/>
	<path class="st9" d="M386.8,274.6c8.2,4.7,16.5,9.3,24.7,14"/>
	<path class="st9" d="M379.5,279.6c7.8,5.3,15.8,10.2,24.1,14.6"/>
	<path class="st9" d="M282.9,271.3c16,9.4,32.5,18,49.4,25.7"/>
	<path class="st9" d="M288.1,286.2l5,2.4"/>
	<path class="st9" d="M633.7,384.8c-1.1-1.8-2.7-3.3-4.5-4.2"/>
	<path class="st9" d="M628.4,381.2c-2.7,8.1-3.5,16.7-2.2,25.1c0,1.1,0.5,2.1,1.4,2.8c0.2,0.1,0.5,0.2,0.7,0.3
		c1.6,0.2,3.2-1.7,4-3.4c1-2.1,1.9-4.3,2.5-6.5c0.7-2.3,1.1-4.7,1.1-7.2c-0.1-2.7-0.8-5.3-2.2-7.5"/>
	<path class="st9" d="M633.7,384.8c-0.7-3.8-2-5.8-3.4-6.6c-2.4-1.4-5.1,0.3-6.3,1.7c-1.9,2.2-2.4,5.2-2.7,8
		c-0.8,6.6-0.9,13.3-0.3,20c0,1.7,0.5,3.3,1.3,4.7c1,1.3,3,2,4.3,1.1s1.4-2.6,1.6-4.3c0.2-1.4,0.4-2.7,1.5-3.4"/>
	<path class="st9" d="M597.3,319.7c1.6,4.3,2.8,8.8,3.5,13.4"/>
	<path class="st9" d="M566.5,259.2c7.2,11.5,11.4,25.2,18.7,36.6c4.9,7.5,9,15.5,12.1,23.8"/>
	<path class="st9" d="M602.8,337.5v0.3c0.5,2.3,0.9,4.6,1.4,6.9c2,9.9,4,19.8,5.9,29.7c1.6,8,3.2,16.1,3.3,24.3
		c0.1,6.1-0.8,14.1-1.6,20.2"/>
	<path class="st9" d="M611.3,429.4c0,0.1-0.1,0.2-0.1,0.4c-0.7,2.4-1.1,4.9-1.1,7.5"/>
	<path class="st9" d="M574.5,439.8c-5.8,0.1-6,1.9-6.4,6.3s2.4,8.4,6.2,10.6l0.3,0.2c3.9,2.1,8.5,2.5,12.9,2.5s8.9-0.4,13.3,0.2
		s8.8,2.5,13.2,2.2c2.5-0.3,5-0.8,7.4-1.5c5.2-1.1,10.6-0.7,15.9-0.1c1.6,0.2,3.3,0.4,4.7-0.4c0.7-0.5,1.4-1,1.9-1.7
		c2.3-2.5,4.7-5.4,4.8-8.8c0.1-3.8-2.8-7.2-6.3-8.7c-2.6-1.1-5.5-1.7-8.3-1.7c-1,0-1.9-0.1-2.9-0.1l-21-0.7l-16.8-0.5
		c-6.1-0.2-12.4-0.3-18,2"/>
	<path class="st9" d="M578.9,444.8c20.5-2.9,38.7,2.8,59.2,0"/>
	<path class="st9" d="M579.5,451.9c19.7,1.1,39.3,1.1,59,0"/>
	<path class="st9" d="M448.7,328c30.1,0.6,65.1,2.9,95.2,3.5c18.9,0.4,43.7,3.9,60.3,13.2c0.4,0.2,0.8,0.4,1.1,0.6"/>
	<path class="st9" d="M604.8,345l0.6,0.3c6,3,10.7,8.1,14.4,13.7c3.8,5.8,7.1,13.2,10.6,19.2"/>
	<path class="st9" d="M581.7,257.7c0.1,0.7,0.2,1.4,0.3,2.1c1.7,8.9,6.9,16.8,12,24.4c6.3,9.3,12.7,18.6,19.2,27.9
		c1,1.5,2,2.9,3.1,4.4"/>
	<path class="st9" d="M616.3,316.5c16.9,33,26.9,75,23.4,112.5c-0.3,3.3-0.7,6.6-1.3,9.9"/>
	<path class="st9" d="M635.6,399.5c1.3,8.4,3.7,20.8,4,29.5v0.5"/>
	<path class="st9" d="M66.8,444.9c0.3-0.3,0.6-0.5,1-0.6c1.6-0.3,3.2,0.4,3.9,1.8c0.9,1.7,0.6,3.8,0.1,5.8c0,0.2-0.1,0.4-0.2,0.7
		c-0.7,2.9-1.7,5.7-3,8.3c-0.3,0.7-0.7,1.3-1.2,1.7c-0.8,0.4-1.8,0.6-2.7,0.5c-6.4-0.1-11-2.5-17.2-0.9"/>
	<path class="st9" d="M186.8,431.7c1.3,0,2.5,0.1,3.8,0.1c2.5,0.1,5.2,0.2,7.4,1.4s3.9,3.6,5.3,5.8l11.6,18c1,1.5,3.6,2,8.7,2.6"/>
	<path class="st9" d="M72.1,452.8c3.1-4.9,6.2-9.9,9.3-14.8c0.5-0.7,0.9-1.5,1.4-2.2c1.3-2,2.6-4.1,4.7-5.3c2.6-1.6,5.8-1.5,8.8-1.5
		h4.7h0.2"/>
	<path class="st9" d="M557.3,439.3l10.7,15.9c0.7,1.4,1.9,2.4,3.3,3.1c1.5,0.5,2.3,0.2,2.8-1.3"/>
	<path class="st9" d="M219.2,458.8c1.5,0.3,3,0.6,4.4,0.9c21.7,3.8,44.2,0.3,66.2,1.3c13.1,0.6,26.1,2.8,39.2,3.4
		c13.5,0.6,27-0.6,40.5-1.7l71.8-6.2c1.9,0,3.9-0.5,5.6-1.4c1.3-0.8,2.3-2,3-3.4c0.6-1.2,1.2-2.4,1.7-3.7
		c4.7-11.6,11.7-22.6,21.5-30"/>
	<path class="st9" d="M448.7,317.6c10,0.6,75.5-0.3,119.2,0.8c11.9,0.3,22.2,0.7,29.3,1.3"/>
	<path class="st9" d="M251.5,260.9c-20.9-1.3-41.8-1.3-62.6,0.1c-1.3,0-2.6,0.3-3.8,0.9c-2.7,1.6-2.8,5.3-2.7,8.3l1.7,33.1
		c0.1,2.1,0.3,4.4,1.6,6.1c1.8,2.4,5.1,2.8,8.1,3c17.5,1.2,35,1.2,52.4,0c2-0.1,4.1-0.4,5.5-1.8c1.6-1.6,1.7-4.2,1.6-6.5
		c-0.4-11.8-0.7-23.6-1.1-35.4C252.1,266.3,253,262.9,251.5,260.9L251.5,260.9z"/>
	<path class="st9" d="M327.2,259.6l-1-0.2"/>
	<path class="st9" d="M327.2,259.6c-7.1-0.8-12.5-1.2-17.4-1.3c-8.5-0.1-15.6,0.6-27.8,1.7c-2.3,0.2-4.8,0.5-6.6,2
		c-2.4,2.1-2.5,5.7-2.5,8.9c0,11.8,0,23.5,0.1,35.3c0,1.5,0.1,3.2,1.3,4c0.7,0.4,1.4,0.6,2.2,0.7c15.6,2,31.2,3,46.9,3
		c4.3,0,8.6-0.1,12.9-0.2c1.9,0.1,3.9-0.3,5.6-1.2c3-1.9,3.6-6,3.8-9.6c0.5-11.9,0.1-23.9-1.3-35.7c0.3-2.6-1.7-5-4.3-5.2
		c-0.2,0-0.4,0-0.5,0L327.2,259.6z"/>
	<path class="st9" d="M423.2,262.2c-20.8-0.7-34.8-0.6-55.5-1.3c-1.3,0-2.8,0-3.8,0.8c-0.8,0.9-1.2,2-1.3,3.2
		c-2.2,14.6-3,29.4-2.4,44.1c-0.1,1,0.2,2,0.7,2.9c0.8,0.9,1.9,1.4,3.1,1.5c9.4,2,19,2,28.7,2c10.5,0,13.7-0.5,24.3-0.5
		c1,0,3.4,0,6.1-0.1c3.9-0.2,8.3-0.5,9.5-1.3c3.3-2.3,2.5-6.7,2.5-10.7c-0.1-9.4-0.2-18.8-0.4-28.2c0-3.3-0.3-5.1-2-7.9
		S427.2,262.1,423.2,262.2"/>
	<path class="st9" d="M563.2,263.4c-1,0-2.1,0-3.2,0.1c-5,0.3-11.3,1-15.6,1c-0.7,0,0.1,0.2-0.3,0.7c-0.3,0.5-0.5,1.1-0.4,1.7
		c0.3,4.8,2.3,9.2,4.4,13.5c4.7,9.9,9.5,19.8,14.3,29.7c0.6,1.7,1.7,3.1,3.1,4.2c0.8,0.6,1.7,0.9,2.7,0.9c0.5,0,1.1,0,1.8-0.1
		c4.7-0.3,3-0.5,7.7-0.8c1-0.1,6.1,0.1,6.9-0.5c1.4-1.1,2-2.9,1.6-4.6c-0.5-1.7-1.4-3.2-2.5-4.6
		C574.5,291.9,569.2,277.9,563.2,263.4"/>
	<path class="st9" d="M582,259.9c-2,0.3-8.6,0.5-10.6,0.8c-0.1,3.3,2.8,6.8,4.3,9.7c7,13.3,13.3,26.2,20.3,39.5c1,1.8,2.2,4,4.2,4.4
		c0.9,0.2,0.9-0.1,1.8-0.3l10.9-1.7"/>
	<path class="st9" d="M503.2,313.8h0.6c5.5,0.5,16.4,0.1,21.6,0.2c11.8,0.3,14.5,0.3,22.2-1c0.1,0,11.7,0.6,11.8,0.6"/>
	<path class="st9" d="M459.7,313.2c0.1,0.1,0.3,0.2,0.4,0.3c4.2,1.9,31.1,0.4,38,0.9"/>
	<path class="st9" d="M217.6,363.2c0.7,14.9,3.1,29.6,7.1,43.9c0.7,3.2,2,6.2,3.7,9"/>
	<path class="st9" d="M217.6,363.2c7.8-8.4,19.7-15,31-16.6c4-0.6,8.4-0.6,11.8,1.5s4.7,5,2.4,8.2c-1.5,2.1-3.6,5.2-6.1,5.9l-17,4.9
		"/>
	<path class="st9" d="M239.3,367.2c-1,4.5-0.1,12.2,3.6,14.9"/>
	<path class="st9" d="M243,382c4.4-4.3,11.1-4.4,17.3-5c2.3-0.2,5,0.1,6.2,2.1c0.5,0.9,0.7,1.8,0.8,2.8c0.3,2,0.6,3.9,0.9,5.8
		c0.3,2.2,0.5,4.4-0.8,6.2c-2.1,2.8-6.2,2.4-9.6,2c-5.5-0.6-11.1,0.5-15.9,3.1"/>
	<path class="st9" d="M241.5,399c0,0,0.1,0.1,0.1,0.2c2.3,4.5,4.1,9.2,5.1,14.2c0.6,2.7,0.9,5.8-0.4,8.2c-2.3,4.1-8.5,4.6-12.3,1.8
		s-3.3-3.6-5.6-7.2"/>
	<path class="st9" d="M304.2,368.3c-4,7.3-4.1,11.9-1.1,19.7c0.6,1.8,1.7,3.4,3.2,4.7c1.5,1.2,3.6,1.5,5.4,0.8
		c1.7-0.8,2.6-2.5,3.4-4.2c1.9-4,3.6-8.5,2.8-12.9s-3.5-10.8-8-10.3C307.1,366.5,306.3,366.3,304.2,368.3L304.2,368.3z"/>
	<path class="st9" d="M296.6,349.3c-9.3,10-11.8,24.8-10.2,38.3c1.1,9.5,4.5,19.3,11.9,25.5c7.4,6.1,19.6,7,26.1,0
		c1.8-2,3.2-4.3,4.1-6.8c6.6-16.2,1.3-35.7-10.1-49c-2.8-3.3-6-6.3-10.1-7.8s-8.9-3.2-12-0.4c-0.1,0-0.1,0.1-0.1,0.1"/>
	<path class="st9" d="M344.1,347.5c-0.3,5.3,1,10.6,2.3,15.8c4.1,15.2,8.6,30.2,13.7,45.1c0.9,2.6,1.6,6.8,4.2,7.6
		c1.7,0.6,4-1.2,5.6-2.2c3.2-2.1,4.8-6.2,4.6-10.1s-3.7-9.2-5.5-12.7"/>
	<path class="st9" d="M344.1,347.5c10.7-6.7,22.9-10.9,35.6-12c2.5-0.3,5.1-0.2,7.6,0.5c5.7,1.9,8.7,8,6.8,13.7
		c-0.9,2.6-2.7,4.8-5.2,6.1c-2,1-4.2,1.6-6.4,1.8c-5.8,0.8-11.7,1-17.5,0.6"/>
	<path class="st9" d="M365,358.2c-1.1,3.8-0.8,7.8,0.8,11.5c0.2,0.5,0.5,1,1,1.4c0.6,0.3,1.3,0.3,2,0.2L385,369
		c2.6-0.4,6.6-1.6,8.5,0.2c1.2,1.1,0.8,3.7,1.3,5.2c0.8,2.5,1.6,5.5,0.1,7.6c-1,1.2-2.4,2.1-4,2.3c-4.5,0.9-9-0.7-13.5-1.6
		c-1.5-0.4-3.1-0.5-4.6-0.2c-3.4,1-5.3,4.6-4.2,7.9c0.1,0.2,0.1,0.4,0.2,0.6"/>
	<path class="st9" d="M276.2,410.6c-1.3,0.4-1,3.4,0.4,3.3c0.7-0.2,2.5-1.2,2.2-1.9S277.9,410.2,276.2,410.6z"/>
	<path class="st9" d="M347.1,409.2c-0.4-1-1.6-1.5-2.6-1.1c-0.9,0.1-1.2,2.3,0.3,2.8C346.7,412.1,347.4,410,347.1,409.2"/>
	<path class="st9" d="M402.3,401.6c-0.7,0-1.4,0.4-1.7,1.1c-0.6,1-0.3,2.3,0.7,2.9c0.2,0.1,0.5,0.2,0.7,0.3c1.2,0,2.3-0.9,2.3-2.2
		c0-0.2,0-0.3,0-0.5C403.9,401.8,403.5,401,402.3,401.6L402.3,401.6z"/>
	<path class="st9" d="M197.1,275.5l23.2,18.5"/>
	<path class="st9" d="M194.4,285.2c2.8,1.1,5.5,2.6,7.8,4.5"/>
	<path class="st9" d="M227.9,269.1c5.3,3.8,10.2,8.1,14.7,12.8"/>
	<path class="st9" d="M468.6,289.7c3.4,2.6,6.4,5.8,8.7,9.5"/>
	<path class="st9" d="M441,114.7c-1.5-0.9-3.6,0.3-4.2,1.9c-0.5,1.7,0.5,3.4,2.2,3.9h0.2c0.5,0.1,1,0,1.4-0.2
		c1.2-0.4,2.1-1.5,2.2-2.8c0-0.3,0-0.7-0.1-1C442.4,115.7,441.8,115,441,114.7"/>
	<path class="st9" d="M440.7,120.9l3.9,4.7l1.1,1.4c0.3,0.3,0.5,0.6,0.8,1l0.2,0.3"/>
	<path class="st9" d="M442.9,116.6c2.6,5,5.5,9.8,8.9,14.3c-0.5,1.4-2.7,0.5-3.4-0.7s-1.6-2.3-2.6-3.2"/>
	<path class="st9" d="M444.6,125.6c0.4,30.9,0.8,62.4,1.2,93.3"/>
	<path class="st9" d="M446.4,128.1c1.1,32,1.9,65.2,2.2,97.2"/>
	<path class="st9" d="M445.8,218.9c-0.2,2.1-0.4,3.8-0.6,5.8v0.5"/>
	<path class="st9" d="M445.8,218.9c0.4-0.5,1.8,0,2.4,0c0.3,2.5,0.1,3.9,0.4,6.3v0.3c-1-0.5-2.4-0.5-3.4-0.9"/>
	<path class="st9" d="M435.6,226.3c1.2-0.5,2.4-0.8,3.7-1.1c4.2-1.3,8.9,0.9,13.2,1.8c2.5,0.5,5.1,1.1,7.1,2.8
		c-0.3,0.3-0.7,0.5-1.1,0.5c-0.5,0.1-1,0.2-1.5,0.1c-5.5,0-10.9,0.1-16.4,0.2c-0.5,0-1.1,0-1.6,0h-0.1c-0.9,0-1.8-0.3-2.6-0.8
		C435,228.8,434.3,227.1,435.6,226.3"/>
	<path class="st9" d="M234.2,171.2c-2.1,0-4.1-0.1-6.2-0.1h-6.2c-1.4,0-2.8,0-4.2,0.1c-7,0.1-13.9,0.6-20.8,1.6
		c-3.2,0.4-6.3,1-9.4,1.7c-2.6,0.5-5.2,1.2-7.7,2"/>
	<path class="st9" d="M236.6,171.3h-1.9c-0.1,0-0.2,0-0.3,0"/>
	<path class="st9" d="M316.6,173.3l-7.1-0.2c-4.1-0.1-8.3-0.2-12.4-0.3c-4.4-0.1-8.8-0.2-13.3-0.3c-3.5-0.1-7.1-0.2-10.6-0.3
		l-10.8-0.3l-9.4-0.2c-2.6-0.1-5.2-0.1-7.8-0.2l-5.7-0.1l-2.9-0.1"/>
	<path class="st9" d="M361.4,174.8h-1.2c-0.7,0-1.4-0.1-2.1-0.1h-1.2l-5.8-0.2l-4.9-0.2"/>
	<path class="st9" d="M403.6,176.5c-14.1-0.7-28.2-1.3-42.2-1.8"/>
	<path class="st9" d="M179.7,177c2.3,20.2,4.9,40.4,7.6,60.6"/>
	<path class="st9" d="M403.6,176.5c1-0.1,2.1-0.2,3.1-0.2c2.4-0.2,4.9,0.3,7,1.6c2.3,1.8,3.7,4.4,3.8,7.3c0.2,2.8-0.1,5.7-0.8,8.5
		c-2.8,14.9-5.6,29.8-8.4,44.7"/>
	<path class="st9" d="M208.5,182.9c-1.2-0.3-2.4-0.2-3.5,0.3c-8.1,3-12.2,12-9.2,20.1c1.8,4.7,5.7,8.3,10.6,9.6
		c2.1,0.7,4.3,0.6,6.3-0.3c1.1-0.6,2-1.4,2.8-2.4c2.9-3.3,3.9-7.1,4.4-11.5c0.6-4.3-1-8.7-4.2-11.6
		C212.3,184.1,212.5,184.7,208.5,182.9L208.5,182.9z"/>
	<path class="st9" d="M207.1,195.3c1.6-0.9,3.6-0.4,4.6,1.2c0.9,1.6,0.4,3.6-1.2,4.6c-0.8,0.5-1.8,0.6-2.7,0.3"/>
	<path class="st9" d="M207.1,195.3c-1.2,1.5-0.6,4.8,0.7,6.1"/>
	<path class="st9" d="M196.2,221.3c-0.7,0.3-0.5,0.6-1,1.2c-0.3,0.6-0.5,1.3-0.4,2c0,1.4,0.1,3.1,1.3,3.7c1.8,0.9,3.6-1.4,3.9-3.5
		c0.2-1.2-0.1-2.4-0.9-3.3C198.2,220.8,197.1,220.7,196.2,221.3L196.2,221.3z"/>
	<path class="st9" d="M220,222.4c-1.9,0.2-3.3,1.9-3.1,3.8c0,0.2,0,0.3,0.1,0.5c0.7,1.9,3.7,2.5,4.8,0.8S221.9,221.7,220,222.4z"/>
	<path class="st9" d="M386.5,197.8c-1,0.5-1.2,2.7-0.6,3.8c0.8,1.1,2.2,1.4,3.4,0.8c1.1-0.7,1.8-1.9,1.7-3.2
		c0.1-1.1-0.4-2.1-1.3-2.7C388.7,195.9,386.7,196.8,386.5,197.8L386.5,197.8z"/>
	<path class="st9" d="M388.5,185.9h-0.3c-4.6,0-8.8,3-11.1,7s-2.3,8.8-2,13.5c0.2,2.9,4.9,7.3,6,7.4c3.9,0.3,7.8,0.8,11-1.3
		c1.9-1.2,3.4-2.8,4.6-4.7c2.2-4,3.5-8.8,2-13.1s-5.3-8.8-9.9-8.8"/>
	<path class="st9" d="M369.1,222.6c-0.9,0.1-1.6,0.5-2.1,1.2c-0.5,1.1-0.6,2.4-0.3,3.6c1.6,0.5,3.3-0.1,4.2-1.5
		C371.7,224.5,371.5,222.9,369.1,222.6L369.1,222.6z"/>
	<path class="st9" d="M398,221.9c-1.2,0-3.2,1.5-2.6,3.4s4,2.1,4.9,0.2S400.1,221.6,398,221.9L398,221.9z"/>
	<path class="st9" d="M398.2,222c-0.1,0-0.1,0-0.2,0"/>
	<path class="st9" d="M378.7,186.5c-4.9,4.2-5.6,11.4-6,17.8c-0.2,3.1-0.3,6.5,1.6,9.1c1.7,2.3,4.6,3.4,7.5,3.6
		c6.8,0.5,13.4-2.8,17.1-8.6c3.5-5.9,3.7-13.2,0.4-19.2c-1.8-3.2-4.8-6-8.4-6.6C386.2,181.9,382.5,183.8,378.7,186.5z"/>
	<path class="st9" d="M196.7,183.4l-0.2,0.2c-3.4,3.3-4.7,8.8-4.7,13.5c0,5,1.9,9.8,5.2,13.5c2.6,3.1,6.1,5.1,10,5.9
		c4,0.7,8-0.6,10.8-3.6c1.3-1.7,2.3-3.6,2.9-5.6c1.2-3.8,1.9-7.7,2-11.6s-0.5-8.1-3-11.1c-2-2.4-5.1-3.7-8.1-4.5
		c-2.7-0.9-5.6-1-8.5-0.5c-2.8,0.7-4.3,2-6.3,4.1"/>
	<path class="st9" d="M235.1,171.4c-0.2-0.1-0.5-0.2-0.7-0.2h-0.1c-1.2,0.1-2.2,0.8-2.7,1.9c-0.5,1.4-0.7,2.9-0.4,4.4l2,27.1
		c0.1,1.2,0.2,2.4,0.3,3.6l2.1,28.5"/>
	<path class="st9" d="M348.4,173.5c3.2,0.3,6.5,0.6,9.7,1c0.7,0.1,1.4,0.1,2.1,0.2h0.6c0.2,0,0.4,0,0.6,0.1c1.4,0.1,2.8,0.5,4.1,1.2
		c2.9,1.9,3.3,6,3.1,9.5c-0.7,7.7-2,15.3-4.1,22.8c-0.4,1.4-0.7,2.9-1.1,4.3c-0.1,0.3-0.1,0.5-0.2,0.8c-1.9,7.3-4.4,16.9-6.2,24"/>
	<path class="st9" d="M235.6,171.3h1h0.1l10.1-0.2c2.2,0,4.4-0.1,6.7-0.1c1.2,0,2.4,0,3.7-0.1c10.9-0.2,21.8-0.4,32.6-0.4h1.4
		c3.8,0,7.6,0.1,11.5,0.2c0.6,0,1.5-0.6,2.1-0.6"/>
	<path class="st9" d="M234.1,204.5h8.2h8.1h8h10.2l15.5,0.1h7.1h7.3c3.2,0,6.4,0.2,9.6,0.4c0.8,0.1,1.6,0.1,2.3,0.2c3,0.3,6,0.7,9,1
		c1.4,0.2,2.8,0.3,4.2,0.5c2,0.2,3.9,0.4,5.9,0.5c2.5,0.2,5,0.3,7.4,0.4c1.9,0.1,3.8,0.2,5.7,0.2c2.3,0.1,4.6,0.1,7,0.1s4.8,0,7.1,0
		h7.4"/>
	<path class="st9" d="M236.4,208.4H235"/>
	<path class="st9" d="M233.6,208.2c0.7,0,1.4,0.1,2.2,0.1c17.7,1,35.4-1.6,53,0c4.2,0.4,8.4,1.1,12.6,1.5c5.3,0.6,10.6,0.8,16,1.1
		l45.3,2.2"/>
	<path class="st9" d="M302.1,215.8c-1.5-0.5-3.2-0.7-4.8-0.7c-2,0-4.1-0.1-6.1-0.2c-0.4,0-1,0.1-1.1,0.5c-0.2,0.6,0.3,3.1,0.9,3.1
		c2.7,0,5-0.1,7.7,0c0.9,0.1,1.8,0.1,2.8,0C301.9,217.7,302.1,216.7,302.1,215.8L302.1,215.8z"/>
	<path class="st9" d="M350.5,174.2c0.2,0.1,0.3,0.1,0.5,0.2c2.3,1.3,3.6,5.2,3.9,7.7c0.1,2.8-0.3,5.5-1.1,8.2
		c-1.4,5.4-2.8,12.1-4.2,17.5"/>
	<path class="st9" d="M356.8,174.6c2.4,1.2,3.6,4.5,4,7.1c0.2,2.7,0,5.3-0.6,7.9c-1.2,6.5-2.3,12.1-3.5,18.5"/>
	<path class="st9" d="M343.8,174.8l0.3,0.1c1.5,0.8,2.6,3.4,2.9,4.9c0.3,1.7,0.3,3.5,0,5.2c-0.9,7.7-2.4,15.3-4.5,22.8"/>
	<path class="st9" d="M246.1,171.6c-0.3-0.1-0.6-0.1-0.9-0.1c-1.6,0-4,0.9-4.5,2c-0.7,1.3-1.1,9.2-1.1,10.7
		c-0.1,8.7-0.1,12,2.8,20.2"/>
	<path class="st9" d="M253,172.1c-2.1,1.4-5.3,6.6-5.6,10.6c-0.6,7.8,0.8,14.2,3,21.7"/>
	<path class="st9" d="M262.4,172.4c-3.3,0.9-3.7,4.3-4.8,7.6c-1.1,3.2-1.4,6.7-1.1,10.1c0.2,4.8,0.9,9.6,2,14.3"/>
	<path class="st9" d="M273.3,172.5c-3.9,2.8-4.6,8.3-4.8,13.1c-0.2,6.1-0.2,12.2,0.1,18.3"/>
	<path class="st9" d="M283.9,172.8c-0.2,4.4,0.4,25.7,0.2,31.4"/>
	<path class="st9" d="M297.2,172.8c0.8,0.2,1.9,3.8,1.9,4.7c0,8.8-0.6,17.9-0.6,26.7"/>
	<path class="st9" d="M309.6,173.9c3.1,4.7,1.4,20,0.8,31.5"/>
	<path class="st9" d="M318.2,173.5c2.2,1.4,3.5,4.9,3.9,7.5c0.3,2.6,0.2,5.3-0.3,7.9c-1,6.2-2.3,16.5-2.4,17.6v0.1"/>
	<path class="st9" d="M328.7,175.2c3,1.7,3.1,5,3,8.4c-0.3,8.5-2.5,15.3-2.2,23.8v0.2"/>
	<path class="st9" d="M337.5,175.4c3.1,3.4,3.2,6.1,2.3,12c-1.1,7.3-0.4,13.3-2.8,20.4"/>
	<path class="st9" d="M245.2,158.3c3.2,3.9,6,8.2,8.3,12.7c0.1,0.1,0.1,0.3,0.2,0.4"/>
	<path class="st9" d="M198.5,118.8c5.7-4.2,14.2-1.9,19,3.3s6.7,12.3,8.1,19.2c0.2,1.4,0.7,2.8,1.6,4c0.9,0.9,2,1.6,3.2,2
		c4.6,2,8.7,4.8,12.3,8.2"/>
	<path class="st9" d="M181.3,116.5c-3.7,7.3-4.8,18.3-4.2,22.7s2.1,9.3,5.9,11.5c0.9,0.4,1.7,1,2.4,1.8c0.3,0.6,0.6,1.2,0.7,1.9
		c0.5,2.8-1.3,10.4-0.8,13.2"/>
	<path class="st9" d="M200.3,135.4l-0.2,0.2c-0.7,0.5-1.3,1.1-1.7,1.9c-2,3.3-0.3,7.4,1,9.5c1.8,2.5,3.9,4.7,6.5,6.5
		c0.6,0.4,1.3,0.6,2,0.6c1.1,0,2.2-0.2,3.2-0.6c0.9-0.4,1.7-0.9,2.4-1.6c0.2-0.3,0.4-0.5,0.6-0.9c0.3-0.7,0.4-1.5,0.4-2.3
		c0-3.3-0.9-6.5-2.5-9.3c-1.2-2.2-3.2-3.9-5.6-4.7c-1.1-0.3-2.2-0.4-3.3-0.3C201.9,134.4,201,134.8,200.3,135.4"/>
	<path class="st9" d="M169.5,72.5c7.3,13.2,27,44,28.9,46.4c0,0,0,0.1,0.1,0.1"/>
	<path class="st9" d="M157.3,55.1c-2.8-0.8-5.1-0.2-8,0.7c-1.3,1.3-2.8,2.7-3.4,3.4c-0.6,0.8-0.8,1.9-0.5,2.9
		c0.1,0.6,0.3,1.3,0.6,1.9c1,2.8,3,5.1,5.5,6.6c2.4,1.5,5.6,2.5,6.5,5.1"/>
	<path class="st9" d="M156.6,55.2c0.2,0,0.4,0,0.7-0.1c3,0,5.5,2.3,5.7,5.3c0,0.4,0,0.8,0.1,1.3c0.4,2.1,1.4,4,2.9,5.5
		c1.4,1.5,2.6,3.3,3.5,5.1"/>
	<path class="st9" d="M163.4,55.3l-1.8,1.7"/>
	<path class="st9" d="M162.7,52.9c-0.4,2.3,1.6,2.7,3.4,3.1c1.6-0.1,1.3-2.3,0.3-3.5S163.1,51.5,162.7,52.9z"/>
	<path class="st9" d="M166.6,59.6c-1.4,0-2.7,0.8-3.4,2"/>
	<path class="st9" d="M166.7,57.8c0,0.6,0.1,1.1,0.2,1.7c0.3,1.1,1.1,2.2,2.1,2.2h0.4C171.2,60.2,168.6,56.6,166.7,57.8"/>
	<path class="st9" d="M170,65.2c-0.8,0.9-1.8,0.9-2.6,1.8"/>
	<path class="st9" d="M170,63.5c-0.4,0.3-0.3,1,0.1,1.7c0.5,1,1.4,1.6,2.5,1.9C174.2,66.4,172.3,62.3,170,63.5"/>
	<path class="st9" d="M145.8,64c-0.6,1.5-1,1.4-2.4,2.1h-0.1"/>
	<path class="st9" d="M140.9,64.6c-2,0.9-0.1,4.9,1.7,4.9h0.2c1.1-0.7,1.1-2.2,0.5-3.4c-0.3-0.9-1.2-1.5-2.2-1.5"/>
	<path class="st9" d="M149.2,69c-1.3,0.7-1.6,1.6-2.9,2.4"/>
	<path class="st9" d="M143.7,70.5c-2,2,0.5,4.2,1.7,3.7c0.9-0.6,1.2-1.8,0.7-2.7C145.5,70.8,144.6,70.4,143.7,70.5"/>
	<path class="st9" d="M153.8,72.3c-0.7,0.9-1,1.4-1.7,2.3"/>
	<path class="st9" d="M148.8,74.1c-0.9,2.6,0.6,3.1,3.7,3.6C153,75.3,152.6,73.6,148.8,74.1z"/>
	<path class="st9" d="M156.6,59.6v-0.7"/>
	<path class="st9" d="M158.1,76c1,1.1,20,31.2,23.8,40.3v0.1v0.1"/>
	<path class="st9" d="M184.3,119.2c-4.9,7.8-1,23.8,5,33c0.9,1.3,1.9,2.6,3,3.8c0.7,0.6,1.2,1.2,1.6,2c0.3,0.9,0.4,1.8,0.2,2.8
		c0,4,0.9,8,2.6,11.7"/>
	<path class="st9" d="M182.1,116.2c1.6,2.3,1,0.6,2.2,3"/>
	<path class="st9" d="M150.4,61c4.2,1.9,28,41.9,48,76.4c3.3,5.7,6.5,11.3,9.5,16.5c3.6,6.4,6.9,12.2,9.7,17.3"/>
	<path class="st9" d="M161.6,67c0.4,2.3,20.7,35.9,41.3,67.3c3.7,5.7,7.4,11.2,11,16.6c5,7.4,9.8,14.3,14.1,20.2"/>
	<path class="st9" d="M156.6,59.6c-1,3.2,22.4,41.6,43.5,75.9l10.9,17.8c4,6.5,7.7,12.5,10.8,17.8"/>
	<path class="st9" d="M185.4,167.3v0.3c-0.1,2.4,0.6,4.8,2,6.8"/>
	<path class="st9" d="M228.8,154.5c2.7,1.9,5.1,4.3,7,7"/>
	<path class="st9" d="M255.6,33.2l-0.4-0.1c-5.5-1.1-11.1-1.4-16.7-0.9c-2.8,0.3-7.7,1-8.2,3.8s3.5,5.2,5.8,6.7
		c5.2,3.4,19.7,8.4,20.2,7.7"/>
	<path class="st9" d="M255.1,33.2c10.3,2.7,15.7,4.6,23.2,10.9c1.1,0.8,1.9,1.9,2.4,3.2c0.7,2.3-1.1,4.7-3.3,5.7
		c-1.5,0.7-3.2,0.7-7.1,0.5c-4-0.4-7.9-1.2-11.8-2.5"/>
	<path class="st9" d="M256.4,39.5c0.3,3.6,0.2,7.3-0.2,11c-0.6,6-1.7,12.1-1.4,19.8"/>
	<path class="st9" d="M259.1,41c-0.4,3.2-0.7,6.5-1,9.9c-1.2,14.4-1.4,28.9-0.6,43.3"/>
	<path class="st9" d="M254.8,70.2c-0.2,7.8-0.3,15.7-0.3,23.5c0.1,13.6,0.6,27.2,1.4,40.9c0.1,1.2,0.2,2.4,0.3,3.6s0.2,2.6,0.3,3.9"
		/>
	<path class="st9" d="M257.4,93.3v0.2v0.6V96c0.1,5.5,0.3,10.7,0.5,15.7c0.3,7.6,0.8,14.9,1.2,22.9c0,1.3,0.1,2.5,0.2,3.8
		c0,0.9,0.1,1.8,0.1,2.7v0.5"/>
	<path class="st9" d="M256.3,142.2c-4.2,3.8-9.2,8.9-13.5,13.6c-5.9,6.5-10.6,12.5-10.5,14.2c1.1,0,1.8,0.2,2.4,0.2
		c1,0,1.3-0.4,2.5-2.3c2.2-3.6,4.8-7,7.7-10.1c0.7-0.8,1.4-1.5,2-2.3c3.2-3.5,6.6-6.9,9.6-10.1"/>
	<path class="st9" d="M260.1,147.2c1.5,1.8,3.4,3.4,5.4,4.6c0.9,0.6,2.3,1.7,4.1,3c0.9,0.7,1.9,1.4,2.9,2.2
		c6.4,5,14.8,11.8,17.3,13.4c0.4,0.2,0.6,0.4,0.7,0.3c0.3-0.1,0.5-0.2,0.7-0.3c0.7-0.6-0.1-1.8-1-3c-1.2-1.4-2.6-2.6-4.2-3.6
		c-9.1-6.4-25.4-21.7-26.4-22.7"/>
	<path class="st9" d="M256.5,145.3c-0.4,3-0.9,10.1-1.1,15c0,1.2-0.1,2.2-0.1,3c0,0.6,0,1.1,0.1,1.7c0.8,0.9,2.1,1,3,0.3
		c0.2-0.7,0.3-1.4,0.3-2.2c0.1-0.9,0.2-2.1,0.3-3.4c0.3-3.8,0.7-8.9,0.7-12.5v-0.5"/>
	<path class="st9" d="M245.2,158l0.1,0.1c2.4,1.5,7.4,3.7,9.7,5.2"/>
	<path class="st9" d="M247.2,155.7c1.6,1.2,6.2,3.3,7.8,4.5"/>
	<path class="st9" d="M269.4,155.2c-3.5,1.1-6.8,2.6-9.9,4.6"/>
	<path class="st9" d="M272.5,157.2c-4.7,1.5-9.2,3.5-13.5,6"/>
	<path class="st9" d="M284.2,71.6c0.1-0.1,0.1-0.2,0.2-0.3c4-5.5,12.4-7.2,19.3-7.1s15.5,1.2,19.3,7"/>
	<path class="st9" d="M326.7,72.5c0.4-0.2,0.8-0.4,1.2-0.6c0.6-0.3,1.3-0.6,2-0.9c4.7-2,9.9-2.8,15-2.5c2.1,0.2,4.2,0.6,6.3,1.2
		c0.1,0,2,2.1,2.1,2.2"/>
	<path class="st9" d="M288,71.3c0.8-1.3,3.6-0.4,3.7-0.1c1,2.9,1.5,7.9,0,8.7C288.9,80.7,288,74.6,288,71.3z"/>
	<path class="st9" d="M307.1,67.1c-4,1-3.4,11.3,1.2,10.9c2.8-0.4,3.9-6,1.8-9.1C309.6,68.2,309.1,66.6,307.1,67.1z"/>
	<path class="st9" d="M318.3,69.2c-1.9,1.1-2.6,3.5-1.6,5.4c0.3,0.6,0.8,1.1,1.4,1.5C320.8,75.6,321.7,71.4,318.3,69.2z"/>
	<path class="st9" d="M341.3,68.7c0.5,1.5,0.2,4.6,0.3,6.2s1.5,3.4,3,2.8c0.8-0.5,1.4-1.3,1.4-2.3c0.5-2.6,0.4-4.8-1.2-6.9l-0.1-0.1
		"/>
	<path class="st9" d="M328,72c-0.2,2.7,0,5.5,0.5,8.1c0.6,0.6,1.6-0.3,1.9-1.1c1-2.7,1.2-5.2-0.4-7.7"/>
	<path class="st9" d="M284.8,72.2v27.2"/>
	<path class="st9" d="M323,71.2c0,0.6-0.1,1.3-0.1,1.9c0,1,0,2-0.1,3v1.3c0,7.7,0.4,16.2,0.9,23.2"/>
	<path class="st9" d="M284.9,99.7c2.6-2.8,6.4-2,10.2-2c7-0.1,14,0.6,20.8,2.1c0.5,0,0.9,0.3,1.2,0.7c0.3,0.6-0.3,1.4-0.9,1.8
		c-1.7,1.2-3.6,2.2-5.7,2.7c-2.1,0.6-4.2,0.8-6.3,0.9c-1.7,0-3.4-0.1-5.1-0.3c-2.5-0.3-5-0.8-7.4-1.3c-3.5-0.7-4.7-1.7-7-4.4"/>
	<path class="st9" d="M282.4,97.4c0.7-0.6,1.5-1.1,2.4-1.5c1.2-0.5,2.4-0.9,3.7-1.1c0.6-0.1,1.2-0.2,1.8-0.3
		c1.3-0.1,2.5-0.2,3.8-0.2c4.1-0.1,8.2,0,12.3,0.4l2.6,0.2c2.4,0.2,4.9,0.5,7.3,0.9c0.8,0.1,1.5,0.3,2.2,0.7
		c0.7,0.5,1.1,1.3,1.2,2.1s0,1.6-0.4,2.3c-0.3,0.5-0.6,1-1,1.4c-0.8,0.7-1.7,1.3-2.7,1.6"/>
	<path class="st9" d="M353.2,71.9c1.3,0.2,2.3,1.1,2.6,2.4c0,0.1,0.1,0.2,0.1,0.4c0.2,1.1,0.1,2.2-0.1,3.3c-0.1,0.6-0.3,1.1-0.5,1.6
		c-0.2,0.4-0.6,0.7-1.1,0.8c-0.1,0-0.2,0-0.3,0c-1-2.6-1.2-5.4-0.6-8.2"/>
	<path class="st9" d="M355.1,80.3c0.6,4.8,0.8,9.6,0.6,14.3v1.1v0.1"/>
	<path class="st9" d="M327.4,99.2c6.7-3.7,14.2-5.6,21.8-5.4c2.2,0.4,4.4,1,6.4,2c0.3,0.2,0.5,0.4,0.5,0.6c-0.4,1-4.5,2-5.6,2.2
		c-2.1,0.5-4.3,1-6.5,1.5c-6.7,1.4-13.8,2.5-19.5,1.1"/>
	<path class="st9" d="M348.2,85.3c-0.8-1.2-3-0.4-3.3,1s0.9,4.7,1.9,5.8"/>
	<path class="st9" d="M347.8,85.2c0.2,0,0.3,0.1,0.4,0.2c0.5,0.5,0.9,1.2,1,2c0.3,1,0.4,2.1,0.2,3.1s-1.2,1.8-2.3,1.7"/>
	<path class="st9" d="M330.1,86.8c-1.6-1-3.3,1.3-3.3,3.1s-0.8,3.3-0.5,5c0.3,0.3,3.1,0.8,3,0.4"/>
	<path class="st9" d="M329.7,87h0.3c0.7,0.2,1.4,0.8,1.3,1.4s0.1,1.4,0,2.4c-0.1,1.3-1,2.7-2,4.5"/>
	<path class="st9" d="M253.3,41.6c0.1-1.4,1.7-2.2,3.2-2.1c0.3,0,0.6,0.1,0.9,0.2c0.7,0.3,1.3,0.7,1.7,1.3c0.7,0.7,1.2,1.6,1.7,2.5"
		/>
	<path class="st9" d="M327.6,103.3c-12.4-0.4-21.1,8.8-25.8,20.3c-0.2,0.5-0.4,0.9-0.6,1.4c-0.2,0.6-0.4,1.3-0.6,2
		c-2.2,8-2,16.6,0.6,24.5c0.4,1.4,0.9,2.7,1.5,4.1s1.2,2.7,1.8,3.9c1.9,4,4.6,7.5,8,10.3c2.2,1.6,4.6,2.9,7.1,3.8
		c3,0.9,6,1.5,9.2,1.6c2.9,0.1,5.8,0.1,8.8-0.1c0.8,0,1.5-0.1,2.3-0.2c1.4-0.1,2.8-0.3,4.2-0.5c1.5-0.2,2.9-0.6,4.3-1
		c2.2-0.6,4.3-1.7,6.2-3.2c3.2-2.6,5.1-6.4,6.7-10.2c2.6-5.8,4.9-11.7,5.6-17.9c0.9-9.5-1.9-18.9-7.8-26.3c-0.8-1-1.7-2-2.7-2.9
		c-0.3-0.3-0.6-0.6-0.9-0.8c-3-2.9-6.6-5.1-10.6-6.4C339.7,103.6,334.1,103.3,327.6,103.3"/>
	<path class="st9" d="M324.3,101.2c-0.1-0.1-0.3-0.1-0.4-0.2c-1.8-0.6-3.4,0.1-5.7,1.3c-2.4,1.3-5,2.3-7.6,3c-2,0.5-4,0.9-6,1.1
		l-1.1,0.1c-1.1,0.6-2.2,1.2-3.2,1.9c-3.5,2.4-6.6,5.4-9.3,8.7c-1.4,1.6-2.5,3.4-3.4,5.3c-0.4,0.9-0.8,1.7-1.1,2.6
		c-2.5,6.8-2.5,14.5-1.4,21.7c0.5,4.1,1.8,8.1,3.8,11.7c2.2,3.5,5.2,6.4,8.8,8.4c2.2,1.3,4.5,2.4,6.9,3.2c3.9,1.3,7.9,2.4,12,3.1
		c0.5,0.1,1.1,0.2,1.6,0.3s0.8,0.2,1.2,0.2"/>
	<path class="st9" d="M296.6,138.6c0.2-4.5-2.2-4.4-3-3.5c-0.7,1-1.1,2.1-1.2,3.3c-0.2,1-0.1,2,0.4,2.9
		C293.3,142.1,296.4,142.3,296.6,138.6L296.6,138.6z"/>
	<path class="st9" d="M301.2,125c-0.7-3-4.8-3.3-5.3-1.5s0.9,4.7,4.5,3.4"/>
	<path class="st9" d="M301.1,151.5c-0.8,0.2-5,1.2-5.8,1.4c-0.3,1.6,0.5,3.2,1.9,4c1.4,0.7,4.2-0.2,5.3-1.3"/>
	<path class="st9" d="M290.8,122.6c0.2,0.1,0.3,0.3,0.4,0.5c0.8,1.2,0.8,2.8,0,3.9c-0.9-0.5-3.1-1.3-4-1.7"/>
	<path class="st9" d="M288.7,152.7c-1.7-2.4,1.8-3.2,2.6-2S291.1,154.4,288.7,152.7z"/>
	<path class="st9" d="M284.5,93.3c-5.7,0.7-11.4,0.7-17.1,0.1c-3.3-0.5-6.8-1.2-9.9,0.1"/>
	<path class="st9" d="M254.1,93.7c-1.4-0.7-3-0.3-4,0.9c-0.6,1.2-0.8,2.4-0.7,3.7l0.1,22.2"/>
	<path class="st9" d="M249.8,126.6c-0.1,2.7-0.2,5.4-0.3,8.1c0,0.6-0.1,1.3-0.1,1.9c-0.1,0.6,0,1.2,0.4,1.7c1,1,4.8-0.7,6.1,0"/>
	<path class="st9" d="M259.8,138.5c7.4,1,14.9,1.3,22.4,0.8"/>
	<path class="st9" d="M269.7,109.9c-1,0-2-0.1-3-0.3h-0.2c-1.1-0.3-2.2-0.1-3.2,0.5c-0.5,0.4-0.8,1-0.8,1.6c0,0.5,0.2,0.9,0.6,1.2
		c0.5,0.3,1.1,0.4,1.6,0.3l5-0.1C269.8,112.2,270.6,110.1,269.7,109.9"/>
	<path class="st9" d="M265.7,96.3c-0.6,4.4-0.3,8.9,0.9,13.3c2.1-3.6,2.5-9.2,1.5-13.3"/>
	<path class="st9" d="M257.9,96.1c2.4-0.1,5-0.1,7.9,0c0.8,0,1.6,0,2.4,0.1c4.1,0.1,8.4,0.5,12,0.9c0.7,0.1,1.5,0.2,2.1,0.3h0.2"/>
	<path class="st9" d="M279.3,102.6c-0.1,0-0.1,0-0.2,0"/>
	<path class="st9" d="M279.3,102.6c-0.4,0.1-0.8,0.2-1.1,0.5c-0.5,0.7-0.4,1.7,0.3,2.2c0.1,0.1,0.3,0.2,0.4,0.2
		c0.9,0.2,1.8-0.3,2.1-1.2c0-0.1,0-0.2,0-0.3C281.1,103.2,280.3,102.6,279.3,102.6L279.3,102.6z"/>
	<path class="st9" d="M280.2,97.1v2.8v2.6c-0.3,0-0.5,0.1-0.8,0.1"/>
	<path class="st9" d="M251.5,121.2c-0.6,0-1.3-0.1-1.9-0.1c-0.7,0-1.5,0.1-2.1,0.4c-1.2,0.6-2.1,2.1-1.6,3.3s2.2,1.4,3.7,1
		c0.6-0.1,1.2-0.3,1.7-0.6"/>
	<path class="st9" d="M259.8,134.6c0.9,0,2.6,0,3.6-0.1c5.8-0.1,13.1-0.1,18.7,0.7"/>
	<path class="st9" d="M255.7,134.6h-6.2"/>
	<path class="st9" d="M356.6,94.7c3.6-1.8,7.8-2.2,11.6-1.1c0.4,0.1,0.8,0.3,1.1,0.6c0.3,0.4,0.5,1,0.5,1.5c0.2,1.4,0.3,2.8,0.5,4.2
		"/>
	<path class="st9" d="M370.3,100.9l2.4,0.1c0.1,0.2,0.2,0.5,0.2,0.7c0,1-0.7,1.8-1.6,2c-0.2,0-0.3,0-0.5,0c-1-0.2-1.7-1.2-1.5-2.2"
		/>
	<path class="st9" d="M370.7,103.8c0.4,1.3,1.2,4.7,1.6,6c-0.7,0.1-1.5,0.2-2.2,0.3l-1.3,0.2c-2.2,0.4-4.4,0.8-6.6,1.3
		c-0.7,0.1-1.3,0.3-2,0.5"/>
	<path class="st9" d="M360.5,100.6c-1.2,1-1.7,2.7-1,4.2c0.2,0.6,0.8,1.1,1.5,1.1c0.9-0.1,1.5-0.9,1.4-1.8s-0.5-1.7-1.1-2.3"/>
	<path class="st9" d="M361,106.9c0.2,1.4,0.4,2.7,0.6,4.1"/>
	<path class="st9" d="M362.2,111.8c-1.7,0.8-3.7,1-5.5,0.6"/>
	<path class="st9" d="M351.8,102.4l0.9,3c-0.9,0-1.8-0.4-2.5-1"/>
	<path class="st9" d="M351.8,102.2c-0.8-0.6-2-0.5-2.6,0.4c-0.3,0.4-0.4,0.8-0.4,1.3c0.3,0.7,1.1,1.2,1.9,1"/>
	<path class="st9" d="M333.6,78.5v0.2"/>
	<path class="st9" d="M333.6,78.4c-0.4,2.1,0.4,3.1,0.8,5.2c0.7,0.4,1.6,0.3,2-0.4c0-0.1,0.1-0.1,0.1-0.2c0.3-0.8,0.4-1.7,0.2-2.5
		c-0.2-1.8-0.4-3.6-0.7-5.5C334.6,75.6,333.6,76.9,333.6,78.4"/>
	<path class="st9" d="M309,86.8c0.4-1.3-2.8-2.5-4-1.9c-0.3,3.1,0.2,6.2,1.3,9.1"/>
	<path class="st9" d="M309,86.8c0.3,2.5,0.3,5,0,7.5"/>
	<path class="st9" d="M288.7,86.5c-1.5,2-1.2,5.8-0.3,8.2"/>
	<path class="st9" d="M288.7,86.5c0.1-0.7,1.9,0.1,2.3,0.7c0.3,0.6,0.4,1.3,0.2,2c-0.3,2.1-0.7,2.7-1,4.8"/>
	<path class="st9" d="M304.7,106.8c1,0,3.2,0.2,4.2,0.3v3c-2.9,0.1-5.8-0.4-8.4-1.5"/>
	<path class="st9" d="M291.3,123.3c0-0.1-0.1-0.2-0.2-0.2c-0.7-0.9-2.5-1.4-3.1-0.5"/>
	<path class="st9" d="M299.1,105.6c-8.8,7.1-14.8,18.3-16.4,29.7c-0.2,1.3-0.3,2.6-0.4,3.9c-0.3,5.3,0.5,10.5,2.3,15.5
		c1,3.1,2.8,5.8,5.1,8c2,1.7,4.3,3,6.9,3.7c0.4,0.1,0.7,0.2,1.1,0.4c2.1,0.8,3.8,1.9,6.1,2.6"/>
	<path class="st9" d="M327.6,99.1l-0.1,0.1c-0.9,0.8-1.9,1.4-2.9,1.9h-0.2c-0.1,0-0.2,0.1-0.3,0.1c0-0.1-0.1-0.2-0.1-0.3
		s-0.1-0.2-0.1-0.3c-0.3-1.1-0.4-2.2-0.2-3.2"/>
	<path class="st9" d="M326.6,72.5c-0.6,1.7-2.7,3.2-3.3,4.9"/>
	<path class="st9" d="M344.1,100.6c0.2,1,0.7,3.3,0.9,4.3"/>
	<path class="st9" d="M312,115.9c-5.3,8.1-8.7,17.7-8.1,27.4s5.3,19.3,13.4,24.5c9.4,6,22.4,5.2,31.5-1.3s14.1-18,13.5-29.1
		c-0.2-4-1.1-7.9-2.7-11.6c-6.8-15.5-24.8-22.6-40.3-15.8c-1.4,0.6-2.7,1.3-3.9,2.1C313.1,113.4,313.3,113.8,312,115.9z"/>
	<path class="st9" d="M368.6,110.6c0-0.1,0.1-0.2,0.2-0.3c0.4-0.3,0.8-0.4,1.3-0.2c0.7,0.1,1.2,0.8,1,1.5c-0.3,0.7-1,1.2-1.7,1.4
		c-3.2,1.3-6.7,2.1-10.2,2.4"/>
	<path class="st9" d="M284.5,71.3h-0.1c-1.1,0.4-2.1-1.1-1.7-2.3c0.6-1.2,1.5-2.1,2.6-2.8c6.3-4.3,13.5-5,20.8-4.3
		c1.9,0.2,3.8-0.4,5.7-0.2c5.3,0.7,9.7,4.3,11.4,9.3"/>
	<path class="st9" d="M323,73.2c0.8-1.9,2.8-3.1,4.7-3.7c2.9-0.8,5.8-1.6,8.8-2.5c4.2-1.2,8.6-2.4,12.7-1.2s7.4,4.7,6.9,8.8"/>
	<path class="st9" d="M375.4,81.9l2.7,0.3l3.3,0.4c4.9,0.6,10.3,1.1,14.3-1.7c-5.8-2.7-12-5.4-18.2-5.2c-0.7,0-1.4,0.1-2,0.2L375,76
		"/>
	<path class="st9" d="M375,76c-5.1-1-12.2,1.3-16.8,3.6l17.2,2.2"/>
	<path class="st9" d="M375.4,75.8c-0.2-4.5,0.3-8.9,1.4-13.2c0.2,4.9,0.4,8.3,0.6,13.2"/>
	<path class="st9" d="M375.4,81.8c-0.2,5.9,0.4,13.1,0.8,19.6c0.1,2.2,0.2,4.4,0.3,6.3c0.1,3.3-0.6,21.8-0.6,27.8"/>
	<path class="st9" d="M378.1,82.2c-0.5,15.9,0.9,36.5,0.4,52.4"/>
	<path class="st9" d="M378.5,134.6c8.6,9.8,16.4,20.1,23.6,30.9c0.7,1,1.4,2.1,1.9,3.2c1.5,3.6,1.4,3.9,2.8,7.6l0.1,0.4"/>
	<path class="st9" d="M378.5,139.6c7.4,8.8,12.9,15.7,19.7,24.9c1.4,1.9,2.1,4.2,2.9,6.4c0.9,2.4,1.6,2.7,2.4,5.6"/>
	<path class="st9" d="M376.5,139.6c-1.8,3-3.7,7.4-5.4,10.5"/>
	<path class="st9" d="M375.8,135.6c-3.5,7.1-11.1,20.8-14.3,28.4c0,0.1-0.1,0.2-0.1,0.2c0,0.1-0.1,0.2-0.1,0.3"/>
	<path class="st9" d="M371.3,149.7l-0.2,0.4l-0.1,0.2c-1.9,3.7-3.7,7.4-5.6,11.1l-0.2,0.3"/>
	<path class="st9" d="M365.5,161.5c-2.6,5.5-4,7.2-5.3,13.2v0.1"/>
	<path class="st9" d="M361.5,164.1c0,0.1-0.1,0.2-0.1,0.2c-1.8,3.7-2.8,6-3.3,10.1v0.2"/>
	<path class="st9" d="M378.5,139.6c-0.3,7.4-0.3,17.8-0.1,25.2c-1.2-0.9-3.2,0-4.2-1.2c-0.4-0.7-0.6-1.5-0.5-2.3
		c0.5-7.3,1.4-14.6,2.7-21.8"/>
	<path class="st9" d="M323,75.2l-0.1,0.9l-3.3,22.4l-0.3,1.8"/>
	<path class="st9" d="M113,430.6c-0.5,7.5,1.8,14.9,6.5,20.7c1.5,1.9,3.3,3.6,5.2,5.2c8.2,6.7,19.9,9.8,29.6,5.6
		c4.9-2.1,8.8-5.8,12.6-9.6c5.7-5.7,11.5-12.9,10.7-20.8c0-0.4-0.1-0.8-0.2-1.1"/>
	<path class="st9" d="M186.7,436.5c0.1-1.4,0.1-2.8,0-4.3"/>
	<path class="st9" d="M100.9,428.5v0.5c0.9,8.4,2.4,16.8,5.8,24.4c3.5,7.8,9.3,14.9,17,18.6c6.5,3.1,14.1,3.7,21.3,2.8
		c10.7-1.3,21.1-5.8,28.7-13.4c6.6-6.6,12.1-15.6,12.9-24.9"/>
	<path class="st9" d="M138.6,431.8l-8.4,1.2c-1.6,0.1-3.2,0.5-4.7,1.2s-2.6,2.1-2.8,3.8c0,1,0.2,2,0.7,2.9c1.6,3.7,3.5,7.3,5.9,10.6
		c2.9-3.2,5.5-6.7,7.6-10.4c0.7-1,1.2-2.1,1.4-3.2C138.5,436.6,141.2,432.4,138.6,431.8z"/>
	<path class="st9" d="M145.3,434.6c-1.1,5.2-1.4,12-2.5,17.2c-0.3,0.9-0.3,2,0.2,2.9c0.7,1.1,2.3,1.1,3.5,0.9
		c3.5-0.5,6.8-1.6,9.9-3.3c0.6-0.3,1-0.7,1.4-1.2c0.3-1,0.2-2-0.3-2.9c-2.3-5.2-9.7-14.2-11.8-13.6"/>
	<path class="st9" d="M149.6,431.3c3,3,6.3,5.7,9.9,8c1.6,1,3.7,1.9,5.4,1c0.8-0.5,1.5-1.3,1.9-2.2c1.2-2.4,1.6-5,1.4-7.6"/>
	<path class="st9" d="M113.2,429.8c-0.7-6.2,1-12.4,4.8-17.4c3.8-4.9,8.9-8.7,14.8-10.8c3.4-1.3,7-2,10.6-2c3.9,0.2,7.8,1,11.4,2.5
		c6.4,2.4,12.1,6.3,16.5,11.5c4.3,5.2,6.8,11.4,6.2,18.2"/>
	<path class="st9" d="M101.4,428.7c0-0.1,0-0.2,0-0.2c-1.7-12.4,4.5-25.3,14.6-32.8s23.7-9.8,36.1-7.4c3.5,0.6,6.9,1.8,10,3.5
		c4.6,2.6,8.2,6.6,11.4,10.7c6.7,8.6,12.2,18.6,13.2,29.3c0.2,1.6,0.2,3.1,0.2,4.7v0.1"/>
	<path class="st9" d="M168.3,430.2c-0.7-3-1.7-6.4-4.5-7.8c-3.1-1.5-6.8,0.1-9.8,1.8c-1.4,0.7-2.8,1.6-3.9,2.7
		c-1.1,1.2-0.8,2.8-0.5,4.3"/>
	<path class="st9" d="M127.6,413.9c-0.1,0.1-0.1,0.2-0.2,0.3c-2.3,3.3-3.9,7.1-4.7,11.1c-0.2,1-0.2,2.3,0.7,2.8
		c0.6,0.2,1.2,0.3,1.8,0.1c4.3-0.8,8.5-1.7,12.6-2.9c0.5-0.1,0.9-0.3,1.3-0.7c0.3-0.4,0.4-0.8,0.4-1.2c-0.1-1.5-0.8-3-1.8-4.1
		c-1.2-1.7-2.6-3.2-4-4.7c-0.8-1.1-2-1.9-3.3-2.3c-1.3-0.3-3,0.4-3.2,1.8"/>
	<path class="st9" d="M140.1,410.8c1.4,3.9,2.7,7.8,4.1,11.8c0.1,0.4,0.3,0.7,0.6,1c0.3,0.2,0.7,0.3,1.1,0.2
		c4.6-0.2,8.5-3.7,10.7-7.8c0.2-0.3,0.3-0.7,0.3-1c-0.2-0.5-0.5-0.9-1-1.2c-2.6-1.8-5.5-3.3-8.4-4.6c-1.6-0.9-3.5-1.3-5.3-1.1
		C140.3,408.4,139.9,408.9,140.1,410.8L140.1,410.8z"/>
	<path class="st9" d="M483.2,435.8c-0.5,7.5,1.8,14.9,6.5,20.7c1.5,1.9,3.3,3.6,5.2,5.2c8.2,6.7,19.9,9.8,29.6,5.6
		c4.9-2.1,8.8-5.9,12.6-9.6c5.8-5.8,11.7-13.2,10.6-21.2c0-0.2,0-0.5-0.1-0.7"/>
	<path class="st9" d="M557.1,439.3c0-0.6,0-1.3-0.1-1.9"/>
	<path class="st9" d="M471.2,433.7c0.9,8.5,2.3,17.1,5.9,24.9s9.3,14.9,17,18.6c6.5,3.1,14,3.7,21.2,2.8
		c10.7-1.3,21.1-5.8,28.7-13.4c6.9-7,12.7-16.6,13-26.4"/>
	<path class="st9" d="M508.9,437c-1.4-1.6-5.6,0.8-8.4,1.2c-1.6,0.1-3.2,0.5-4.7,1.2s-2.6,2.1-2.8,3.8c0,1,0.2,2,0.7,2.9
		c1.6,3.7,3.5,7.3,5.9,10.6c3.1-3,5.3-6.8,7.6-10.4c0.9-1.4,1.6-2.9,2.1-4.5C509.4,440.5,509.3,437.3,508.9,437L508.9,437z"/>
	<path class="st9" d="M515.9,440.2c-1.9,0.9-1.7,11.5-2.7,16.7c-0.3,0.9-0.3,2,0.2,2.9c0.7,1.1,2.3,1.1,3.6,0.9
		c3.5-0.5,6.8-1.6,9.9-3.3c0.6-0.3,1-0.7,1.4-1.2c0.3-1,0.2-2-0.3-2.9C525.4,448.2,519.5,439.3,515.9,440.2L515.9,440.2z"/>
	<path class="st9" d="M519.1,432.9c-1.8,3.8,6.9,7.7,10.8,10.1c1.6,1,4.3,2,6,1.1c0.9-0.5,1.7-2.5,2.1-3.4c1.2-2.3,1-2.5,0.7-5"/>
	<path class="st9" d="M483.2,435.8c-0.8-6.1,1.3-13.3,5-18.3c3.8-4.9,8.9-8.7,14.8-10.8c3.4-1.3,7-2,10.6-2c3.9,0.2,7.8,1,11.4,2.5
		c6.4,2.4,12.1,6.3,16.5,11.5c4.2,4.9,6.5,11.3,6.2,17.7"/>
	<path class="st9" d="M471.3,434c0-0.1,0-0.2,0-0.3c-0.7-5.3,0-10.7,2-15.7c2.6-6.8,7-12.8,12.8-17.2c4.2-3.1,9-5.3,14-6.7
		c4.8-1.3,9.8-1.8,14.8-1.6c2.5,0.1,4.9,0.4,7.3,0.9c0.1,0,0.3,0,0.4,0.1c3,0.6,6,1.6,8.8,3c0.3,0.1,0.5,0.3,0.8,0.4
		c4.6,2.6,10.5,4.8,13.7,9l0.4,0.6c7.2,9.4,11,21,10.7,32.8v0.8"/>
	<path class="st9" d="M538.6,435.4c-0.7-3-1.7-6.4-4.5-7.8c-3.1-1.5-6.8,0.1-9.8,1.8c-1.4,0.8-4.9,1.7-5.1,3.3"/>
	<path class="st9" d="M497.8,419c-0.1,0.1-0.1,0.2-0.2,0.3c-2.3,3.3-3.9,7.1-4.7,11.1c-0.2,1-0.2,2.3,0.7,2.8
		c0.6,0.3,1.2,0.3,1.8,0.1c4.3-0.8,8.5-1.7,12.6-2.9c0.5-0.1,0.9-0.3,1.3-0.7c0.3-0.4,0.4-0.8,0.4-1.2c-0.1-1.5-0.8-3-1.8-4.1
		c-1.2-1.7-2.6-3.2-4-4.7c-0.8-1.1-2-1.9-3.3-2.3c-1.3-0.3-2.9,0.4-3.2,1.8"/>
	<path class="st9" d="M510.3,415.1l4.1,11.8c0.1,0.4,0.3,0.7,0.6,1c0.3,0.2,0.7,0.3,1.1,0.2c4.6-0.2,8.5-3.7,10.7-7.8
		c0.2-0.3,0.3-0.7,0.3-1c-0.2-0.5-0.5-0.9-1-1.2c-2.6-1.8-5.5-3.3-8.4-4.6c-1.6-0.9-3.5-1.3-5.3-1.1
		C510.6,412.7,510.1,413.2,510.3,415.1L510.3,415.1z"/>
	<path class="st9" d="M515.2,271.9c5.5,4.7,11.4,8.9,17.6,12.7"/>
	<path class="st9" d="M508.9,277c9.5,8.9,19.3,17.4,29.4,25.5"/>
</g>
</svg>
