<svg width="59.79" height="45" xmlns="http://www.w3.org/2000/svg">

 <g>
  <title>Layer 1</title>
  <path id="svg_10" d="m34.58376,35.2513c0.19416,0.20299 0.42804,0.26697 0.69502,0.1721l0,3.51917s0,-0.00661 -0.41259,-0.00661c-3.11538,-0.0706 -5.99454,-1.10097 -8.35327,-2.81093c1.28188,-1.19586 2.70057,-3.07347 3.539,-4.91357c0.53394,0.01765 1.19586,0.00882 2.08722,-0.09487c0.45672,-0.05295 0.72592,-0.05736 1.18264,-0.07502c0.18533,-0.00662 0.5185,-0.11694 0.46775,-0.45892c-0.02869,-0.20519 -0.139,-0.48761 -0.22505,-0.70824c-0.10149,-0.25814 0.23167,-0.40597 0.36184,-0.20299c0.07502,0.11915 0.23829,0.50526 0.29345,0.63323c0.10811,0.24711 0.39935,0.54056 0.61115,0.69502c0.18093,0.13238 0.37729,0.23608 0.58912,0.31331c0.42583,0.15224 0.79873,0.39935 1.12525,0.71044c0.10149,0.09708 0.19195,0.2074 0.2758,0.31993c0.29345,0.38391 0.37508,0.57364 -0.0309,1.03477c-0.36625,0.417 -0.81194,0.66853 -1.35689,0.74575c-0.36626,0.05074 -0.64865,-0.0684 -0.80533,-0.42362c-0.02869,-0.06398 -0.06398,-0.12577 -0.09929,-0.18754c-0.0684,-0.12135 -0.13459,-0.24711 -0.21402,-0.36405c-0.11253,-0.16769 -0.26918,-0.26256 -0.47878,-0.22946c-0.33758,0.05074 -0.67294,0.1037 -1.00833,0.16769c-0.05736,0.01103 -0.19637,0.10149 -0.15886,0.13238c0.17872,0.30889 0.37508,0.58912 0.60233,0.84284c0.10811,0.12135 0.23828,0.17872 0.40597,0.1721c0.32654,-0.01324 0.33978,0 0.47437,0.29565c0.06398,0.139 0.12577,0.28021 0.20298,0.41038c0.06399,0.11032 0.14121,0.21622 0.22946,0.3111m1.23116,-2.88815c-0.30007,0.01103 -0.59352,0.06619 -0.90237,0.139c0.01101,0.27138 0.10591,0.49643 0.20739,0.71705c0.09046,0.19416 0.18093,0.24711 0.39053,0.22063c0.11473,-0.01544 0.23167,-0.05074 0.33316,-0.1037c0.20299,-0.11473 0.2758,-0.31331 0.22284,-0.54277c-0.0353,-0.15224 -0.11032,-0.28242 -0.25152,-0.43024m8.57412,-4.39291c-0.08163,-0.25594 -0.22946,-0.46113 -0.44348,-0.62222c-0.17871,-0.13238 -0.35522,-0.26697 -0.54056,-0.39273c-0.07722,-0.05295 -0.16768,-0.08163 -0.25594,-0.11694c-0.11253,-0.04633 -0.2074,-0.00883 -0.28021,0.08384c-0.06398,0.08384 -0.11694,0.17651 -0.18313,0.26035c-0.07943,0.1037 -0.18754,0.13238 -0.3133,0.09487c-0.11473,-0.03309 -0.17431,-0.12356 -0.17872,-0.27138c-0.00226,-0.05957 -0.00226,-0.12135 0.01101,-0.17651c0.09929,-0.39273 0.26256,-0.75456 0.51188,-1.07448c0.0353,-0.04633 0.07943,-0.08605 0.12577,-0.12135c0.12135,-0.09267 0.23608,-0.08825 0.35302,0.00441c0.42141,0.42583 0.78105,0.76563 1.16496,1.07668c0.41479,0.33537 0.52732,0.81635 0.60013,1.30397c-0.01322,0.0706 -0.01542,0.13018 -0.0353,0.18313c-0.0309,0.08163 -0.09487,0.13238 -0.18754,0.139c-0.08384,0.00662 -0.16989,-0.0022 -0.21623,-0.08384c-0.05072,-0.09046 -0.09929,-0.18754 -0.13238,-0.28683m-0.85826,2.28581c0.16106,-0.04413 0.26918,0.04633 0.29345,0.21181c0.00881,0.0706 0.00881,0.139 0.01101,0.1721c0,0.46775 -0.13018,0.69062 -0.68395,0.73033c-0.23167,-0.01324 -0.30007,-0.07502 -0.32213,-0.19416c-0.05072,-0.30227 0.03971,-0.56042 0.28683,-0.73914c0.11915,-0.08825 0.26918,-0.139 0.4148,-0.18092m16.25637,-20.96931l-3.44857,9.56879l-4.39952,0l0,5.25778c-0.00452,0.14121 0.00226,0.28242 0,0.42362c-0.05518,7.84379 -6.35886,14.20434 -14.14504,14.39413l-0.72592,0.01101l0,-4.36422l0.26476,-0.11694c0.22064,-0.09267 0.41038,-0.22284 0.53394,-0.43686c0.139,-0.23608 0.3442,-0.33096 0.62001,-0.32875c0.3795,0.0022 0.4501,-0.0684 0.52291,-0.42803c0.06619,-0.39273 0.11694,-0.71925 0.18534,-1.04143c0.06398,-0.30227 0.0309,-0.58691 -0.1368,-0.84725c-0.29565,-0.46554 -0.59132,-0.93327 -0.90023,-1.38999c-0.21402,-0.31331 -0.32655,-0.32875 -0.61781,-0.06619l0.26697,0.49643c0.21181,0.29565 0.42803,0.59132 0.63323,0.89356c0.06619,0.09487 0.12577,0.20519 0.14342,0.31551c0.07722,0.46775 0.00661,0.91565 -0.21843,1.33266c-0.02869,0.05074 -0.09929,0.07943 -0.16548,0.12797c-0.0375,-0.07722 -0.07502,-0.12577 -0.08605,-0.17872c-0.01762,-0.10591 -0.02869,-0.21181 -0.02649,-0.31772c0,-0.39053 -0.12577,-0.73033 -0.37288,-1.03917c-0.30227,-0.37508 -0.58245,-0.76783 -0.86487,-1.15835c-0.2758,-0.37729 -0.24049,-0.77664 0.09267,-1.10978c0.14341,-0.139 0.29345,-0.27138 0.44127,-0.40818c0.20519,-0.18533 0.35743,-0.40597 0.4501,-0.66413c0.07281,-0.19857 0.139,-0.40156 0.18534,-0.60674c0.11252,-0.50747 0.14341,-1.02375 0.13679,-1.54447l0.00452,-0.38832c0,-0.09708 0.0353,-0.18313 0.1037,-0.25373c0.11032,-0.11253 0.28021,-0.1037 0.36405,0.03089c0.04852,0.07722 0.08825,0.16548 0.10811,0.25594c0.10149,0.4501 0.15665,0.90463 0.10591,1.36576c-0.06398,0.57584 -0.18093,1.13627 -0.35523,1.68788c-0.0353,0.10811 -0.09487,0.21181 -0.0684,0.35302c0.09046,0 0.16989,0.00883 0.24932,0c0.16328,-0.01986 0.32655,-0.05295 0.48981,-0.07281c0.55601,-0.06178 1.03917,-0.27138 1.4297,-0.68395c0.17872,-0.18754 0.37508,-0.35743 0.56483,-0.53615c0.07281,-0.0684 0.15665,-0.10149 0.25594,-0.05957c0.09267,0.03971 0.14782,0.14121 0.11694,0.26697c-0.0309,0.1368 -0.0706,0.27359 -0.13238,0.39935c-0.10149,0.21181 -0.21401,0.41921 -0.34199,0.61555c-0.27138,0.4148 -0.50085,0.84945 -0.67514,1.31498c-0.10591,0.28683 -0.22946,0.56703 -0.32875,0.85385c-0.09929,0.29124 -0.02869,0.37288 0.26476,0.33537c0.23387,-0.02868 0.29786,0.02206 0.31331,0.25373c0.00661,0.09267 -0.00226,0.18754 0,0.28021c0.00226,0.10591 0,0.21402 0.01762,0.31772c0.07281,0.42141 0.53394,0.69062 0.93327,0.54277c0.18754,-0.0706 0.36405,-0.16548 0.54056,-0.25814c0.13459,-0.07281 0.26035,-0.16107 0.39053,-0.2427c0.36184,-0.22946 0.75676,-0.37508 1.18705,-0.41038c0.17651,-0.01324 0.35302,-0.01324 0.52953,-0.00883c0.30448,0.01103 0.54718,-0.10149 0.74354,-0.33316c0.10591,-0.12356 0.21622,-0.24932 0.33978,-0.35743c0.2096,-0.18754 0.36626,-0.20078 0.60674,-0.05074c0.18975,0.11694 0.37067,0.25152 0.5538,0.3795c0.28903,0.20299 0.59132,0.38611 0.91785,0.52291c0.29565,0.12356 0.60233,0.20078 0.92666,0.16768c0.04191,-0.00662 0.07943,-0.02647 0.15445,-0.05295c-0.07722,-0.0706 -0.12356,-0.12135 -0.17651,-0.16107c-0.14783,-0.11473 -0.3111,-0.21402 -0.4501,-0.33978c-0.19857,-0.18092 -0.39714,-0.36846 -0.57144,-0.57364c-0.22064,-0.25814 -0.42142,-0.53394 -0.62662,-0.80754c-0.12135,-0.15886 -0.2427,-0.31772 -0.3464,-0.48761c-0.05072,-0.08605 -0.07722,-0.19637 -0.08384,-0.29786c-0.01101,-0.14121 0.12797,-0.24049 0.26256,-0.18975c0.09708,0.03751 0.19416,0.09267 0.26918,0.16107c0.278,0.25594 0.54938,0.51629 0.81855,0.77884c0.16768,0.16548 0.32213,0.3442 0.49202,0.50526c0.19637,0.18754 0.41259,0.35081 0.67734,0.43465c0.28683,0.08825 0.44348,0.08605 0.79873,-0.05074c0.03971,-0.04854 -0.18313,-0.15003 -0.18313,-0.15003c-0.74795,-0.3795 -1.30176,-0.88916 -1.78938,-1.57316c-0.33537,-0.47216 -0.60674,-0.97964 -0.84504,-1.50476c-0.2758,-0.61115 -0.47878,-1.25099 -0.70383,-1.88201c-0.27359,-0.76342 -0.54939,-1.52459 -0.83623,-2.28361c-0.18975,-0.50085 -0.48981,-0.93547 -0.82516,-1.35028c-0.44348,-0.54497 -0.98845,-0.97083 -1.55989,-1.36796c-0.58025,-0.40597 -1.20247,-0.73473 -1.82022,-1.07894c-1.02816,-0.56924 -2.10269,-1.05245 -3.09115,-1.69449c-0.16989,-0.09929 -0.24932,-0.139 -0.32875,-0.1721c-0.0375,-0.01544 -0.1721,-0.0684 -0.3111,-0.1037l-0.16769,-0.03089l0,-8.78988l22.71905,0.00025zm-22.46103,11.88798c-0.07281,-0.05736 -0.14121,-0.12577 -0.19416,-0.20078c-0.08163,-0.11473 -0.08163,-0.2427 -0.01322,-0.36626c0.0684,-0.12135 0.17871,-0.18313 0.31992,-0.18092c0.05736,0.0022 0.11915,0.00662 0.1721,0.02868c0.11915,0.04633 0.2427,0.09046 0.35081,0.15886c0.52291,0.33537 0.94214,0.77224 1.24658,1.31278c0.13459,0.23828 0.2052,0.50526 0.2074,0.71485c-0.01322,0.09046 0,0.20519 -0.12135,0.25814c-0.08605,0.0353 -0.17872,-0.0022 -0.25594,-0.13018c-0.32875,-0.54939 -0.80533,-0.94214 -1.31718,-1.30176c-0.13459,-0.09487 -0.26918,-0.18975 -0.39494,-0.29345m-12.31612,13.70391c-0.23608,0.22284 -0.47878,0.43906 -0.72812,0.64645c-0.25152,0.2096 -0.50967,0.40818 -0.77444,0.60013c-2.44244,1.7695 -5.4431,2.81754 -8.68426,2.81754c-8.17478,0 -14.82679,-6.65426 -14.82679,-14.82905c0,-8.17704 6.652,-14.82679 14.82679,-14.82679c3.24116,0 6.24194,1.04364 8.68426,2.81534c-2.26373,2.20193 -3.9097,5.03715 -4.64663,8.21884c-1.01274,-1.07668 -2.44684,-1.74967 -4.03763,-1.74967c-3.05584,0 -5.54239,2.48655 -5.54239,5.54239s2.48655,5.54239 5.54239,5.54239c1.59079,0 3.02495,-0.67294 4.03763,-1.74967c0.29786,-0.31551 0.55821,-0.66633 0.77664,-1.04804c0.46334,-0.80974 0.73033,-1.74521 0.73033,-2.74473c0,-4.23623 1.78498,-8.06182 4.64222,-10.76679c0.23608,-0.22284 0.47878,-0.43686 0.72812,-0.64425c0.25152,-0.2096 0.50967,-0.40818 0.77444,-0.60013c2.44244,-1.7717 5.42547,-2.81534 8.76786,-2.81534l-0.00226,9.07061s-0.0684,0.0684 -0.18754,0.11915c-0.05292,0.02206 -0.30669,0.10591 -0.50967,0.12797c-1.34147,0.14783 -2.54174,0.77884 -3.42208,1.71657c-0.29786,0.31551 -0.55821,0.66853 -0.77664,1.04584c-0.46334,0.81194 -0.73033,1.74747 -0.73033,2.74694c0,4.23402 -1.78498,8.06182 -4.64222,10.7651"/>
 </g>
</svg>