<svg width="130" height="110" xmlns="http://www.w3.org/2000/svg" version="1.1">

 <g>
  <title>Layer 1</title>
  <rect id="svg_1" fill="none" height="1.87" width="0" y="81.376" x="64.356"/>
  <path id="svg_3" fill-rule="evenodd" fill="#da291c" d="m68.61718,2.7904a52.4875,52.4875 0 0 0 -52.4875,52.4875l0,3.04427l-6.78138,0a0.8188,0.8188 0 0 0 -0.73482,0.50388c-0.12597,0.27293 -6.19352,10.98038 -6.42447,11.14834s0,0.44089 0.20995,0.44089l15.9562,0a52.4875,52.4875 0 1 0 50.26203,-67.62489zm-37.51806,67.70887l13.98267,0l-6.73939,11.65222a41.63308,41.63308 0 0 1 -7.24327,-11.65222zm37.51806,25.194a40.33139,40.33139 0 0 1 -28.28026,-11.52625l11.35829,0s32.66822,-57.5263 32.77319,-57.75724s0,-0.37791 -0.14696,-0.37791l-13.33182,0c-0.27293,0 -0.29393,0 -0.37791,0.18895s-18.41261,32.03837 -18.41261,32.03837l-23.95529,0c0,-1.00776 -0.10497,-2.0995 -0.10497,-3.04427a40.43637,40.43637 0 0 1 69.53544,-28.04932c-3.10726,5.39571 -17.50983,29.72892 -19.44137,33.27707c-1.11273,-2.58238 -6.2985,-2.0995 -8.92287,-2.0995c-1.17572,1.93154 -6.59243,12.1771 -6.59243,12.1771l5.68964,0c2.68736,0 2.9393,2.77134 1.88955,4.49293s-5.31173,9.2378 -5.31173,9.2378l13.75172,0l26.4537,-46.189a39.8905,39.8905 0 0 1 3.88407,17.2159a40.49935,40.49935 0 0 1 -40.45736,40.47836l0,-0.06298z"/>
 </g>
</svg>