<svg width="300" height="60" xmlns="http://www.w3.org/2000/svg">
 <g>
  <title>Layer 1</title>
  <path d="m157.91,43c0,1.2 -0.53,2.07 -2.17,2.07l-10.47,0c-1.35,0 -2.12,-0.39 -2.12,-1.64s0.53,-1.87 2.12,-1.87l12.64,0l0,1.44zm46.17,-5l0,-1.35c0,-1.25 0.53,-2.07 2.22,-2.07l10.47,0c1.44,0 2.16,0.43 2.16,1.78c0,1.15 -0.57,1.68 -2.06,1.68l-12.79,-0.04zm27.49,-9.27l0,22.1l10.59,0l0,-16.05l8.64,0c2.94,0 4.43,0.92 4.43,3.75l0,12.35l10.57,0l0,-13.22c0,-6.2 -3.42,-8.89 -13.07,-8.89l-21.16,-0.04zm-26,0c-8.51,0 -11.92,2.83 -11.92,9.22l0,4.38c0,5.52 3.41,8.5 11.1,8.5l22.35,0l0,-5.77l-20.28,0c-2,0 -2.69,-0.58 -2.69,-2.07l0,-0.91l16,0c5.52,0 8.64,-1.73 8.64,-5.86l0,-1c0,-3.75 -1.87,-6.44 -11.24,-6.44l-11.96,-0.05zm-34,22.1l10.57,0l0,-14.47c0,-1 0.39,-1.59 1.69,-1.59l8.17,0l0,-6l-11.75,0c-6.3,0 -8.7,2.35 -8.7,6.29l0.02,15.77zm-36.13,-22.1l0,5.82l19.85,0c2,0 2.65,0.68 2.65,2.12l0,0.85l-15.94,0c-6.68,0 -8.69,2.75 -8.69,6.25l0,0.86c0,4.86 3.89,6.2 11.53,6.2l11.73,0c8.31,0 11.91,-1.87 11.91,-8.41l0,-5.1c0,-5.53 -3.41,-8.55 -11.14,-8.55l-21.9,-0.04zm-63.26,12.34c0,7 3.55,9.8 12.73,9.8l20.14,0l0,-6l-18.6,0c-2.21,0 -3.7,-1 -3.7,-4.18l0,-1.88c0,-2.84 1.39,-4 3.65,-4l18.65,0l0,-6l-20.43,0c-9,0 -12.44,3.79 -12.44,9.85l0,2.41zm36,-15.81l0,25.61l23,0l0,-6l-12.4,0l0,-19.61l-10.6,0zm-66,14.32l0,-14.32l-6,0c-3.7,0 -5.81,1.48 -8,3.22l-28.18,22.39l12.73,0l18.75,-15.18l0,15.18l8.79,0l18.16,-15.28l0,15.28l10.77,0l0,-25.61l-5.87,0c-3.17,0 -5.38,1.3 -7.59,3.12l-13.56,11.2z" id="svg_1"/>
  <path class="st0" d="m291.22,6.66c-5.9,0 -14.21,1.76 -23.22,5.06a117.85,117.85 0 0 0 -23,11.33a66.15,66.15 0 0 1 21.64,-4.05c10.34,0 17.7,4 6.83,17.83c32,-21 31.17,-30.12 17.75,-30.12" fill="#FF9800" id="svg_2"/>
 </g>

</svg>