<svg enable-background="new 0 0 24 24" viewBox="0 0 24 24" xmlns="http://www.w3.org/2000/svg"><path d="m19.6 10.7c0-1.3-.4-2.4-1.2-3.2.1-.3.5-1.5-.1-3.2 0 0-1-.4-3.3 1.2-1-.3-2-.4-3-.4s-2 .1-3 .4c-2.3-1.5-3.3-1.2-3.3-1.2-.7 1.6-.3 2.8-.2 3.2-.7.8-1.2 1.9-1.2 3.2 0 4.6 2.8 5.6 5.5 5.9-.4.3-.7.8-.8 1.6-.7.3-2.4.8-3.5-1 0 0-.6-1.1-1.8-1.2 0 0-1.2 0 0 .7 0 0 .8.4 1.3 1.8 0 0 .7 2.3 4 1.6v2c0 .2-.1.3-.2.5v.3c1 .3 2 .5 3.1.5s2.1-.2 3.1-.5c0-.1.1-.2.1-.3-.2-.1-.2-.3-.2-.5v-3.3c0-1.1-.4-1.8-.8-2.2 2.7-.3 5.5-1.3 5.5-5.9z" fill="#eef9ff"/></svg>