<?xml version="1.0" encoding="UTF-8"?>
<!DOCTYPE svg PUBLIC "-//W3C//DTD SVG 1.1//EN" "http://www.w3.org/Graphics/SVG/1.1/DTD/svg11.dtd">
<!-- Creator: CorelDRAW -->
<svg xmlns="http://www.w3.org/2000/svg" xml:space="preserve" width="2.89305in" height="2.92024in" version="1.1" style="shape-rendering:geometricPrecision; text-rendering:geometricPrecision; image-rendering:optimizeQuality; fill-rule:evenodd; clip-rule:evenodd" viewBox="0 0 774.1 781.37" xmlns:xlink="http://www.w3.org/1999/xlink" xmlns:xodm="http://www.corel.com/coreldraw/odm/2003">
 <defs>
  <style type="text/css">
   <![CDATA[
    .fil0 {fill:black}
   ]]>
  </style>
 </defs>
 <g id="Layer_x0020_1">
  <metadata id="CorelCorpID_0Corel-Layer"/>
  <path class="fil0" d="M185.44 690.34c-29.73,-12.12 -76.69,-61.94 -94.95,-88.9 -25.66,-37.91 -44.54,-76.24 -55.17,-121.03 -13.44,-56.64 -7.93,-87.16 23.21,-136.04 14.75,-23.15 64.16,-83.96 88.56,-92.85 17.22,48.78 -15.35,177.48 -17.97,235.78 -3.32,73.96 14.1,142.24 56.32,203.05zm33.89 -486.09c8.32,96.66 47.7,238.48 88.56,327.06 21.16,45.87 45.61,99.28 77.12,138.73 10.95,13.71 40.84,49.18 53.36,59.02 14.46,11.36 39.05,12.62 8.43,17.51 -17.56,2.8 -34.08,4.06 -51.84,4.33 -55.25,0.83 -133.81,-10.65 -178.3,-46.25 -44.42,-35.55 -60.73,-92.93 -69.92,-146.62 -11.26,-65.76 7.59,-131.3 14.88,-196.44 3.89,-34.75 8.11,-69.97 3.07,-104.84 -3.09,-21.4 1.53,-22.23 17.99,-33.07 13.53,-8.91 21.06,-13.97 36.65,-19.42zm-119.51 -30.77c4.79,-3.9 22.37,11.55 26.16,16.21 7.93,9.76 10.25,14.71 14.96,26.16 7.74,18.84 3.24,14.46 -6.35,25.83 -4.14,4.9 -17.14,13.85 -22.94,19.89 -36.71,38.25 -48.07,49.94 -74.76,96.93 -0.63,1.1 -10.91,32.63 -12,22.48 -1.29,-12.06 1.87,-26.27 2.84,-38.33 1.52,-18.75 10.88,-45.42 16.23,-64.03 7.7,-26.78 35.68,-88.65 55.87,-105.12zm203.35 -8.03c15.59,37.77 12.23,50.39 39.36,85.12 18.53,23.72 46.15,42.42 70.78,59.37 51.17,35.22 109.16,66.16 157.64,104.52 48.55,38.41 94.2,82.25 113.66,142.83 12.41,38.63 -12.43,55.66 -35,82.22 -18.47,21.74 -48.85,42.15 -72.65,58.41 -19.52,13.34 -69.08,38.05 -92.07,36.82 -29.59,-1.58 -56.02,-33.12 -73.14,-55.03 -38.48,-49.24 -66.3,-104.94 -90.39,-162.36 -25.1,-59.82 -47.89,-126.74 -63.94,-189.6 -4.22,-16.51 -8.44,-33.73 -11.54,-50.47 -3.34,-18.05 -9.79,-37.21 -12,-54.77 -5.55,-44.2 38.35,-42.47 69.3,-57.07zm177.89 -33c63.94,0.21 120.76,8.46 178,38.69 42.63,22.51 66,89.24 76.31,133.87 14.92,64.61 14.84,125.99 -4,189.85 -2.95,10 -22.77,70.11 -31.61,70.34 -5.32,0.14 -10.31,-29.36 -11.71,-34.26 -3.66,-12.83 -11.21,-24.62 -18.52,-35.72 -98.5,-149.53 -318.13,-189.74 -343.42,-312.18 -7.88,-38.14 34.22,-34.32 61.14,-40.33 28.73,-6.42 64.37,-10.2 93.81,-10.25zm-265.81 55.23c-1.31,1.89 -13.51,6.78 -16.28,8.69 -3.64,2.51 -10.69,6.48 -15.31,9.21 -21.84,12.9 -21.37,20.28 -26.75,6.69 -5.42,-13.66 -6.44,-19.21 -17.56,-30.49 -4.52,-4.58 -7.19,-7.59 -12.35,-11.85 -2.94,-2.43 -14.81,-7.06 -16.18,-8.59 -7.17,-8.01 88.67,-88.19 106.73,-88.2l-1.69 -0.03 -0.6 114.57zm109.32 -46.76c6.73,-37.57 19.8,-64.78 51.08,-88.5 12.54,-9.51 32.32,-24.13 48.48,-20.6 20.05,4.38 38.04,6.58 58.37,12.26 36.26,10.12 66.04,23.47 97.87,43.5 19.38,12.19 63.47,47.18 75.09,65.84 -10.04,-2.68 -25.93,-9.88 -36.47,-13.94 -13.55,-5.21 -25.2,-7 -38.54,-11.41 -15.17,-5.02 -70.02,-10.91 -86.91,-11.22 -17.07,-0.32 -76.1,2.92 -90.69,7.83 -5.92,1.99 -73.84,16.23 -78.3,16.24zm46.25 -111.86c2.81,-0.75 17.55,-1.39 11.06,4.5 -2.57,2.34 -8.77,4.99 -12.09,7.21 -4.36,2.91 -18.4,13.72 -21.63,17.17 -18.4,19.67 -35.56,46.32 -38.06,74.21 -1.47,16.45 -0.92,15.2 -16.4,20.72 -12.98,4.63 -43.53,16.23 -54.89,22.26 -7.03,3.73 -9.83,3.63 -9.7,-5.2 0.1,-7.2 -1.95,-10.94 -1.86,-17.31 0.17,-12.86 0.33,-26.08 0.07,-38.93 -0.21,-10.38 1.6,-25.09 2.79,-35.58 1.55,-13.69 4.45,-15.08 16.32,-20.67 20.16,-9.49 38.71,-12.36 58.88,-18.72 9.28,-2.93 23.16,-4.11 33.18,-5.62 7.65,-1.15 26.73,-2.54 32.34,-4.03zm403.27 386.57l0 -3.57 -0.89 -0.41 -0.09 -35.89 0.98 -0.27 0 -2.68c-4.66,-9.56 -9.6,-58.39 -13.93,-75.57 -20.57,-81.6 -44.05,-112.84 -100.25,-177.27 -25.82,-29.6 -73.52,-64.25 -109.07,-80.91 -61.74,-28.93 -85.31,-28.51 -148.68,-39.06l-45.49 0c-47.89,5.67 -72.04,8.96 -116.23,29.59 -32.19,15.03 -63.96,31.57 -91.25,54.58 -53.97,45.52 -94.52,99.15 -121.22,164.47 -57.5,140.63 -24.78,310.03 83.19,417.71 110.68,110.38 290.04,149.44 432.99,81.24 65.2,-31.1 115.59,-73.32 156.91,-132.45 51.48,-73.67 54.1,-115.06 73.02,-199.52z"/>
 </g>
</svg>