<?xml version="1.0" encoding="UTF-8" standalone="no"?>
<!DOCTYPE svg PUBLIC "-//W3C//DTD SVG 20010904//EN" "http://www.w3.org/TR/2001/REC-SVG-20010904/DTD/svg10.dtd">
<svg version="1.0" xmlns="http://www.w3.org/2000/svg" width="1280.000000pt" height="783.000000pt" viewBox="0 0 1280.000000 783.000000" preserveAspectRatio="xMidYMid meet">
<metadata>
Created by potrace 1.15, written by Peter Selinger 2001-2017
</metadata>
<g transform="translate(0.000000,783.000000) scale(0.100000,-0.100000)" fill="#000000" stroke="none">
<path d="M6235 7824 c-1150 -61 -2270 -353 -3340 -873 -1273 -619 -2320 -1514 -2726 -2331 -69 -139 -110 -252 -141 -391 -30 -136 -32 -360 -4 -489 153 -714 913 -1597 2000 -2324 899 -603 1936 -1041 2970 -1255 1268 -263 2572 -199 3841 189 1381 423 2656 1242 3402 2185 125 158 262 374 349 550 286 578 284 1036 -7 1606 -450 883 -1524 1807 -2788 2398 -853 399 -1718 633 -2641 716 -166 15 -757 27 -915 19z m945 -493 c710 -73 1332 -224 1995 -486 193 -76 240 -99 248 -117 80 -198 120 -310 169 -473 45 -150 89 -327 83 -333 -3 -3 -76 11 -162 31 -377 86 -902 176 -1243 213 -53 6 -61 9 -46 18 138 80 176 246 83 367 -60 79 -171 107 -223 58 -24 -22 -24 -26 -24 -221 l0 -198 -52 5 c-173 17 -277 25 -320 25 -58 0 -63 17 -13 44 72 39 122 140 112 226 -17 146 -160 254 -253 194 -49 -33 -54 -58 -54 -265 l0 -192 -46 7 c-26 3 -96 6 -155 6 l-109 0 0 58 c0 38 7 71 20 97 26 52 27 154 1 210 -22 47 -74 99 -114 114 -16 6 -46 11 -67 11 -72 0 -106 -84 -55 -135 13 -14 31 -25 40 -25 24 0 22 -138 -2 -147 -65 -23 -86 -103 -37 -142 15 -12 33 -21 40 -21 8 0 14 -4 14 -9 0 -5 -106 -9 -235 -10 l-234 -2 -7 26 c-5 22 0 33 29 63 77 79 97 184 53 277 -43 93 -141 152 -208 124 -48 -20 -72 -86 -64 -179 10 -125 25 -253 31 -281 7 -26 5 -27 -47 -32 -29 -4 -117 -9 -195 -13 l-143 -7 0 28 c0 17 13 42 34 66 39 43 56 92 56 164 -1 92 -60 178 -146 211 -49 19 -85 13 -115 -17 -19 -19 -20 -27 -12 -82 10 -74 9 -219 -2 -265 -5 -23 -3 -39 9 -57 9 -13 16 -33 16 -45 0 -17 -7 -20 -52 -21 -29 0 -107 -6 -173 -13 -66 -7 -123 -11 -127 -9 -12 6 -10 101 2 108 18 11 48 80 55 127 11 75 -16 149 -79 214 -41 42 -59 54 -83 54 -43 0 -92 -19 -103 -40 -16 -30 -12 -76 9 -94 14 -13 20 -35 23 -98 5 -78 4 -83 -20 -103 -37 -32 -35 -81 6 -115 20 -17 32 -36 32 -51 0 -25 -3 -26 -152 -47 -84 -12 -163 -25 -174 -28 -17 -5 -22 0 -27 23 -3 18 0 31 8 36 75 42 125 129 125 218 0 112 -83 215 -183 226 -40 5 -49 2 -72 -21 -27 -27 -30 -53 -11 -97 5 -11 1 -18 -12 -21 -11 -3 -28 -17 -37 -32 -16 -25 -16 -34 7 -196 l24 -170 -35 -6 c-129 -21 -289 -51 -509 -95 -139 -28 -255 -49 -258 -46 -3 2 -25 81 -49 173 -64 248 -155 507 -230 654 l-24 48 57 22 c793 306 1669 495 2472 534 201 10 752 -4 940 -23z m-3568 -689 c82 -175 181 -473 231 -693 l15 -67 -247 -62 c-272 -69 -510 -135 -735 -205 -81 -25 -150 -45 -152 -43 -1 2 -21 75 -43 163 -22 88 -64 234 -94 325 -30 91 -54 166 -53 167 8 10 360 198 522 279 179 88 485 229 505 233 3 1 27 -43 51 -97z m6486 -239 c214 -121 465 -280 599 -379 68 -50 72 -56 103 -136 29 -74 130 -365 130 -375 0 -2 -17 4 -37 13 -198 84 -587 217 -862 295 -96 27 -175 50 -176 52 -1 1 -23 88 -49 192 -27 105 -77 277 -112 384 -35 106 -64 195 -64 198 0 6 328 -165 468 -244z m-5162 11 c9 -21 12 -44 7 -57 -6 -19 -8 -16 -14 18 -3 22 -9 48 -14 58 -4 9 -4 17 -1 17 4 0 14 -16 22 -36z m-2492 -416 c58 -177 131 -468 119 -478 -4 -4 -93 -38 -198 -75 -613 -217 -1177 -479 -1547 -718 -32 -21 -58 -35 -58 -32 0 3 35 52 77 108 299 395 784 830 1318 1184 83 54 168 111 190 125 22 15 43 27 46 27 3 1 27 -63 53 -141z m4566 15 c0 -41 -5 -75 -11 -79 -7 -4 -9 -22 -5 -48 4 -22 10 -76 14 -118 5 -42 14 -83 21 -92 11 -13 9 -19 -13 -38 -36 -33 -39 -75 -6 -108 43 -43 153 -14 206 55 74 98 71 220 -8 310 -36 41 -38 46 -38 114 l0 71 109 0 c59 0 129 -3 154 -6 l46 -7 3 -163 c3 -152 4 -165 25 -185 26 -27 77 -28 104 -3 18 16 19 16 19 -5 0 -37 -18 -60 -59 -72 -63 -19 -86 -94 -40 -131 58 -49 181 3 228 95 54 105 32 219 -57 297 -25 22 -49 40 -53 40 -5 0 -9 27 -9 60 l0 60 43 0 c23 0 114 -7 202 -15 88 -8 163 -15 168 -15 4 0 7 -64 7 -143 0 -148 4 -163 44 -185 24 -12 77 2 89 24 8 14 11 14 18 3 24 -39 -3 -119 -40 -119 -10 0 -30 -9 -45 -21 -20 -16 -26 -29 -26 -58 0 -52 28 -76 87 -74 138 5 233 181 173 321 -24 56 -84 118 -125 128 -22 6 -25 11 -25 55 0 56 -5 54 105 39 39 -5 115 -15 169 -20 297 -32 1195 -208 1230 -241 12 -11 48 -199 85 -439 130 -849 145 -1755 40 -2570 -37 -288 -111 -686 -132 -707 -28 -27 -712 -177 -1107 -242 -646 -107 -1214 -154 -1850 -154 -500 0 -835 21 -1310 84 -435 57 -1011 170 -1433 280 -21 5 -35 14 -32 18 10 18 86 374 114 543 164 961 159 2089 -13 3031 l-32 177 35 10 c149 38 748 147 757 137 2 -2 12 -64 23 -138 18 -119 23 -136 46 -156 28 -25 55 -29 86 -13 23 13 24 8 4 -29 -8 -16 -28 -34 -47 -40 -46 -16 -68 -40 -68 -74 0 -71 79 -99 160 -57 108 55 151 203 94 319 -23 45 -79 101 -114 113 -9 3 -32 99 -26 106 3 3 330 50 333 48 1 -1 6 -57 11 -125 8 -103 13 -127 30 -144 27 -26 77 -25 107 3 20 19 23 19 29 5 19 -52 0 -99 -48 -115 -45 -15 -69 -43 -68 -82 2 -69 76 -92 161 -49 166 85 153 353 -21 426 -36 14 -38 18 -38 59 l0 43 118 12 c64 6 144 14 178 17 l60 6 11 -176 c11 -189 17 -207 69 -220 28 -7 79 16 88 39 3 9 6 33 6 53 0 28 3 33 10 22 5 -8 10 -32 10 -52 0 -41 -27 -78 -57 -78 -9 0 -27 -10 -40 -22 -30 -28 -30 -74 -1 -105 54 -58 177 -7 231 97 26 49 28 63 24 122 -7 106 -71 192 -158 213 -23 6 -28 13 -33 57 -4 28 -3 54 1 58 8 7 384 32 390 26 2 -2 12 -74 24 -161 11 -87 24 -166 29 -175 15 -29 39 -43 71 -42 16 0 27 -4 24 -9 -4 -5 -15 -9 -26 -9 -29 0 -69 -44 -69 -76 0 -64 75 -93 153 -60 38 15 94 76 113 122 23 55 18 142 -12 203 -25 50 -90 111 -119 111 -12 0 -25 42 -25 81 0 17 11 19 138 21 75 2 176 3 224 3 l88 0 0 -72z m4093 -299 c153 -126 377 -336 487 -456 157 -171 153 -166 90 -126 -94 60 -211 124 -389 213 -95 48 -174 92 -176 98 -2 7 -27 87 -57 180 -29 92 -52 167 -50 167 1 0 44 -34 95 -76z m-7174 -194 c122 -729 154 -1535 90 -2280 -31 -367 -114 -889 -182 -1145 -16 -58 -4 -57 -162 -13 -247 68 -946 295 -963 313 -2 2 6 50 17 107 151 755 186 1648 96 2433 -12 99 -55 395 -68 469 -6 29 1120 339 1134 312 4 -6 21 -94 38 -196z m6099 140 c260 -75 594 -192 849 -297 l112 -47 31 -130 c219 -919 225 -1828 18 -2607 l-30 -116 -148 -61 c-328 -136 -949 -346 -968 -328 -2 3 7 65 21 138 157 796 193 1741 101 2638 -26 261 -93 718 -121 828 -5 21 -3 24 11 19 9 -4 65 -20 124 -37z m-7423 -312 c11 -29 56 -349 74 -529 63 -608 52 -1225 -34 -1865 -26 -193 -71 -458 -83 -486 -6 -15 -29 -8 -187 56 -733 298 -1339 627 -1696 921 -60 49 -77 70 -105 129 -119 260 -133 437 -50 677 21 64 33 81 83 127 254 231 857 555 1494 803 144 56 480 178 492 179 4 0 10 -6 12 -12z m8736 -204 c370 -195 683 -423 758 -553 187 -322 262 -616 216 -851 -38 -197 -143 -447 -260 -623 -71 -105 -429 -349 -755 -512 l-107 -54 24 97 c13 53 37 174 53 267 104 611 101 1234 -10 1885 -28 160 -74 383 -87 416 -3 8 -3 14 0 14 2 0 78 -39 168 -86z m-10107 -2254 c306 -171 750 -379 1126 -527 91 -36 166 -66 167 -67 6 -5 -130 -523 -144 -549 -8 -13 -409 270 -603 427 -367 296 -702 632 -914 918 -27 36 -22 34 105 -46 74 -46 192 -116 263 -156z m10370 -356 c-124 -134 -325 -324 -474 -447 -63 -53 -116 -95 -117 -93 -1 1 7 27 19 57 11 30 40 109 63 175 l42 122 224 114 c123 63 249 130 279 150 30 19 57 34 59 32 2 -2 -40 -51 -95 -110z m-664 -279 c0 -18 -119 -306 -181 -439 -19 -40 -289 -217 -596 -392 -175 -100 -563 -293 -563 -280 0 1 22 61 49 132 62 166 108 304 156 477 l39 137 70 21 c314 90 748 238 926 315 73 31 100 39 100 29z m-7925 -131 c171 -57 411 -133 534 -169 124 -36 227 -67 229 -70 2 -2 -1 -19 -6 -37 -6 -18 -29 -94 -53 -168 -42 -136 -134 -386 -182 -492 l-26 -57 -48 20 c-100 44 -453 220 -578 289 -253 139 -366 211 -361 229 28 88 99 351 122 449 23 98 32 121 44 116 8 -3 155 -52 325 -110z m1070 -313 c631 -157 1261 -262 1905 -317 286 -24 999 -30 1335 -10 744 44 1471 149 2143 312 101 24 188 44 192 44 21 0 -121 -431 -214 -650 l-61 -145 -120 -48 c-1101 -439 -2337 -612 -3475 -486 -666 74 -1301 231 -1940 479 -102 40 -187 74 -189 76 -2 1 24 70 57 151 64 157 167 453 197 566 14 52 22 66 34 63 9 -3 70 -19 136 -35z"/>
</g>
</svg>